<svg width="68" height="68" viewBox="0 0 68 68" fill="none" xmlns="http://www.w3.org/2000/svg">
<path d="M16.49 47.94C16.6192 47.9604 17.3264 47.9944 17.3264 47.872C17.3264 47.8006 17.1972 47.804 17.1972 47.804C17.2142 47.26 17.9044 47.124 18.3974 47.4096C18.5333 47.4878 18.6589 47.5826 18.7714 47.6918C18.0744 47.7292 17.1496 48.2052 17.2108 48.8954C17.2459 49.0754 17.3214 49.2451 17.4315 49.3917C17.5416 49.5383 17.6835 49.6581 17.8466 49.742C18.0504 49.8945 18.2825 50.005 18.5294 50.0668C18.7764 50.1287 19.0331 50.1408 19.2848 50.1024C19.733 49.9881 20.1273 49.7212 20.4 49.3476C21.0162 49.3672 21.6192 49.1658 22.1 48.7798C22.1203 48.7637 22.1371 48.7437 22.1493 48.7209C22.1616 48.6981 22.1691 48.673 22.1714 48.6472C22.1714 48.5282 22.1714 48.535 21.4914 47.7802C21.4721 47.7587 21.448 47.7422 21.421 47.732C21.394 47.7218 21.365 47.7182 21.3364 47.7215C21.3077 47.7248 21.2803 47.735 21.2564 47.7511C21.2325 47.7673 21.2128 47.7889 21.199 47.8142C21.1872 47.829 21.177 47.845 21.1684 47.8618C21.1144 47.9632 21.0271 48.0429 20.9212 48.0875C20.8153 48.1321 20.6973 48.1389 20.587 48.1066C20.247 48.008 19.8084 47.107 19.0094 46.5698C18.3124 46.1006 17.3774 45.9612 16.7178 46.5188C16.4339 46.7625 16.232 47.0878 16.1398 47.4504C16.1031 47.5622 16.1104 47.6838 16.1602 47.7904C16.2495 47.877 16.366 47.9298 16.49 47.94ZM17.7684 49.2014C17.6752 49.1348 17.6104 49.0356 17.5871 48.9234C17.5638 48.8113 17.5836 48.6944 17.6426 48.5962C17.7933 48.3878 18.0029 48.2292 18.2444 48.1406C18.0496 48.4709 17.89 48.8208 17.7684 49.1844V49.2014ZM20.9712 48.6642C21.0528 48.4194 20.9712 48.5044 21.1072 48.4432C21.2102 48.3919 21.3034 48.3228 21.3826 48.2392L21.692 48.6064C21.4357 48.7689 21.1525 48.884 20.8556 48.9464C20.8896 48.858 20.944 48.722 20.9712 48.6472V48.6642ZM19.7404 47.7972C20.0634 48.2018 20.332 48.5622 20.825 48.5214C20.7546 48.6678 20.6977 48.8203 20.655 48.977C20.4068 48.994 20.3728 48.9362 20.2742 48.977C20.0804 49.0518 19.7608 49.7488 18.9856 49.7454C19.0338 49.6376 19.0648 49.5229 19.0774 49.4054C19.2967 49.3611 19.5021 49.2643 19.6758 49.1232C19.7502 49.0587 19.7986 48.9692 19.8118 48.8716C19.8118 48.7526 19.771 48.5996 19.5194 48.399C19.6131 48.2005 19.6871 47.9932 19.7404 47.7802V47.7972ZM18.598 49.0824C18.2988 48.9226 18.8088 48.6404 19.1386 48.6506C19.2143 48.6512 19.2884 48.6732 19.3522 48.7141C19.416 48.755 19.4669 48.8132 19.499 48.8818C19.4535 48.9549 19.3937 49.018 19.323 49.0672C19.2524 49.1164 19.1724 49.1506 19.088 49.1678C19.0037 49.185 18.9167 49.1848 18.8324 49.1672C18.7482 49.1496 18.6684 49.1149 18.598 49.0654V49.0824ZM18.9992 47.0016C19.2301 47.1979 19.4397 47.4178 19.6248 47.6578C19.5172 47.854 19.4349 48.0631 19.38 48.28C19.2371 48.239 19.0873 48.2278 18.9399 48.2471C18.7925 48.2664 18.6507 48.3158 18.5232 48.3922C17.901 48.7322 18.0472 49.4768 18.9108 49.3918C18.86 49.4896 18.8223 49.5936 18.7986 49.7012C18.4538 49.6325 18.1314 49.4795 17.8602 49.2558C18.1012 48.8813 18.2889 48.4751 18.4178 48.0488C18.55 47.9881 18.6929 47.9544 18.8383 47.9497C18.9837 47.9451 19.1286 47.9695 19.2644 48.0216L19.3358 47.753L19.261 47.719C19.1012 47.6102 19.0298 47.5252 18.8462 47.379C18.9143 47.2549 18.9658 47.1222 18.9992 46.9846V47.0016ZM17.68 46.4576C18.1055 46.4654 18.5174 46.6083 18.8564 46.8656C18.7955 47.0042 18.7499 47.149 18.7204 47.2974C18.5574 47.1695 18.3651 47.0842 18.1609 47.0492C17.9568 47.0142 17.7471 47.0305 17.5508 47.0968C17.6225 46.8906 17.666 46.6755 17.68 46.4576ZM16.9014 46.7228C17.0899 46.5761 17.3164 46.4865 17.5542 46.4644C17.4487 46.693 17.3831 46.9379 17.3604 47.1886C17.2591 47.2494 17.1762 47.3365 17.1205 47.4407C17.0648 47.5449 17.0384 47.6622 17.0442 47.7802C16.806 47.7934 16.5676 47.7575 16.3438 47.6748C16.3943 47.2972 16.5924 46.9549 16.8946 46.7228H16.9014ZM11.8218 46.155C11.2098 45.8898 9.84977 46.6752 9.60157 47.0968C9.56567 47.1898 9.56567 47.2928 9.60157 47.3858C9.81577 48.1984 11.815 51.068 12.1856 51.5134C12.2502 51.595 12.3386 51.4828 12.2808 51.3876C12.104 51.0952 12.1244 51.6834 13.0288 48.756C13.1126 48.7232 13.1906 48.6773 13.26 48.62C13.2915 48.585 13.309 48.5396 13.309 48.4925C13.309 48.4454 13.2915 48.4 13.26 48.365C13.2291 48.3269 13.1937 48.2926 13.1546 48.263L13.3688 47.4708L14.2188 47.94C14.0469 48.3697 13.9215 48.8165 13.8448 49.2728C13.502 49.3964 13.1807 49.5731 12.8928 49.7964C12.6922 50.0174 13.0084 50.4254 13.2056 50.6702C13.4028 50.915 13.5694 51.0816 13.6068 51.119C13.6442 51.1564 13.7632 51.119 13.753 51.0578C13.7314 51.0086 13.7027 50.9628 13.668 50.9218C13.4837 50.6351 13.3256 50.3324 13.1954 50.0174C13.4596 49.8593 13.7386 49.7272 14.0284 49.623C14.1338 49.5856 14.4602 49.4836 14.5486 49.538C14.9848 49.7678 15.4397 49.96 15.9086 50.1126C15.9275 50.1216 15.9493 50.1228 15.969 50.1157C15.9888 50.1087 16.005 50.0942 16.014 50.0752C16.023 50.0563 16.0241 50.0345 16.0171 50.0148C16.0101 49.995 15.9955 49.9788 15.9766 49.9698L15.3884 49.6128C15.5136 49.3289 15.5939 49.0272 15.6264 48.7186L17.0782 49.504C17.1666 49.555 17.2346 49.4156 17.17 49.3782C17.1054 49.3408 12.699 46.5392 11.8218 46.155ZM11.305 46.5154C11.4236 46.4798 11.5501 46.4798 11.6688 46.5154C11.747 46.5494 11.9374 46.6514 12.1958 46.7942C12.1086 47.0349 12.0493 47.2847 12.019 47.5388C11.7912 47.4096 11.6552 47.311 11.475 47.3416C11.3768 47.3636 11.2849 47.4078 11.2064 47.4708C11.2404 47.2056 11.271 47.0016 11.305 46.5154ZM9.94497 47.2634C10.2976 46.9272 10.7254 46.6801 11.1928 46.5426C11.0113 47.3446 10.8841 48.1579 10.812 48.977C10.4691 48.434 10.1799 47.859 9.94837 47.26L9.94497 47.2634ZM11.4886 50.1228C11.3016 49.8134 11.0976 49.47 10.9038 49.1334C11.0194 48.6472 11.0568 48.4228 11.1282 47.9638C11.3142 48.2865 11.5293 48.5915 11.7708 48.875C11.6337 49.2798 11.5402 49.6981 11.492 50.1228H11.4886ZM12.0836 51.102C11.9612 50.9082 11.8048 50.6464 11.6008 50.3098C11.7298 49.8832 11.8153 49.4447 11.8558 49.0008C11.9306 49.181 12.597 48.9226 12.7772 48.8546C12.6446 49.2728 12.1822 50.728 12.087 51.102H12.0836ZM11.9816 48.8954C11.7709 48.5308 11.5846 48.1525 11.424 47.7632L11.5294 47.7054C11.577 47.7326 12.7398 48.4194 12.8248 48.4738C12.5598 48.6423 12.2784 48.7836 11.985 48.8954H11.9816ZM13.0016 48.1474C12.7466 47.9774 12.3998 47.77 12.1346 47.617C12.2253 47.3763 12.2847 47.1249 12.3114 46.869L13.277 47.413C13.26 47.5422 13.1444 47.8074 13.022 48.1474H13.0016ZM15.2524 49.5074L14.7288 49.1912C14.4961 49.0994 14.2372 49.0994 14.0046 49.1912C14.1363 48.7938 14.2319 48.3853 14.2902 47.9706L15.521 48.6506C15.3952 48.9279 15.3116 49.2224 15.2728 49.5244L15.2524 49.5074Z" fill="black"/>
<path d="M66.079 50.7178C65.5282 45.5906 60.7818 37.706 57.9462 33.3982C59.5295 33.5248 61.1185 33.5646 62.7062 33.5172C63.1584 33.5172 64.3416 33.4356 64.5694 33.3914C64.702 33.3642 64.7224 33.2384 64.5218 33.2316C64.3212 33.2248 62.8932 33.1568 62.6994 33.1534H59.2416C58.7112 33.1738 57.8816 33.2214 57.834 33.2214C56.814 31.6676 56.1034 30.6952 56.0966 30.6918C56.0888 30.6838 56.0793 30.6777 56.0689 30.6737C56.0586 30.6697 56.0474 30.668 56.0363 30.6686C56.0252 30.6693 56.0144 30.6723 56.0045 30.6775C55.9947 30.6827 55.986 30.6899 55.9792 30.6987C55.9724 30.7075 55.9675 30.7176 55.9649 30.7284C55.9623 30.7393 55.962 30.7505 55.9641 30.7615C55.9662 30.7724 55.9706 30.7827 55.9771 30.7918C55.9835 30.8009 55.9918 30.8085 56.0014 30.8142C56.1578 30.94 63.0292 40.9802 65.1304 47.8958C65.9634 50.6396 66.4564 54.0838 63.7704 55.0358C57.392 57.3138 7.43579 58.055 2.71319 55.3758C2.05699 55.0052 1.90399 54.2334 2.03319 53.193C2.23379 51.748 3.01239 49.793 3.95079 47.6034C5.00819 48.6234 13.7802 56.678 15.2014 56.3754C16.6226 56.0728 24.616 52.36 24.9458 51.6494C25.1374 51.1558 25.2387 50.6318 25.245 50.1024C25.2852 50.047 25.304 49.9788 25.2977 49.9107C25.2915 49.8425 25.2606 49.7789 25.211 49.7318C24.684 49.2082 14.229 40.919 13.5558 40.9428C13.0866 40.9632 12.2366 41.446 11.832 41.684C11.7008 41.4693 11.5055 41.3013 11.2737 41.2037C11.0418 41.1061 10.7852 41.0838 10.54 41.14C10.3088 41.2333 10.1018 41.3779 9.93454 41.5628C9.76729 41.7478 9.64415 41.9682 9.57439 42.2076C9.5782 42.2259 9.58822 42.2424 9.60278 42.2543C9.61733 42.2661 9.63552 42.2726 9.65429 42.2726C9.67305 42.2726 9.69124 42.2661 9.7058 42.2543C9.72035 42.2424 9.73038 42.2259 9.73419 42.2076C9.93869 41.8617 10.2629 41.6029 10.6454 41.48C10.8044 41.4555 10.9671 41.4768 11.1146 41.5412C11.2621 41.6056 11.3882 41.7105 11.4784 41.8438L7.69759 43.4588C7.49684 43.2524 7.24622 43.1013 6.96999 43.0202C6.32399 42.8502 5.88879 43.2752 5.63039 43.8974C5.6247 43.9153 5.62535 43.9346 5.63225 43.952C5.63914 43.9695 5.65185 43.9841 5.66823 43.9933C5.68461 44.0024 5.70365 44.0057 5.72216 44.0025C5.74066 43.9993 5.75748 43.9897 5.76979 43.9756C6.20499 43.3466 6.70819 43.1324 7.30999 43.6356C6.58239 43.9586 5.56579 44.4176 4.85179 44.7712C4.90279 44.6896 12.24 31.4024 12.24 31.3684C12.563 30.77 13.2124 29.699 13.8822 29.5596C14.1849 29.4936 14.4937 29.4594 14.8036 29.4576C14.331 30.2396 10.4958 36.5976 10.489 37.4952C10.489 38.5152 10.6658 38.3554 11.2098 38.5152C11.7538 38.675 42.194 38.488 42.2484 38.488C42.7754 38.488 44.8358 38.42 45.0262 38.2806C45.6178 37.8454 45.4852 37.196 45.2268 36.5126C45.1656 36.3494 44.8562 35.6728 44.4414 34.7684C46.2264 34.2312 47.5694 34.9146 47.6918 37.8284C47.8142 40.3478 46.8214 41.1162 44.9208 41.0074C43.3942 40.919 42.3402 40.4702 42.007 41.0652C41.633 41.7282 42.6666 43.2174 43.1154 43.8362C43.0508 43.8362 40.205 43.7784 39.4876 43.7478C38.4767 43.7086 37.4644 43.7211 36.4548 43.7852C35.7595 43.8005 35.0682 43.8952 34.3944 44.0674C34.1394 44.1932 33.8096 44.8494 33.6702 45.1248C33.3948 45.6654 32.1402 49.0586 31.7934 50.0378C31.5894 50.6022 30.8992 52.4722 31.3616 52.802C31.3446 53.1658 31.4024 53.652 31.722 53.822C32.0416 53.992 36.4344 54.1144 36.771 54.1212C37.366 54.1382 43.3806 54.2164 47.2192 54.0464C51.0578 53.8764 52.734 53.5092 52.6354 53.5194C52.7329 53.4907 52.8205 53.4354 52.8883 53.3597C52.9562 53.2841 53.0016 53.191 53.0196 53.091C53.072 52.8397 53.0556 52.5789 52.972 52.3362C53.4004 51.5032 50.1602 44.5876 49.2626 44.1014C49.2096 44.0715 49.15 44.0552 49.0892 44.0538C48.909 44.0538 44.8766 43.8838 43.3092 43.8328C42.9692 43.3534 41.8642 41.548 42.2892 41.1638C42.9352 40.5994 48.331 43.4282 48.042 37.7978C47.8924 35.2512 46.7194 33.7586 44.3394 34.6222C44.132 34.1734 42.3912 30.4538 41.9254 29.4644C43.7299 29.5723 45.5402 29.5325 47.3382 29.3454C47.364 29.6627 47.4553 29.9712 47.6063 30.2515C47.7572 30.5318 47.9646 30.7778 48.2154 30.974C49.5754 31.994 54.9882 31.841 55.9708 30.5932C56.2461 30.2166 56.4364 29.7848 56.5286 29.3275C56.6208 28.8702 56.6126 28.3984 56.5046 27.9446C56.595 27.887 56.6652 27.8026 56.7052 27.7032C56.7596 27.5978 56.7052 27.4652 56.4706 27.4176C56.1679 27.3722 55.8619 27.354 55.556 27.3632C55.556 27.0844 55.573 26.5642 55.556 25.9726C55.5866 25.9522 55.8076 25.687 55.8314 25.6564C56.1023 25.3397 56.3163 24.9785 56.4638 24.5888C56.576 24.2726 56.6202 23.9088 56.3244 23.732C55.8688 23.4838 55.5492 23.9394 55.3962 24.4494C55.2534 23.664 54.9236 22.5114 54.1348 22.627C52.7952 22.831 53.72 26.078 54.1552 27.3632C53.7729 27.3093 53.3849 27.3093 53.0026 27.3632C53.4276 26.2956 53.6452 24.9152 52.5538 24.7078C52.3883 24.6712 52.2158 24.6839 52.0574 24.7443C51.8991 24.8047 51.762 24.9102 51.663 25.0478C51.6411 24.9708 51.6001 24.9007 51.5438 24.8439C51.4874 24.7871 51.4176 24.7456 51.3408 24.7231C51.264 24.7007 51.1828 24.6981 51.1048 24.7157C51.0267 24.7332 50.9544 24.7703 50.8946 24.8234C50.3948 25.1838 50.6804 26.01 51.2618 26.282C51.2312 26.6315 51.2312 26.983 51.2618 27.3326C50.8998 27.2888 50.5335 27.2968 50.1738 27.3564C50.1536 26.5262 50.0626 25.6993 49.9018 24.8846C50.1084 24.7376 50.2822 24.5492 50.4121 24.3315C50.542 24.1138 50.6253 23.8714 50.6566 23.6198C50.7042 23.1676 50.5444 22.7902 50.167 22.6916C49.6944 22.5692 49.4156 22.899 49.334 23.3716C48.9158 22.7936 48.0964 22.5862 47.6986 23.2492C46.4236 21.9232 45.8082 22.6644 46.1312 23.2492C46.3726 23.698 47.0016 23.9496 47.4912 24.089C47.4912 24.8506 47.8312 25.4932 48.2528 26.1494C48.535 26.5914 48.8512 27.0164 49.096 27.3292C48.5669 27.3122 48.0375 27.3463 47.515 27.4312C47.1954 27.5162 47.1444 27.7474 47.4402 27.914C47.3466 28.3125 47.3123 28.7226 47.3382 29.1312C45.5118 29.034 43.6806 29.0772 41.8608 29.2604C41.7452 29.0122 41.4018 28.288 41.361 28.203C41.3202 28.118 41.6466 27.132 42.1056 17.9656C44.2136 17.7888 53.6928 17.9996 54.5632 17.663C54.6131 17.6451 54.6573 17.6142 54.6914 17.5736C54.7254 17.533 54.7481 17.484 54.757 17.4318C55.046 16.4832 55.2432 8.32997 54.757 7.57177C54.638 7.38477 54.213 7.32697 53.9784 7.29297C50.949 6.85097 38.3078 7.04137 37.6584 7.38477C37.009 7.72817 37.2844 11.0806 37.4068 11.747C30.8414 11.5362 15.6808 11.9476 14.2528 12.4814C13.9128 12.6038 13.787 13.0696 13.719 13.4198C13.1546 16.3336 14.739 25.7108 15.2694 28.6076C15.2354 28.6076 15.2694 28.6076 14.8546 29.2536C14.5035 29.2276 14.1505 29.2458 13.804 29.308C13.0288 29.427 12.3148 30.498 11.9204 31.1644C11.9034 31.1984 10.9004 32.8644 10.7508 33.1364C9.89739 33.0038 5.92959 33.0548 5.42639 33.082C4.92319 33.1092 4.40639 33.1466 3.95079 33.1806C3.86919 33.1806 3.86239 33.337 3.95079 33.3404C4.90279 33.3982 5.25299 33.4186 5.99079 33.4288C7.79619 33.456 10.4584 33.5308 10.5434 33.5206C10.3666 33.83 7.74859 38.488 7.39839 39.1476C5.87519 42.0036 4.67839 44.6182 4.60699 44.8392C4.21175 45.0189 3.84054 45.2473 3.50199 45.5192C3.39279 45.8187 3.32751 46.1325 3.30819 46.4508C3.29119 46.9982 3.48839 47.1308 3.79099 47.4368C2.97903 49.1765 2.31152 50.98 1.79519 52.8292C1.62663 53.5773 1.61967 54.3528 1.77479 55.1038C1.91361 55.8546 2.1731 56.5779 2.54319 57.2458C2.70943 57.4146 2.92485 57.5265 3.15859 57.5654C4.05279 57.817 6.82379 58.14 7.75199 58.2454C7.68201 58.6608 7.66261 59.0832 7.69419 59.5034C7.6951 59.9362 7.75808 60.3668 7.88119 60.7818C7.8823 60.792 7.88543 60.802 7.89039 60.811C7.89535 60.8201 7.90205 60.8281 7.9101 60.8346C7.91815 60.841 7.9274 60.8459 7.93731 60.8488C7.94723 60.8517 7.95762 60.8526 7.96789 60.8515C7.97816 60.8503 7.98811 60.8472 7.99717 60.8423C8.00623 60.8373 8.01422 60.8306 8.02069 60.8225C8.02717 60.8145 8.03199 60.8053 8.03489 60.7953C8.03779 60.7854 8.0387 60.775 8.03759 60.7648C8.09198 60.3409 8.10678 59.9129 8.08179 59.4864C8.07955 59.0757 8.03281 58.6664 7.94239 58.2658C8.41159 58.3066 8.86379 58.3406 9.25819 58.3542C9.19547 58.751 9.17836 59.1537 9.20719 59.5544C9.20834 59.9872 9.27131 60.4177 9.39419 60.8328C9.39419 60.8535 9.40243 60.8734 9.41709 60.8881C9.43176 60.9027 9.45165 60.911 9.47239 60.911C9.49313 60.911 9.51302 60.9027 9.52768 60.8881C9.54235 60.8734 9.55059 60.8535 9.55059 60.8328C9.60682 60.4091 9.62275 59.981 9.59819 59.5544C9.59586 59.1573 9.55025 58.7617 9.46219 58.3746C10.2204 58.3916 21.3792 59.3946 40.6504 59.0138C45.815 58.9118 52.0234 58.6738 57.137 58.1128C57.0695 58.5228 57.0501 58.9393 57.0792 59.3538C57.0808 59.7857 57.145 60.2152 57.2696 60.6288C57.2672 60.6402 57.2673 60.6519 57.2701 60.6633C57.2728 60.6746 57.278 60.6852 57.2853 60.6942C57.2927 60.7033 57.3019 60.7106 57.3124 60.7156C57.3229 60.7206 57.3344 60.7232 57.3461 60.7232C57.3577 60.7232 57.3692 60.7206 57.3797 60.7156C57.3903 60.7106 57.3995 60.7033 57.4068 60.6942C57.4142 60.6852 57.4194 60.6746 57.4221 60.6633C57.4248 60.6519 57.425 60.6402 57.4226 60.6288C57.482 60.2054 57.4979 59.777 57.4702 59.3504C57.4665 58.9304 57.4175 58.512 57.324 58.1026C57.7014 58.0618 58.5752 57.953 58.65 57.9428C58.583 58.3506 58.5648 58.7649 58.5956 59.177C58.5958 59.6099 58.6588 60.0405 58.7826 60.4554C58.7848 60.4761 58.7952 60.4951 58.8115 60.5082C58.8278 60.5212 58.8485 60.5273 58.8693 60.5251C58.89 60.5228 58.909 60.5124 58.9221 60.4962C58.9352 60.4799 58.9412 60.4591 58.939 60.4384C58.9949 60.0158 59.0097 59.5888 58.9832 59.1634C58.981 58.7444 58.932 58.327 58.837 57.919C60.3704 57.7116 65.059 57.0792 65.6982 55.7702C66.453 54.2776 66.3918 52.3362 66.079 50.7178ZM35.139 45.2438C35.1764 45.152 36.3154 44.9038 37.5598 45.2438C37.5712 45.2414 37.583 45.2415 37.5943 45.2442C37.6056 45.247 37.6162 45.2522 37.6252 45.2595C37.6343 45.2668 37.6416 45.2761 37.6466 45.2866C37.6516 45.2971 37.6542 45.3086 37.6542 45.3203C37.6542 45.3319 37.6516 45.3434 37.6466 45.3539C37.6416 45.3644 37.6343 45.3737 37.6252 45.381C37.6162 45.3884 37.6056 45.3936 37.5943 45.3963C37.583 45.399 37.5712 45.3992 37.5598 45.3968C36.9401 45.5068 36.3074 45.5229 35.683 45.4444C35.3906 45.3968 35.02 45.3934 35.1288 45.2438H35.139ZM52.6184 53.329C49.4734 53.9274 32.0994 53.7914 31.8376 53.669C31.5758 53.5466 31.552 53.1522 31.5452 52.8938C33.4288 53.5058 51.833 53.0332 52.8564 52.4926C52.9108 52.7918 52.9244 53.2712 52.6082 53.329H52.6184ZM46.019 45.2812C46.019 45.1656 46.767 45.101 46.801 45.0976C47.2457 45.0634 47.6924 45.0634 48.1372 45.0976C48.3854 45.1248 48.7288 45.1588 48.7016 45.2642C48.6744 45.3696 48.161 45.4138 48.0726 45.4274C47.7403 45.458 47.4067 45.4716 47.073 45.4682C46.8486 45.4614 45.9952 45.4206 46.0088 45.2812H46.019ZM50.388 46.4134C51.2386 48.0342 51.9528 49.723 52.5232 51.4624C52.5957 51.682 52.6358 51.9111 52.6422 52.1424C51.1088 52.6184 33.4356 53.108 31.6472 52.5946C31.5622 52.5708 31.5384 52.5946 31.518 52.4518C31.3888 51.527 32.9018 47.8516 33.252 46.9948C39.6848 46.7806 50.32 46.4508 50.3778 46.4134H50.388ZM47.5252 23.936C47.1533 23.7317 46.816 23.4701 46.5256 23.1608C46.393 22.9602 46.4236 22.8208 46.8146 23.0112C47.0594 23.1234 47.4028 23.324 47.634 23.4634C47.5746 23.6147 47.5379 23.7739 47.5252 23.936ZM55.6852 24.5446C55.9572 24.055 56.2258 23.9156 56.1986 24.2046C56.0525 24.7217 55.8447 25.2194 55.5798 25.687C55.5594 25.347 55.5356 25.1192 55.5084 24.8948C55.522 24.8472 55.59 24.7044 55.675 24.5446H55.6852ZM54.2402 27.5026C54.3082 27.6964 54.3524 27.812 54.3558 27.8188C54.3595 27.8284 54.3652 27.8372 54.3723 27.8446C54.3795 27.8521 54.3881 27.858 54.3976 27.8621C54.407 27.8663 54.4173 27.8684 54.4276 27.8686C54.4379 27.8687 54.4482 27.8668 54.4578 27.863C54.6074 27.8052 54.3864 27.6658 54.0328 25.6156C53.9274 25.0036 53.6146 23.1166 54.2334 23.0282C54.7366 22.9534 55.0086 24.2012 55.1038 24.6942C55.2802 25.6445 55.3938 26.6053 55.4438 27.5706C55.4435 27.5894 55.4501 27.6077 55.4623 27.6221C55.4744 27.6364 55.4914 27.646 55.51 27.6489C55.5286 27.6517 55.5476 27.6478 55.5635 27.6378C55.5795 27.6278 55.5913 27.6124 55.5968 27.5944C55.5978 27.5751 55.5978 27.5558 55.5968 27.5366C55.9042 27.5456 56.2097 27.5878 56.508 27.6624C56.47 27.7067 56.4223 27.7416 56.3686 27.7644C55.6546 28.1316 53.4956 28.0602 52.751 28.0466C52.853 27.8426 52.9244 27.6862 53.0026 27.4992C53.4089 27.5659 53.8233 27.5671 54.23 27.5026H54.2402ZM51.5882 26.758C51.6664 26.078 51.8398 24.9934 52.5266 25.1226C53.2134 25.2518 53.04 26.248 52.8904 26.9144C52.7981 27.2967 52.6846 27.6735 52.5504 28.0432H51.5304C51.5222 27.6142 51.5381 27.1851 51.578 26.758H51.5882ZM51.1564 25.16C51.1722 25.1449 51.191 25.1333 51.2115 25.1259C51.2321 25.1186 51.254 25.1156 51.2757 25.1172C51.2975 25.1188 51.3187 25.125 51.338 25.1352C51.3573 25.1455 51.3741 25.1597 51.3876 25.177C51.4417 25.2312 51.4907 25.2904 51.5338 25.3538C51.4372 25.5706 51.3697 25.7992 51.3332 26.0338C51.1564 25.789 50.9286 25.3436 51.1564 25.16ZM50.0854 23.0928C50.5274 23.2322 50.1806 24.395 49.8848 24.7486C49.803 24.3826 49.681 24.0269 49.521 23.6878C49.6196 23.3886 49.7862 22.9976 50.0854 23.0894V23.0928ZM49.249 27.54C49.4156 27.7508 49.5244 27.88 49.5244 27.88C49.5379 27.8933 49.5558 27.9013 49.5747 27.9024C49.5937 27.9035 49.6124 27.8977 49.6273 27.886C49.6423 27.8744 49.6525 27.8577 49.6561 27.8391C49.6597 27.8204 49.6564 27.8011 49.6468 27.7848C49.6468 27.7848 49.045 26.928 48.5486 26.0406C48.1746 25.3606 47.8176 24.6806 47.9162 23.9292C47.9944 23.3376 48.3072 23.086 48.8342 23.4294C49.5958 23.919 49.9426 26.9382 50.0514 27.8494C50.0524 27.8732 50.0609 27.8961 50.0755 27.915C50.0901 27.9339 50.1102 27.9478 50.133 27.9548C50.2248 27.9548 50.2112 27.8562 50.2078 27.8086C50.2044 27.761 50.2078 27.523 50.2078 27.4992C50.569 27.5449 50.9346 27.5449 51.2958 27.4992C51.3162 27.7474 51.34 27.9412 51.357 28.0432C50.15 28.0432 48.6914 28.1248 47.6918 27.7338C48.2056 27.6321 48.726 27.5674 49.249 27.54ZM47.6204 28.0398C48.1177 28.2325 48.6418 28.3472 49.1742 28.3798C49.776 28.4342 53.873 28.441 54.3388 28.4172C55.0412 28.4056 55.7366 28.2757 56.3958 28.033C56.459 28.4505 56.4352 28.8765 56.3258 29.2844C56.2164 29.6922 56.0237 30.073 55.76 30.4028C54.9338 31.3718 49.708 31.5928 48.4534 30.7088C47.6272 30.141 47.4776 29.0054 47.6204 28.0364V28.0398ZM44.88 38.0222C44.9514 38.25 12.5324 38.2602 12.4984 38.2568C11.1384 38.2568 11.4784 38.2568 11.0228 38.1446C10.9004 38.1174 10.8766 38.1174 10.8528 37.9984C10.8239 37.8117 10.816 37.6224 10.829 37.434C10.8361 37.4479 10.8476 37.4591 10.8618 37.4659C10.8759 37.4726 10.8919 37.4746 10.9072 37.4714C10.9072 37.4714 44.8698 37.009 45.0908 37.0022C45.1826 37.4 45.1962 37.7706 44.88 38.0222ZM54.4442 17.3876C54.4442 17.3876 54.4646 17.3536 54.4714 17.3638C54.4782 17.374 54.4442 17.3842 54.4272 17.3876H54.4442ZM37.536 8.81277C37.536 8.59177 37.6244 7.75537 37.8216 7.65337C38.2704 7.42897 52.5334 7.23857 54.4816 7.84717C54.8216 8.56117 54.7128 16.5818 54.4272 17.3876C52.7544 17.6494 44.336 17.629 42.1464 17.8534C42.279 15.1776 42.3368 12.9234 42.228 12.4848C42.207 12.4276 42.1731 12.376 42.1288 12.3341C42.0846 12.2922 42.0312 12.2612 41.973 12.2434C41.2284 11.9204 38.4268 11.8286 37.6108 11.8014C37.5049 10.8088 37.4799 9.80935 37.536 8.81277ZM14.025 17.374C13.974 16.66 13.7224 13.056 14.4024 12.8044C14.7424 12.6854 15.9392 12.5664 17.6766 12.4644C21.0052 12.257 26.2514 12.0904 31.025 12.0564C32.0858 12.0564 41.0482 11.9782 41.9254 12.58C42.1838 13.7564 41.3576 26.826 41.174 28.0874C33.1398 28.3492 23.6198 28.7436 15.5176 28.5464C15.3816 27.7678 14.3412 21.76 14.025 17.374ZM15.4122 28.7742C15.4128 28.7662 15.4128 28.7583 15.4122 28.7504C21.1412 28.9272 39.0694 28.339 41.2522 28.3254C41.4936 28.8864 44.8834 36.4072 45.0262 36.8254C44.9888 36.8254 10.88 37.2878 10.8358 37.3218C11.2642 35.887 14.807 29.8214 15.4122 28.7742ZM24.7588 51.5542C24.5072 52.0438 16.8844 55.4506 15.317 55.9232C15.3474 55.7664 15.3588 55.6066 15.351 55.4472C17.6664 54.6448 22.6916 52.5266 24.9458 51.0272C24.9028 51.2102 24.8401 51.3881 24.7588 51.5576V51.5542ZM24.9934 50.8028C24.3134 51.204 23.664 51.4828 15.3476 55.2636C15.3479 55.1096 15.3273 54.9564 15.2864 54.808C16.3744 54.298 23.7524 51.4386 25.0682 50.2996C25.0512 50.4458 25.0274 50.6226 24.9934 50.8062V50.8028ZM7.47999 43.826C7.64348 44.0186 7.74467 44.2562 7.77017 44.5076C7.79567 44.7589 7.74427 45.0121 7.62279 45.2336C7.56839 45.3186 7.69759 45.407 7.75199 45.3186C7.95725 45.0948 8.07859 44.8069 8.09533 44.5037C8.11207 44.2005 8.02317 43.9009 7.84379 43.656C9.49619 42.8978 11.1214 42.1838 11.5668 41.99C11.6782 42.2163 11.7379 42.4647 11.7414 42.717C11.7449 42.9693 11.6922 43.2192 11.5872 43.4486C11.5464 43.5574 11.6688 43.5982 11.7266 43.5268C11.9136 43.2892 12.03 43.0037 12.0624 42.7031C12.0949 42.4025 12.0421 42.0988 11.9102 41.8268C12.2774 41.6194 13.1342 41.1468 13.5524 41.1468C14.076 41.1468 24.701 49.7896 24.8982 49.9868C24.0108 50.9014 15.7726 54.162 15.079 54.4952C13.617 54.1552 4.69539 46.4814 3.85899 45.6926C4.37919 45.2608 6.89519 44.098 7.47999 43.826ZM3.60059 45.849C4.66139 46.886 13.5116 54.6108 14.994 54.8556C14.9642 54.9837 14.9505 55.115 14.9532 55.2466C12.5732 54.0838 5.77319 48.195 3.52239 46.3012C3.53259 46.3012 3.58359 45.968 3.61079 45.849H3.60059ZM3.65159 47.0152C3.55568 46.8692 3.50811 46.6967 3.51559 46.5222C5.73919 48.7662 12.0156 54.2844 14.9498 55.4336C14.9437 55.6154 14.962 55.7972 15.0042 55.9742C13.26 55.5832 3.88279 47.294 3.66179 47.0152H3.65159ZM65.5316 55.658C63.3352 60.0168 3.73319 58.8778 2.76759 57.1778C2.35829 56.4663 2.08179 55.6864 1.95159 54.876C2.08275 55.1632 2.30183 55.4014 2.57719 55.556C7.58199 58.4698 57.375 57.7082 63.8758 55.3724C65.2528 54.876 65.9464 53.805 66.1028 52.3124C66.1951 53.4585 65.9962 54.6093 65.5248 55.658H65.5316Z" fill="black"/>
<path d="M14.62 32.5346C38.6614 32.8746 40.9564 32.6672 41.6296 32.5618C41.7894 32.538 41.8914 32.4836 41.8846 32.2966C41.8846 31.8036 40.7286 29.5426 40.4226 29.3862C40.2866 29.3148 15.9426 29.6582 15.8576 29.6854C15.8417 29.6892 15.8269 29.6964 15.814 29.7063C15.8011 29.7163 15.7905 29.7289 15.7828 29.7432C15.5516 30.1206 14.4228 31.9838 14.4738 32.4054C14.4793 32.4406 14.4969 32.4728 14.5236 32.4963C14.5503 32.5199 14.5844 32.5335 14.62 32.5346ZM15.9562 29.92C16.201 29.8894 40.1506 29.6514 40.2968 29.665C40.5506 30.0302 40.7779 30.4131 40.9768 30.8108C40.4192 30.8108 15.4972 30.9434 15.368 30.9468C15.5176 30.6476 15.7148 30.3076 15.9562 29.92ZM15.2762 31.11C15.4088 31.11 40.6266 30.9808 41.0584 30.9706C41.2821 31.3872 41.4589 31.8274 41.5854 32.283C40.375 32.4768 29.3454 32.3816 14.7424 32.283C14.8788 31.8712 15.0553 31.4738 15.2694 31.0964L15.2762 31.11ZM33.3846 33.6906C33.3168 33.5405 33.2059 33.4138 33.0661 33.3267C32.9263 33.2396 32.7638 33.1958 32.5992 33.201C31.7356 33.201 24.4834 33.0004 23.8306 33.2656C23.4138 33.7706 23.0914 34.3464 22.8786 34.9656C22.8582 35.1152 22.933 35.1832 23.0248 35.1934C25.0648 35.4144 31.8274 35.6252 33.5818 35.3022C33.7994 35.2614 33.8266 35.0302 33.7824 34.8092C33.6771 34.4272 33.5442 34.0533 33.3846 33.6906ZM23.12 34.9656C23.3153 34.4139 23.5804 33.8894 23.9088 33.405C24.4256 33.235 31.1474 33.5886 32.6094 33.5852C32.6964 33.5821 32.7825 33.6042 32.8573 33.6488C32.9321 33.6934 32.9924 33.7587 33.031 33.8368C33.1962 34.19 33.325 34.5591 33.4152 34.9384C31.6914 35.207 24.3712 35.054 23.12 34.9656ZM56.9976 34.1258C56.5182 33.4662 54.1144 33.4968 53.3086 33.5206C52.6286 33.5206 50.1568 33.6328 50.1568 34.2992C50.1596 34.3532 50.1753 34.4057 50.2025 34.4524C50.2297 34.4991 50.2676 34.5387 50.3132 34.5678C50.3778 34.6188 49.9324 39.1 50.5444 41.5038C50.745 42.2994 51.0034 42.6938 51.7616 43.0236C53.2168 43.656 55.6308 43.5166 56.5998 42.1668C56.7936 41.7724 56.7528 40.6232 56.7698 40.273C58.276 40.5722 59.5102 39.9602 59.8298 38.3384C60.0304 37.2946 59.772 36.6112 59.3266 36.1964C59.029 35.9541 58.6772 35.7874 58.3013 35.7105C57.9254 35.6335 57.5364 35.6486 57.1676 35.7544C57.1547 35.7588 57.141 35.76 57.1275 35.7579C57.1141 35.7559 57.1014 35.7506 57.0904 35.7426C57.0794 35.7346 57.0705 35.7241 57.0644 35.712C57.0583 35.6998 57.0552 35.6864 57.0554 35.6728C57.0554 35.4926 57.12 34.272 56.9976 34.1258ZM50.5376 34.1972C51.4556 33.66 55.1956 33.6192 56.4026 34.1666C56.4434 34.187 56.5964 34.2652 56.5964 34.2992C56.5964 34.3332 56.44 34.4148 56.4026 34.4318C55.4914 34.8432 52.2376 35.0302 50.5274 34.4046C50.4084 34.34 50.5274 34.2108 50.5274 34.1972H50.5376ZM57.2628 36.1012C57.5718 36.0122 57.8978 35.9994 58.2128 36.0639C58.5278 36.1285 58.8225 36.2684 59.0716 36.4718C59.4388 36.8118 59.6224 37.3966 59.4524 38.2636C59.4186 38.565 59.3141 38.8542 59.1475 39.1076C58.9809 39.3611 58.7569 39.5717 58.4936 39.7222C57.9359 39.9732 57.3081 40.0213 56.7188 39.8582C56.6898 39.8477 56.659 39.8433 56.6282 39.8452C56.5975 39.8471 56.5675 39.8553 56.54 39.8694C56.5126 39.8834 56.4883 39.903 56.4688 39.9268C56.4492 39.9506 56.4348 39.9782 56.4264 40.0078C56.3346 40.2662 56.4638 41.31 56.2768 41.9696C55.4166 43.1358 53.2168 43.2412 51.9146 42.6938C51.255 42.4116 51.0714 42.1192 50.8946 41.4154C50.439 39.746 50.4118 36.346 50.5138 34.6732C51.5848 35.1798 55.2942 35.326 56.7528 34.578C56.7528 35.632 56.6236 35.8088 56.8888 36.023C56.9401 36.0617 56.9992 36.0888 57.062 36.1023C57.1249 36.1158 57.1899 36.1154 57.2526 36.1012H57.2628ZM24.2352 43.3058C23.3423 42.5485 22.3817 41.8747 21.3656 41.293C20.9741 41.0621 20.5578 40.8761 20.1246 40.7388C19.7608 40.6436 19.6078 40.8306 19.6826 41.0788C19.8359 41.4352 20.0384 41.7682 20.2844 42.0682C21.0667 43.0585 21.9663 43.9502 22.9636 44.7236C24.48 45.9918 26.4452 47.5286 27.88 48.62C27.9531 48.6734 28.0361 48.7117 28.1242 48.7326C28.2123 48.7535 28.3037 48.7566 28.393 48.7417C28.4823 48.7269 28.5677 48.6943 28.6443 48.6459C28.7208 48.5976 28.787 48.5345 28.8388 48.4602C29.0904 48.1848 29.2468 47.702 28.9646 47.4402C28.6382 47.1478 26.6424 45.2676 24.2352 43.3058ZM20.978 42.551L20.5122 41.7996C20.678 41.7307 20.8182 41.6119 20.9134 41.4596L21.6512 41.7588C21.466 41.7955 21.2988 41.8938 21.1766 42.0376C21.0543 42.1814 20.9843 42.3624 20.978 42.551ZM22.0218 43.418C21.7761 43.2112 21.5486 42.9837 21.3418 42.738C21.3656 42.3266 21.4948 42.143 21.9062 42.1294C22.1803 42.2604 22.4391 42.4211 22.678 42.6088C22.4951 42.6533 22.332 42.7566 22.2134 42.9028C22.0949 43.0489 22.0276 43.2299 22.0218 43.418ZM27.8358 48.365C27.4584 48.0488 22.44 43.792 22.1306 43.52C22.1565 43.3297 22.2397 43.1517 22.369 43.0096C22.4983 42.8676 22.6677 42.7681 22.8548 42.7244C24.0278 43.5948 25.7142 45.0364 28.6552 47.4844C28.5407 47.4786 28.4263 47.4979 28.3201 47.541C28.2139 47.584 28.1184 47.6499 28.0403 47.7338C27.9622 47.8177 27.9034 47.9177 27.8681 48.0267C27.8328 48.1358 27.8217 48.2512 27.8358 48.365ZM54.7774 52.1322C55.2024 52.4212 55.4982 52.2886 55.7736 51.8874C56.4536 50.9218 58.8336 46.648 58.8336 46.614C58.8336 46.58 58.8608 46.6446 58.7486 45.271C58.7437 45.2194 58.7251 45.17 58.6946 45.128C58.664 45.0861 58.6228 45.0531 58.5752 45.0326C58.5275 45.0121 58.4752 45.0048 58.4238 45.0114C58.3723 45.0181 58.3236 45.0385 58.2828 45.0704L57.12 45.917C57.12 45.917 54.5394 51.2516 54.5122 51.2992C54.4655 51.4485 54.4659 51.6085 54.5134 51.7576C54.5608 51.9066 54.653 52.0374 54.7774 52.1322ZM58.378 45.4852C58.3984 45.7334 58.4256 46.0632 58.446 46.291C58.1934 46.1701 57.9291 46.0756 57.6572 46.0088L58.378 45.4852ZM57.4056 46.24C57.7003 46.4489 58.0407 46.5841 58.3984 46.6344C58.3474 46.7228 55.7498 51.4624 55.7226 51.51C55.6436 51.3494 55.5138 51.2193 55.3534 51.14C55.1929 51.0607 55.0107 51.0366 54.8352 51.0714C55.1004 50.5784 57.3104 46.41 57.4056 46.24Z" fill="black"/>
<path d="M55.8416 39.4978C55.8049 39.4463 55.7583 39.4027 55.7046 39.3694C55.6509 39.3362 55.5911 39.3139 55.5288 39.304C55.3276 39.2502 55.1231 39.2094 54.9168 39.1816C55.0324 39.9908 55.1004 40.8816 55.097 40.9598C55.0918 41.0116 55.0664 41.0592 55.0263 41.0923C54.9861 41.1254 54.9346 41.1413 54.8828 41.1366C54.8307 41.1306 54.7831 41.1045 54.75 41.0638C54.717 41.0231 54.7012 40.9712 54.706 40.919C54.706 40.8612 54.6856 40.6266 54.6686 39.1476C53.9886 39.0626 50.7144 38.8076 50.8436 39.4604C50.8436 39.4944 50.575 41.1604 51.6154 41.9594C52.6558 42.7584 54.7366 42.602 55.4642 41.7894C55.6706 41.542 55.8068 41.2438 55.8586 40.9258C55.9389 40.4526 55.9331 39.9689 55.8416 39.4978ZM56.6576 36.4208C56.6576 36.5738 56.4536 37.7434 56.3176 39.3142L56.4808 39.3482C57.079 39.4752 57.7021 39.4073 58.259 39.1544C58.4531 39.0466 58.6139 38.8874 58.7236 38.6943C58.8334 38.5012 58.8879 38.2816 58.8812 38.0596C58.9042 37.7836 58.8562 37.5063 58.7417 37.2541C58.6273 37.002 58.4501 36.7833 58.2272 36.619C58.0042 36.4547 57.7429 36.3502 57.4682 36.3155C57.1934 36.2808 56.9143 36.3171 56.6576 36.4208ZM56.8106 36.5364C57.0276 36.502 57.2494 36.5146 57.4611 36.5733C57.6729 36.6319 57.8696 36.7353 58.038 36.8764C58.1996 37.0247 58.3248 37.2083 58.4039 37.413C58.4829 37.6176 58.5136 37.8377 58.4936 38.0562C58.463 38.93 57.5654 39.0966 56.7052 39.0082C56.746 38.3894 56.78 37.6788 56.8106 36.5364ZM53.1692 16.5784C53.1683 16.639 53.1794 16.6991 53.2018 16.7553C53.2243 16.8116 53.2576 16.8629 53.3 16.9062C53.3423 16.9495 53.3928 16.9839 53.4486 17.0076C53.5043 17.0313 53.5642 17.0437 53.6248 17.0442C53.7173 17.0462 53.8083 17.0206 53.8863 16.9707C53.9642 16.9208 54.0255 16.8487 54.0623 16.7638C54.0991 16.6789 54.1098 16.585 54.093 16.4939C54.0762 16.4029 54.0327 16.319 53.968 16.2528C53.9032 16.1866 53.8203 16.1412 53.7296 16.1224C53.639 16.1036 53.5448 16.1122 53.4591 16.1472C53.3734 16.1821 53.3001 16.2418 53.2484 16.3186C53.1968 16.3954 53.1692 16.4858 53.1692 16.5784ZM15.9562 27.795C16.0344 27.948 16.1364 27.965 16.201 27.9174C16.2656 27.8698 37.7978 27.6828 39.3992 27.5978C39.7435 27.6031 40.087 27.5596 40.4192 27.4686C41.1842 26.7886 41.4834 14.076 41.1842 13.4878C40.4192 11.9612 16.4764 12.9438 15.0042 13.3892C13.8312 13.7428 15.4156 26.7104 15.9562 27.795ZM14.9396 13.94C14.9396 13.8788 15.0144 13.6408 15.0722 13.6238C16.7008 13.1342 40.3478 12.3284 40.9904 13.6068C41.0452 13.8626 41.0703 14.1238 41.0652 14.3854C41.123 15.8678 41.0652 19.0434 40.9122 21.8892C40.8816 22.4332 40.6402 26.8906 40.2866 27.2952C38.8756 27.5944 17.1326 27.6624 16.167 27.6998C15.6162 26.4214 14.4262 16.184 14.9396 13.94ZM53.669 9.08139C53.7613 9.08341 53.8522 9.05791 53.9301 9.00812C54.008 8.95833 54.0692 8.88651 54.1062 8.8018C54.1431 8.71708 54.154 8.6233 54.1374 8.53238C54.1209 8.44146 54.0777 8.35751 54.0133 8.29121C53.9489 8.22491 53.8663 8.17926 53.7759 8.16006C53.6855 8.14087 53.5914 8.14899 53.5057 8.1834C53.4199 8.21782 53.3463 8.27696 53.2943 8.35332C53.2422 8.42967 53.2141 8.51978 53.2134 8.61219C53.212 8.67304 53.2228 8.73354 53.245 8.79019C53.2673 8.84684 53.3005 8.8985 53.3429 8.94216C53.3853 8.98582 53.436 9.02061 53.492 9.04452C53.5479 9.06842 53.6081 9.08095 53.669 9.08139Z" fill="black"/>
<path d="M21.5934 22.5079H25.6326C26.1 22.5061 26.5476 22.319 26.8771 21.9875C27.2067 21.656 27.3913 21.2074 27.3904 20.7399V17.4623C27.3904 16.9939 27.206 16.5443 26.877 16.2109C26.548 15.8775 26.101 15.687 25.6326 15.6807H21.5934C21.3592 15.6798 21.1271 15.7253 20.9105 15.8145C20.694 15.9037 20.4972 16.0349 20.3316 16.2006C20.166 16.3662 20.0348 16.5629 19.9456 16.7795C19.8564 16.9961 19.8109 17.2281 19.8118 17.4623V20.7399C19.8127 20.973 19.8595 21.2036 19.9495 21.4186C20.0395 21.6336 20.171 21.8288 20.3364 21.9929C20.5018 22.1571 20.698 22.2871 20.9137 22.3755C21.1293 22.4638 21.3603 22.5088 21.5934 22.5079ZM20.1008 17.4623C20.107 17.0694 20.2665 16.6944 20.5454 16.4174C20.8243 16.1404 21.2004 15.9834 21.5934 15.9799H25.6326C25.8311 15.9777 26.028 16.0148 26.2121 16.0891C26.3962 16.1634 26.5637 16.2734 26.705 16.4129C26.8463 16.5523 26.9586 16.7183 27.0354 16.9013C27.1122 17.0844 27.1519 17.2808 27.1524 17.4793V20.7399C27.1515 20.9386 27.1115 21.1352 27.0346 21.3184C26.9578 21.5017 26.8456 21.6679 26.7044 21.8078C26.5633 21.9477 26.396 22.0584 26.2121 22.1336C26.0282 22.2088 25.8313 22.247 25.6326 22.2461H21.5934C21.3965 22.2453 21.2017 22.2056 21.0201 22.1294C20.8385 22.0532 20.6737 21.942 20.5351 21.8022C20.3965 21.6623 20.2868 21.4965 20.2123 21.3143C20.1378 21.132 20.0999 20.9369 20.1008 20.7399V17.4623ZM32.5142 24.9355C32.5822 25.1361 32.7522 25.0919 32.7998 24.9661C32.8644 24.7859 33.2418 23.4905 33.2894 23.2661C33.5512 23.1845 32.8134 23.4395 35.0948 22.6099C35.1184 22.6008 35.1388 22.5847 35.1531 22.5637C35.1674 22.5428 35.1751 22.518 35.1751 22.4926C35.1751 22.4673 35.1674 22.4425 35.1531 22.4216C35.1388 22.4006 35.1184 22.3845 35.0948 22.3753L31.5996 20.9779C31.5781 20.9678 31.5544 20.9634 31.5307 20.9653C31.507 20.9672 31.4842 20.9752 31.4646 20.9887C31.445 21.0021 31.4293 21.0204 31.419 21.0418C31.4086 21.0631 31.4041 21.0869 31.4058 21.1105C31.4058 21.1105 32.3272 24.3949 32.5142 24.9355ZM31.756 21.3417L34.7004 22.5011C34.306 22.6473 33.6396 22.8989 33.32 23.0281C33.1772 23.0826 33.1194 23.1063 33.0854 23.1505C33.0514 23.1947 33.1704 22.9295 32.6706 24.4697L31.756 21.3417ZM39.78 11.3729C39.784 11.3933 39.795 11.4117 39.8112 11.4247C39.8274 11.4378 39.8476 11.4447 39.8684 11.4443C39.9398 11.4443 42.1396 11.6551 42.5884 11.5361C42.8774 11.4579 42.9284 10.9479 42.9556 10.6487C42.9896 10.1965 42.9556 9.08815 42.7652 8.71075C42.5068 8.20075 40.5994 8.37075 40.0452 8.46935C39.8981 8.49005 39.7575 8.54349 39.6338 8.62575C39.5617 8.70935 39.5198 8.81471 39.5148 8.92495C39.5114 9.7483 39.6004 10.5694 39.78 11.3729ZM39.8786 8.88755C40.4158 8.72095 41.9458 8.65635 42.432 8.88755C42.5986 9.32955 42.687 10.8493 42.4864 11.2029C42.1702 11.2845 40.239 11.2845 39.916 11.2879C39.9058 11.0227 39.7494 9.59135 39.8786 8.88755ZM44.3428 11.3593C44.3474 11.3794 44.3586 11.3974 44.3746 11.4104C44.3906 11.4233 44.4106 11.4305 44.4312 11.4307C44.5026 11.4307 46.7024 11.6415 47.1512 11.5225C47.4402 11.4443 47.4912 10.9343 47.5218 10.6351C47.5524 10.1829 47.5218 9.07455 47.328 8.69715C47.0696 8.18375 45.1622 8.35715 44.608 8.45575C44.4612 8.47785 44.3209 8.53118 44.1966 8.61215C44.1261 8.69666 44.0844 8.80149 44.0776 8.91135C44.0744 9.73468 44.1634 10.5558 44.3428 11.3593ZM44.4414 8.87395C44.9786 8.70395 46.5086 8.64275 46.9948 8.87395C47.1614 9.31595 47.2498 10.8357 47.0492 11.1859C46.733 11.2709 44.8018 11.2709 44.4788 11.2743C44.4686 11.0091 44.3122 9.57775 44.4414 8.87395ZM49.1164 11.5089C49.1204 11.5293 49.1314 11.5477 49.1476 11.5607C49.1638 11.5738 49.184 11.5807 49.2048 11.5803C49.2762 11.5803 51.476 11.7911 51.9248 11.6721C52.2138 11.5939 52.2648 11.0839 52.292 10.7847C52.326 10.3325 52.292 9.22415 52.1016 8.84675C51.8432 8.33675 49.9358 8.50675 49.3816 8.60535C49.2347 8.62692 49.0943 8.6803 48.9702 8.76175C48.8981 8.84535 48.8562 8.95071 48.8512 9.06095C48.8478 9.88429 48.9368 10.7054 49.1164 11.5089ZM49.215 9.02355C49.7522 8.85695 51.2822 8.79235 51.7684 9.02355C51.935 9.46555 52.0234 10.9853 51.8228 11.3389C51.5066 11.4205 49.5754 11.4205 49.2524 11.4239C49.2422 11.1587 49.0858 9.72735 49.215 9.02355ZM44.3734 16.5885C44.3972 16.6565 44.4516 16.6633 44.4618 16.6599C44.5366 16.6599 46.733 16.8707 47.1818 16.7517C47.4708 16.6735 47.5218 16.1635 47.5524 15.8643C47.583 15.4121 47.5524 14.3037 47.362 13.9297C47.1002 13.4163 45.1928 13.5897 44.642 13.6849C44.4939 13.706 44.3523 13.7594 44.2272 13.8413C44.156 13.9268 44.1143 14.0329 44.1082 14.1439C44.105 14.9662 44.1939 15.7861 44.3734 16.5885ZM44.4754 14.1031C45.0126 13.9365 46.5392 13.8719 47.0254 14.1031C47.192 14.5451 47.2804 16.0649 47.0798 16.4185C46.7636 16.5001 44.8358 16.5001 44.5128 16.5035C44.4992 16.2383 44.3428 14.8069 44.4754 14.1031ZM52.3226 13.7903C52.8666 12.9879 53.3426 12.2637 53.3596 12.2297C53.3766 12.1957 53.1284 11.8897 52.9822 12.1073C51.9418 13.7087 52.0846 13.5557 52.0098 13.5285C51.4114 13.3109 49.4802 13.3857 49.1776 13.6679C48.9736 13.8583 49.0518 14.5485 49.0756 14.8443C48.858 14.7219 48.6914 14.6335 48.6302 14.6097C48.4738 14.5485 48.484 14.7015 48.569 14.7559L49.0994 15.0959C49.1423 15.5428 49.2116 15.9867 49.3068 16.4253C49.3101 16.4461 49.321 16.4648 49.3373 16.478C49.3536 16.4912 49.3742 16.4979 49.3952 16.4967C49.4666 16.4967 51.6664 16.7075 52.1152 16.5885C52.7 16.4253 52.5198 14.2799 52.3226 13.7903ZM49.4054 13.9297C50.2052 13.7478 51.0339 13.7327 51.8398 13.8855L50.66 15.7453C50.541 15.6773 49.9052 15.3033 49.3748 15.0041C49.3524 14.6492 49.3626 14.293 49.4054 13.9399V13.9297ZM52.0132 16.2417C51.6936 16.3267 49.7658 16.3267 49.4428 16.3301C49.4428 16.1941 49.3918 15.7487 49.368 15.2557L50.66 16.0581C50.6926 16.0617 50.7256 16.0559 50.7551 16.0415C50.7846 16.0271 50.8094 16.0045 50.8266 15.9765C50.9354 15.8371 51.4828 15.0415 52.0404 14.2221C52.1458 14.8341 52.1798 15.9493 52.02 16.2417H52.0132ZM38.4948 8.96915C38.587 8.97049 38.6776 8.94441 38.755 8.8942C38.8324 8.84399 38.8932 8.77192 38.9296 8.68714C38.966 8.60235 38.9764 8.50866 38.9595 8.41796C38.9425 8.32726 38.8991 8.24362 38.8345 8.17767C38.77 8.11171 38.6874 8.0664 38.597 8.04749C38.5067 8.02858 38.4128 8.03691 38.3273 8.07143C38.2417 8.10596 38.1683 8.16512 38.1164 8.24141C38.0645 8.3177 38.0365 8.40768 38.0358 8.49995C38.0358 8.62264 38.0838 8.74046 38.1696 8.82817C38.2554 8.91587 38.3721 8.96648 38.4948 8.96915Z" fill="black"/>
</svg>
