<svg width="32" height="32" viewBox="0 0 32 32" fill="none" xmlns="http://www.w3.org/2000/svg">
<path d="M7.99999 17.3333V14.6666H18.6667L14 9.99996L15.8933 8.10663L23.7867 16L15.8933 23.8933L14 22L18.6667 17.3333H7.99999ZM29.3333 16C29.3333 19.5362 27.9286 22.9276 25.4281 25.428C22.9276 27.9285 19.5362 29.3333 16 29.3333C14.249 29.3333 12.5152 28.9884 10.8975 28.3184C9.27987 27.6483 7.81001 26.6662 6.5719 25.428C4.07141 22.9276 2.66666 19.5362 2.66666 16C2.66666 12.4637 4.07141 9.07235 6.5719 6.57187C9.07238 4.07138 12.4638 2.66663 16 2.66663C17.7509 2.66663 19.4848 3.0115 21.1024 3.68157C22.7201 4.35163 24.19 5.33375 25.4281 6.57187C26.6662 7.80998 27.6483 9.27984 28.3184 10.8975C28.9884 12.5152 29.3333 14.249 29.3333 16ZM26.6667 16C26.6667 13.171 25.5428 10.4579 23.5425 8.45749C21.5421 6.4571 18.829 5.33329 16 5.33329C13.171 5.33329 10.4579 6.4571 8.45752 8.45749C6.45713 10.4579 5.33332 13.171 5.33332 16C5.33332 18.8289 6.45713 21.542 8.45752 23.5424C10.4579 25.5428 13.171 26.6666 16 26.6666C18.829 26.6666 21.5421 25.5428 23.5425 23.5424C25.5428 21.542 26.6667 18.8289 26.6667 16Z" fill="#FB860B"/>
</svg>
