<svg width="48" height="45" viewBox="0 0 48 45" fill="none" xmlns="http://www.w3.org/2000/svg">
<g clip-path="url(#clip0_23_98)">
<path d="M37.5609 23.4881C31.7955 23.4881 27.1219 28.1619 27.1219 33.9276C27.1219 39.6932 31.7955 44.367 37.5609 44.367C43.3264 44.367 48 39.693 48 33.9276C48 28.1619 43.3264 23.4881 37.5609 23.4881ZM10.4391 23.4891C4.67381 23.4891 0 28.1619 0 33.9276C0 39.6932 4.67381 44.367 10.4391 44.367C16.2047 44.367 20.8787 39.693 20.8787 33.9276C20.8787 28.1619 16.2047 23.4891 10.4391 23.4891ZM34.4391 10.4391C34.4391 16.2047 29.7653 20.8791 24.0002 20.8791C18.2346 20.8791 13.5609 16.2047 13.5609 10.4391C13.5609 4.674 18.2344 0 24 0C29.7651 0 34.4387 4.67437 34.4387 10.4389L34.4391 10.4391Z" fill="#F06A6A"/>
</g>
<defs>
<clipPath id="clip0_23_98">
<rect width="48" height="44.4375" fill="white"/>
</clipPath>
</defs>
</svg>
