<svg width="321" height="368" viewBox="0 0 321 368" fill="none" xmlns="http://www.w3.org/2000/svg">
<g opacity="0.25" filter="url(#filter0_d_111_5372)">
<g clip-path="url(#clip0_111_5372)">
<rect x="10" y="65.3154" width="231" height="297" rx="11.25" transform="rotate(-15.3928 10 65.3154)" fill="#F9F8FE"/>
<rect x="47.829" y="145.267" width="198.562" height="197.438" rx="5.625" transform="rotate(-15.3928 47.829 145.267)" fill="#E9EFFC"/>
<rect x="60.2783" y="152.342" width="183.375" height="176.625" transform="rotate(-15.3928 60.2783 152.342)" fill="#F5FAFA"/>
<rect x="83.5182" y="174.24" width="175.5" height="59.0625" rx="5.34375" transform="rotate(-15.3928 83.5182 174.24)" stroke="#EFF2F7" stroke-width="0.5625"/>
<g filter="url(#filter1_d_111_5372)">
<rect x="95.6217" y="181.117" width="39.375" height="39.375" rx="5.625" transform="rotate(-15.3928 95.6217 181.117)" fill="#0F8CE9"/>
</g>
<path fill-rule="evenodd" clip-rule="evenodd" d="M125.57 193.293C125.584 192.772 125.523 192.244 125.378 191.72C124.536 188.66 121.182 186.916 117.888 187.823C114.593 188.73 112.605 191.945 113.447 195.005C113.591 195.528 113.809 196.014 114.088 196.454C112.169 197.009 111.048 199.005 111.58 200.936C112.116 202.883 114.128 204.027 116.075 203.491L127.464 200.355C129.411 199.819 130.555 197.807 130.019 195.86C129.487 193.928 127.502 192.788 125.57 193.293Z" fill="#DBE5FA"/>
<rect x="158.364" y="197.099" width="106.875" height="5.625" rx="2.8125" transform="rotate(-15.3928 158.364 197.099)" fill="#DBE5FA"/>
<rect x="158.364" y="197.099" width="51.75" height="5.625" rx="2.8125" transform="rotate(-15.3928 158.364 197.099)" fill="#54BD95"/>
<rect x="155.08" y="185.168" width="58.5" height="3.375" rx="1.6875" transform="rotate(-15.3928 155.08 185.168)" fill="#DBE5FA"/>
<rect x="150.302" y="167.814" width="106.875" height="9" rx="4.5" transform="rotate(-15.3928 150.302 167.814)" fill="#DBE5FA"/>
<rect x="81.5338" y="251.798" width="195.188" height="59.0625" rx="5.34375" transform="rotate(-15.3928 81.5338 251.798)" fill="white" stroke="#EFF2F7" stroke-width="0.5625"/>
<g filter="url(#filter2_d_111_5372)">
<rect x="93.6373" y="258.676" width="39.375" height="39.375" rx="5.625" transform="rotate(-15.3928 93.6373 258.676)" fill="white"/>
</g>
<rect x="156.38" y="274.658" width="128.25" height="5.625" rx="2.8125" transform="rotate(-15.3928 156.38 274.658)" fill="#DBE5FA"/>
<rect x="156.38" y="274.658" width="91.8" height="5.625" rx="2.8125" transform="rotate(-15.3928 156.38 274.658)" fill="#54BD95"/>
<rect x="153.095" y="262.727" width="70.2" height="3.375" rx="1.6875" transform="rotate(-15.3928 153.095 262.727)" fill="#DBE5FA"/>
<rect x="148.318" y="245.373" width="128.25" height="9" rx="4.5" transform="rotate(-15.3928 148.318 245.373)" fill="#DBE5FA"/>
<path d="M124.481 269.566L116.942 271.641C116.515 271.759 116.263 272.201 116.381 272.629C116.499 273.057 116.941 273.308 117.369 273.19L117.511 273.707C117.629 274.134 118.071 274.386 118.499 274.268C118.927 274.15 119.178 273.708 119.06 273.28L118.918 272.764L123.359 271.541L123.501 272.058C123.619 272.485 124.061 272.737 124.489 272.619C124.916 272.501 125.168 272.059 125.05 271.631L124.908 271.115C125.336 270.997 125.587 270.555 125.469 270.127C125.351 269.699 124.909 269.448 124.481 269.566Z" fill="#54BD95"/>
<path d="M119.717 266.989C118.861 267.224 118.359 268.109 118.594 268.964L121.692 268.111C121.457 267.256 120.572 266.753 119.717 266.989Z" fill="#54BD95"/>
<path d="M118.24 261.627C112.25 263.276 108.731 269.469 110.38 275.459C112.029 281.449 118.222 284.969 124.213 283.319C130.203 281.67 133.722 275.477 132.073 269.487C130.424 263.497 124.231 259.977 118.24 261.627ZM129.113 275.29C129.348 276.146 128.846 277.03 127.99 277.266L117.869 280.052C117.014 280.288 116.129 279.785 115.894 278.929L113.96 271.907C113.725 271.051 114.227 270.167 115.083 269.931L117.045 269.391C116.574 267.68 117.579 265.911 119.29 265.44C121.001 264.969 122.77 265.974 123.242 267.685L125.204 267.145C126.059 266.909 126.944 267.412 127.179 268.267L129.113 275.29L129.113 275.29Z" fill="#54BD95"/>
<mask id="path-20-inside-1_111_5372" fill="white">
<path d="M186.685 109.243C184.823 102.477 181.645 96.1443 177.335 90.6064C173.025 85.0684 167.667 80.4336 161.565 76.9666C155.464 73.4996 148.74 71.2683 141.776 70.4C134.813 69.5318 127.746 70.0436 120.98 71.9063C114.215 73.769 107.882 76.9461 102.344 81.2561C96.8061 85.5662 92.1713 90.9248 88.7043 97.0261C85.2373 103.127 83.006 109.852 82.1377 116.815C81.2695 123.779 81.7813 130.845 83.644 137.611L102.09 132.533C100.894 128.189 100.566 123.653 101.123 119.182C101.68 114.712 103.113 110.395 105.339 106.478C107.564 102.562 110.54 99.1216 114.095 96.3546C117.65 93.5877 121.715 91.5481 126.059 90.3524C130.402 89.1566 134.939 88.828 139.409 89.3854C143.879 89.9428 148.196 91.3752 152.113 93.6009C156.03 95.8266 159.47 98.802 162.237 102.357C165.004 105.912 167.043 109.978 168.239 114.321L186.685 109.243Z"/>
</mask>
<path d="M186.685 109.243C184.823 102.477 181.645 96.1443 177.335 90.6064C173.025 85.0684 167.667 80.4336 161.565 76.9666C155.464 73.4996 148.74 71.2683 141.776 70.4C134.813 69.5318 127.746 70.0436 120.98 71.9063C114.215 73.769 107.882 76.9461 102.344 81.2561C96.8061 85.5662 92.1713 90.9248 88.7043 97.0261C85.2373 103.127 83.006 109.852 82.1377 116.815C81.2695 123.779 81.7813 130.845 83.644 137.611L102.09 132.533C100.894 128.189 100.566 123.653 101.123 119.182C101.68 114.712 103.113 110.395 105.339 106.478C107.564 102.562 110.54 99.1216 114.095 96.3546C117.65 93.5877 121.715 91.5481 126.059 90.3524C130.402 89.1566 134.939 88.828 139.409 89.3854C143.879 89.9428 148.196 91.3752 152.113 93.6009C156.03 95.8266 159.47 98.802 162.237 102.357C165.004 105.912 167.043 109.978 168.239 114.321L186.685 109.243Z" stroke="#52459F" stroke-width="38.25" mask="url(#path-20-inside-1_111_5372)"/>
<mask id="path-21-inside-2_111_5372" fill="white">
<path d="M186.685 109.243C182.923 95.5786 173.888 83.9686 161.565 76.9666C149.243 69.9647 134.645 68.1444 120.98 71.9063C107.316 75.6682 95.7062 84.704 88.7043 97.026C81.7024 109.348 79.8821 123.947 83.644 137.611L102.099 132.53C99.6849 123.761 100.853 114.391 105.347 106.483C109.841 98.575 117.292 92.7758 126.061 90.3615C134.831 87.9472 144.2 89.1154 152.108 93.6092C160.017 98.103 165.816 105.554 168.23 114.324L186.685 109.243Z"/>
</mask>
<path d="M186.685 109.243C182.923 95.5786 173.888 83.9686 161.565 76.9666C149.243 69.9647 134.645 68.1444 120.98 71.9063C107.316 75.6682 95.7062 84.704 88.7043 97.026C81.7024 109.348 79.8821 123.947 83.644 137.611L102.099 132.53C99.6849 123.761 100.853 114.391 105.347 106.483C109.841 98.575 117.292 92.7758 126.061 90.3615C134.831 87.9472 144.2 89.1154 152.108 93.6092C160.017 98.103 165.816 105.554 168.23 114.324L186.685 109.243Z" stroke="#0F8CE9" stroke-width="38.25" mask="url(#path-21-inside-2_111_5372)"/>
<mask id="path-22-inside-3_111_5372" fill="white">
<path d="M186.685 109.243C183.757 98.6083 177.611 89.1404 169.088 82.1382C160.566 75.136 150.085 70.9426 139.085 70.1334L137.681 89.2237C144.741 89.743 151.467 92.4343 156.936 96.9283C162.406 101.422 166.351 107.499 168.23 114.324L186.685 109.243Z"/>
</mask>
<path d="M186.685 109.243C183.757 98.6083 177.611 89.1404 169.088 82.1382C160.566 75.136 150.085 70.9426 139.085 70.1334L137.681 89.2237C144.741 89.743 151.467 92.4343 156.936 96.9283C162.406 101.422 166.351 107.499 168.23 114.324L186.685 109.243Z" stroke="#54BD95" stroke-width="38.25" mask="url(#path-22-inside-3_111_5372)"/>
<mask id="path-23-inside-4_111_5372" fill="white">
<path d="M186.685 109.243C183.885 99.0723 178.138 89.9581 170.167 83.0485C162.196 76.1389 152.358 71.7431 141.893 70.4148L139.483 89.4043C146.199 90.2568 152.513 93.078 157.629 97.5125C162.744 101.947 166.433 107.796 168.23 114.324L186.685 109.243Z"/>
</mask>
<path d="M186.685 109.243C183.885 99.0723 178.138 89.9581 170.167 83.0485C162.196 76.1389 152.358 71.7431 141.893 70.4148L139.483 89.4043C146.199 90.2568 152.513 93.078 157.629 97.5125C162.744 101.947 166.433 107.796 168.23 114.324L186.685 109.243Z" stroke="#FEE900" stroke-width="38.25" mask="url(#path-23-inside-4_111_5372)"/>
<path d="M91.9095 149.549C91.6623 149.613 91.4073 149.635 91.1444 149.614C90.8834 149.593 90.6281 149.509 90.3786 149.361C90.129 149.213 89.8991 148.985 89.6887 148.678C89.4801 148.37 89.3058 147.961 89.1658 147.453C89.0332 146.971 88.963 146.53 88.9554 146.13C88.9495 145.729 89.002 145.376 89.1127 145.069C89.223 144.76 89.3881 144.503 89.608 144.297C89.828 144.091 90.0979 143.945 90.4179 143.857C90.7468 143.766 91.0567 143.75 91.3476 143.809C91.6384 143.869 91.8944 143.99 92.1154 144.175C92.3382 144.359 92.5113 144.591 92.6346 144.871L91.8123 145.097C91.6932 144.882 91.5309 144.725 91.3255 144.625C91.12 144.525 90.8843 144.511 90.6183 144.584C90.2138 144.696 89.9469 144.959 89.8174 145.373C89.6897 145.788 89.7113 146.309 89.8822 146.936L89.9227 146.925C89.9749 146.743 90.0551 146.578 90.1633 146.43C90.2728 146.28 90.4057 146.151 90.5619 146.044C90.7195 145.935 90.8944 145.854 91.0867 145.801C91.4067 145.713 91.7176 145.712 92.0195 145.797C92.3227 145.88 92.5892 146.037 92.819 146.267C93.0488 146.498 93.2122 146.789 93.3092 147.142C93.4062 147.494 93.414 147.835 93.3327 148.165C93.2532 148.494 93.0927 148.782 92.8511 149.028C92.609 149.273 92.2952 149.446 91.9095 149.549ZM91.7138 148.848C91.9259 148.79 92.1012 148.686 92.2397 148.535C92.3782 148.385 92.4717 148.209 92.5202 148.006C92.5688 147.803 92.5631 147.593 92.5033 147.375C92.4449 147.163 92.344 146.983 92.2008 146.835C92.0593 146.686 91.8918 146.583 91.6982 146.526C91.5064 146.469 91.3054 146.469 91.0951 146.527C90.9351 146.571 90.7952 146.643 90.6755 146.741C90.5575 146.839 90.4621 146.957 90.3893 147.093C90.3166 147.229 90.2698 147.375 90.2491 147.532C90.2297 147.686 90.2413 147.84 90.2838 147.995C90.3407 148.202 90.4411 148.38 90.5848 148.53C90.7304 148.679 90.9016 148.785 91.0985 148.847C91.2966 148.906 91.5017 148.907 91.7138 148.848ZM96.7355 148.237C96.309 148.353 95.9141 148.341 95.5507 148.201C95.1874 148.061 94.8671 147.8 94.5898 147.418C94.3126 147.036 94.0913 146.545 93.926 145.945C93.7612 145.346 93.7004 144.813 93.7436 144.345C93.7886 143.876 93.9314 143.489 94.172 143.183C94.4144 142.876 94.7468 142.665 95.1692 142.548C95.5916 142.432 95.9848 142.445 96.3486 142.586C96.7119 142.726 97.032 142.986 97.3087 143.366C97.5868 143.744 97.8082 144.232 97.973 144.831C98.1388 145.433 98.2004 145.969 98.1577 146.439C98.1145 146.907 97.9728 147.295 97.7327 147.603C97.4921 147.909 97.1597 148.121 96.7355 148.237ZM96.5373 147.518C96.9112 147.415 97.153 147.152 97.2629 146.729C97.3745 146.306 97.3353 145.749 97.1453 145.059C97.0191 144.6 96.8639 144.226 96.6798 143.937C96.4969 143.645 96.2931 143.442 96.0683 143.328C95.8448 143.211 95.61 143.187 95.3637 143.255C94.9916 143.357 94.75 143.621 94.6389 144.046C94.5277 144.471 94.566 145.028 94.7538 145.717C94.8804 146.177 95.0352 146.553 95.2181 146.845C95.4022 147.135 95.6058 147.337 95.8288 147.452C96.0513 147.564 96.2874 147.586 96.5373 147.518ZM102.286 145.497L102.206 145.206C102.149 144.997 102.139 144.795 102.178 144.598C102.218 144.4 102.307 144.225 102.446 144.075C102.586 143.923 102.775 143.813 103.014 143.748C103.258 143.68 103.478 143.676 103.672 143.735C103.866 143.793 104.029 143.898 104.162 144.049C104.296 144.2 104.392 144.38 104.449 144.588L104.529 144.879C104.587 145.088 104.596 145.291 104.558 145.489C104.519 145.685 104.431 145.86 104.293 146.012C104.156 146.162 103.967 146.27 103.727 146.336C103.484 146.403 103.265 146.407 103.069 146.349C102.872 146.289 102.707 146.184 102.574 146.035C102.439 145.885 102.343 145.705 102.286 145.497ZM102.834 145.033L102.914 145.324C102.957 145.478 103.032 145.609 103.141 145.714C103.249 145.82 103.395 145.847 103.578 145.797C103.76 145.747 103.869 145.649 103.906 145.503C103.944 145.358 103.941 145.208 103.898 145.053L103.818 144.762C103.776 144.607 103.702 144.477 103.597 144.37C103.494 144.263 103.349 144.235 103.162 144.287C102.983 144.336 102.872 144.434 102.832 144.581C102.791 144.728 102.792 144.878 102.834 145.033ZM98.639 143.101L98.5589 142.81C98.5014 142.602 98.4919 142.398 98.5302 142.2C98.5702 142.002 98.6595 141.827 98.798 141.677C98.9382 141.526 99.1279 141.418 99.367 141.352C99.6114 141.285 99.8307 141.281 100.025 141.339C100.219 141.398 100.382 141.503 100.515 141.654C100.647 141.805 100.742 141.985 100.799 142.193L100.88 142.485C100.937 142.693 100.947 142.896 100.908 143.095C100.871 143.29 100.784 143.464 100.646 143.616C100.509 143.766 100.32 143.874 100.08 143.94C99.8351 144.008 99.6149 144.012 99.4191 143.954C99.2245 143.894 99.0603 143.789 98.9265 143.64C98.7923 143.489 98.6964 143.31 98.639 143.101ZM99.1898 142.637L99.2699 142.928C99.3125 143.082 99.387 143.213 99.4936 143.319C99.6019 143.424 99.7478 143.452 99.9311 143.401C100.111 143.352 100.219 143.254 100.257 143.109C100.296 142.962 100.294 142.812 100.251 142.658L100.171 142.366C100.129 142.212 100.055 142.081 99.9502 141.975C99.8455 141.868 99.7005 141.84 99.5154 141.891C99.3357 141.941 99.2254 142.039 99.1845 142.186C99.1455 142.332 99.1472 142.482 99.1898 142.637ZM100.05 147.226L102.326 140.659L102.971 140.482L100.695 147.049L100.05 147.226Z" fill="black"/>
<path d="M174.15 125.665L173.965 124.991L175.313 120.565L175.844 120.419L176.118 121.411L175.781 121.504L174.818 124.675L174.829 124.719L178.1 123.818L178.294 124.525L174.15 125.665ZM177.065 126.023L176.712 124.74L176.633 124.431L175.551 120.5L176.341 120.282L177.861 125.804L177.065 126.023ZM181.479 124.907C181.052 125.022 180.657 125.01 180.294 124.87C179.931 124.731 179.61 124.47 179.333 124.088C179.056 123.706 178.834 123.215 178.669 122.614C178.504 122.016 178.444 121.482 178.487 121.014C178.532 120.545 178.675 120.158 178.915 119.852C179.158 119.545 179.49 119.334 179.912 119.218C180.335 119.101 180.728 119.114 181.092 119.256C181.455 119.395 181.775 119.655 182.052 120.035C182.33 120.413 182.551 120.902 182.716 121.5C182.882 122.102 182.944 122.638 182.901 123.108C182.858 123.577 182.716 123.965 182.476 124.273C182.235 124.579 181.903 124.79 181.479 124.907ZM181.28 124.187C181.654 124.084 181.896 123.821 182.006 123.398C182.118 122.975 182.078 122.418 181.888 121.728C181.762 121.27 181.607 120.896 181.423 120.606C181.24 120.314 181.036 120.111 180.811 119.997C180.588 119.881 180.353 119.856 180.107 119.924C179.735 120.027 179.493 120.29 179.382 120.715C179.271 121.141 179.309 121.698 179.497 122.386C179.624 122.847 179.778 123.223 179.961 123.515C180.145 123.804 180.349 124.006 180.572 124.121C180.794 124.234 181.031 124.256 181.28 124.187ZM187.029 122.166L186.949 121.875C186.892 121.666 186.882 121.464 186.921 121.268C186.961 121.069 187.05 120.895 187.189 120.744C187.329 120.592 187.518 120.483 187.757 120.417C188.002 120.35 188.221 120.345 188.415 120.404C188.609 120.463 188.772 120.568 188.905 120.719C189.039 120.869 189.135 121.049 189.192 121.257L189.272 121.549C189.33 121.757 189.339 121.96 189.301 122.159C189.262 122.355 189.174 122.529 189.036 122.681C188.899 122.831 188.711 122.939 188.47 123.005C188.227 123.072 188.008 123.076 187.812 123.018C187.616 122.958 187.451 122.854 187.317 122.705C187.182 122.554 187.087 122.375 187.029 122.166ZM187.577 121.702L187.657 121.993C187.7 122.148 187.775 122.278 187.884 122.383C187.992 122.489 188.138 122.516 188.321 122.466C188.503 122.416 188.612 122.318 188.65 122.173C188.687 122.027 188.684 121.877 188.642 121.722L188.561 121.431C188.519 121.277 188.445 121.146 188.34 121.039C188.238 120.932 188.093 120.905 187.906 120.956C187.726 121.006 187.616 121.104 187.575 121.25C187.534 121.397 187.535 121.547 187.577 121.702ZM183.382 119.771L183.302 119.48C183.245 119.271 183.235 119.068 183.273 118.87C183.313 118.671 183.403 118.497 183.541 118.346C183.681 118.196 183.871 118.087 184.11 118.021C184.355 117.954 184.574 117.95 184.768 118.009C184.962 118.067 185.125 118.172 185.258 118.323C185.39 118.474 185.485 118.654 185.543 118.863L185.623 119.154C185.68 119.362 185.69 119.566 185.651 119.764C185.614 119.96 185.527 120.134 185.389 120.286C185.252 120.435 185.064 120.544 184.823 120.61C184.578 120.677 184.358 120.682 184.162 120.623C183.968 120.563 183.804 120.458 183.67 120.309C183.535 120.159 183.44 119.979 183.382 119.771ZM183.933 119.306L184.013 119.597C184.056 119.752 184.13 119.882 184.237 119.988C184.345 120.094 184.491 120.121 184.674 120.071C184.854 120.021 184.963 119.924 185 119.778C185.039 119.632 185.037 119.481 184.995 119.327L184.914 119.036C184.872 118.881 184.798 118.751 184.693 118.644C184.589 118.538 184.444 118.51 184.259 118.561C184.079 118.61 183.969 118.708 183.928 118.855C183.889 119.001 183.89 119.151 183.933 119.306ZM184.793 123.896L187.069 117.329L187.714 117.151L185.438 123.718L184.793 123.896Z" fill="black"/>
<circle cx="135.165" cy="123.427" r="21.9375" transform="rotate(-15.3928 135.165 123.427)" fill="#FEFEFD"/>
<circle cx="135.165" cy="123.427" r="16.875" transform="rotate(-15.3928 135.165 123.427)" fill="#E6F9FD"/>
<path d="M149.441 143.92C153.19 145.215 156.806 143.109 157.536 139.206C157.79 137.846 157.615 136.402 157.234 135.134L154.305 125.653C154.125 125.038 153.616 124.585 153.089 124.403C152.563 124.221 151.983 124.298 151.582 124.713L145.679 131.139C144.894 132.004 144.243 133.137 143.984 134.522C143.255 138.424 145.692 142.625 149.441 143.92ZM151.149 134.783C152.511 135.253 153.406 136.795 153.141 138.212C152.876 139.629 151.548 140.403 150.186 139.933C148.825 139.462 147.929 137.921 148.194 136.503C148.46 135.081 149.787 134.313 151.149 134.783Z" fill="#0F8CE9"/>
<path d="M79.2933 71.6789L76.5907 61.8624L80.0898 60.899C80.8535 60.6888 81.5245 60.6536 82.1027 60.7935C82.681 60.9334 83.1611 61.2102 83.5432 61.6241C83.9244 62.0349 84.1977 62.5406 84.3631 63.1413C84.5294 63.7453 84.5527 64.3233 84.4331 64.8753C84.3159 65.4232 84.0435 65.9073 83.616 66.3275C83.1909 66.7437 82.598 67.0564 81.8375 67.2658L79.4313 67.9282L79.0855 66.6724L81.3575 66.0469C81.84 65.9141 82.2086 65.7232 82.4633 65.4743C82.717 65.2223 82.8741 64.9315 82.9347 64.602C82.9952 64.2725 82.9745 63.9224 82.8724 63.5517C82.7704 63.1811 82.6095 62.8713 82.3897 62.6224C82.1699 62.3735 81.8858 62.2094 81.5374 62.13C81.1921 62.0497 80.7734 62.0773 80.2813 62.2128L78.4215 62.7248L80.7744 71.2712L79.2933 71.6789ZM87.8121 69.3336L85.7852 61.9712L87.1704 61.5898L87.4924 62.7594L87.5691 62.7383C87.5942 62.3051 87.7449 61.9284 88.0212 61.6083C88.2998 61.2841 88.6548 61.0626 89.0861 60.9438C89.1756 60.9192 89.282 60.8933 89.4051 60.8663C89.5315 60.8384 89.6312 60.8195 89.7041 60.8098L90.0815 62.1806C90.0196 62.1805 89.9125 62.1911 89.7603 62.2124C89.6071 62.2305 89.457 62.2597 89.31 62.3002C88.9713 62.3935 88.6891 62.5485 88.4635 62.7653C88.2402 62.9781 88.0866 63.2318 88.0027 63.5264C87.9179 63.8179 87.9195 64.1234 88.0075 64.443L89.2453 68.9391L87.8121 69.3336ZM95.871 67.2748C95.1807 67.4648 94.5348 67.4725 93.9333 67.2978C93.3317 67.1231 92.8104 66.7905 92.3694 66.2999C91.9284 65.8094 91.6032 65.1839 91.3938 64.4234C91.1836 63.6597 91.1419 62.9527 91.2688 62.3024C91.3958 61.6521 91.6729 61.0979 92.1003 60.6399C92.5277 60.1819 93.0865 59.8579 93.7767 59.6679C94.4669 59.4779 95.1128 59.4702 95.7144 59.6449C96.316 59.8197 96.8377 60.1539 97.2796 60.6476C97.7215 61.1413 98.0475 61.77 98.2578 62.5337C98.4672 63.2942 98.508 63.998 98.3802 64.6451C98.2524 65.2922 97.9748 65.8448 97.5474 66.3028C97.12 66.7608 96.5612 67.0848 95.871 67.2748ZM95.5445 66.0704C95.9919 65.9472 96.33 65.7269 96.5589 65.4095C96.7878 65.0921 96.9184 64.7175 96.9508 64.2858C96.9864 63.8531 96.9391 63.4004 96.8089 62.9274C96.6796 62.4577 96.4889 62.0461 96.2369 61.6926C95.9872 61.3351 95.6824 61.077 95.3224 60.9182C94.9625 60.7595 94.5588 60.7417 94.1114 60.8649C93.6608 60.9889 93.32 61.2117 93.0888 61.5332C92.8608 61.8538 92.7294 62.232 92.6947 62.6678C92.6623 63.0996 92.7108 63.5503 92.8401 64.0201C92.9703 64.493 93.1598 64.9067 93.4086 65.261C93.6606 65.6144 93.9662 65.8689 94.3253 66.0245C94.6875 66.1791 95.094 66.1944 95.5445 66.0704ZM98.8348 58.3785L100.268 57.9839L102.427 65.8257C102.562 66.3178 102.587 66.7578 102.502 67.1458C102.419 67.5329 102.228 67.8623 101.928 68.134C101.631 68.4047 101.229 68.6101 100.721 68.7499C100.67 68.764 100.622 68.7772 100.577 68.7895C100.529 68.8027 100.479 68.8148 100.427 68.8256L100.088 67.5938C100.133 67.5815 100.173 67.5705 100.208 67.5608C100.24 67.552 100.276 67.5419 100.318 67.5304C100.657 67.4372 100.876 67.2788 100.976 67.0553C101.08 66.8341 101.085 66.5526 100.991 66.2107L98.8348 58.3785ZM99.2315 57.0472C98.9822 57.1158 98.7452 57.0917 98.5206 56.9748C98.2982 56.8538 98.1549 56.6767 98.0907 56.4434C98.0255 56.2069 98.058 55.9814 98.188 55.7669C98.3203 55.5482 98.5111 55.4046 98.7604 55.336C99.0096 55.2674 99.2454 55.2935 99.4678 55.4145C99.6925 55.5314 99.8374 55.7081 99.9025 55.9446C99.9667 56.1778 99.9327 56.4038 99.8004 56.6224C99.6703 56.837 99.4807 56.9786 99.2315 57.0472ZM107.437 64.0905C106.712 64.2902 106.044 64.3072 105.435 64.1416C104.828 63.9718 104.304 63.6433 103.864 63.156C103.426 62.6646 103.102 62.037 102.892 61.2733C102.684 60.5192 102.642 59.8158 102.765 59.1632C102.891 58.5097 103.164 57.9516 103.583 57.489C104.005 57.0255 104.558 56.6996 105.242 56.5113C105.658 56.397 106.079 56.3548 106.507 56.3849C106.934 56.415 107.344 56.5343 107.735 56.743C108.126 56.9516 108.475 57.2662 108.783 57.6867C109.091 58.104 109.336 58.6465 109.52 59.3144L109.66 59.8225L103.808 61.4337L103.512 60.3601L107.96 59.1354C107.856 58.7584 107.688 58.4456 107.454 58.197C107.22 57.9452 106.941 57.7729 106.616 57.6801C106.294 57.5864 105.948 57.5906 105.578 57.6926C105.175 57.8035 104.851 57.9993 104.605 58.2801C104.361 58.5569 104.202 58.8759 104.126 59.2371C104.052 59.5942 104.066 59.9566 104.167 60.324L104.398 61.1629C104.534 61.655 104.735 62.0498 105.003 62.3474C105.274 62.6442 105.591 62.8405 105.954 62.9364C106.316 63.0291 106.707 63.0179 107.126 62.9026C107.397 62.8279 107.634 62.7213 107.837 62.5831C108.038 62.4416 108.199 62.2701 108.319 62.0687C108.439 61.8672 108.51 61.6396 108.533 61.3858L109.957 61.2568C109.958 61.6861 109.86 62.0897 109.661 62.4675C109.465 62.8412 109.179 63.1692 108.803 63.4515C108.429 63.7297 107.974 63.9427 107.437 64.0905ZM115.287 61.9293C114.575 62.1255 113.917 62.133 113.313 61.9519C112.712 61.7667 112.196 61.426 111.763 60.9296C111.331 60.4333 111.013 59.8161 110.81 59.0779C110.604 58.3302 110.563 57.6316 110.687 56.9822C110.81 56.3296 111.082 55.7715 111.505 55.308C111.927 54.8445 112.485 54.5173 113.179 54.3264C113.738 54.1724 114.265 54.139 114.76 54.2262C115.254 54.3102 115.686 54.5006 116.057 54.7973C116.43 55.0932 116.711 55.4818 116.898 55.963L115.504 56.3471C115.332 56.0231 115.074 55.7743 114.731 55.6007C114.391 55.4262 113.992 55.4019 113.535 55.5277C113.136 55.6376 112.815 55.8394 112.572 56.133C112.332 56.4225 112.183 56.7835 112.123 57.2159C112.062 57.6451 112.104 58.1218 112.248 58.6458C112.396 59.1827 112.605 59.6236 112.876 59.9686C113.146 60.3135 113.459 60.5522 113.815 60.6845C114.175 60.8159 114.557 60.8257 114.963 60.714C115.235 60.6392 115.467 60.5219 115.66 60.3622C115.856 60.1983 116.003 60.0015 116.101 59.7716C116.202 59.5408 116.247 59.2845 116.235 59.0025L117.63 58.6185C117.709 59.1087 117.672 59.5764 117.516 60.0215C117.36 60.4666 117.094 60.8561 116.718 61.1898C116.346 61.5227 115.869 61.7692 115.287 61.9293ZM121.213 52.2175L121.53 53.3678L117.508 54.475L117.192 53.3246L121.213 52.2175ZM117.785 51.2638L119.218 50.8692L121.135 57.8338C121.212 58.1118 121.311 58.3097 121.433 58.4274C121.554 58.542 121.687 58.6068 121.832 58.6218C121.979 58.6328 122.131 58.6167 122.288 58.5736C122.403 58.542 122.501 58.5063 122.583 58.4665C122.665 58.4268 122.729 58.3955 122.774 58.3728L123.359 59.4854C123.284 59.5403 123.175 59.6048 123.03 59.6789C122.887 59.7563 122.7 59.8283 122.471 59.8948C122.096 60.005 121.726 60.0347 121.361 59.9838C120.996 59.933 120.673 59.7882 120.391 59.5497C120.108 59.3111 119.906 58.9697 119.784 58.5256L117.785 51.2638ZM128.692 52.0922L127.456 52.6799C127.356 52.5287 127.226 52.3943 127.067 52.2766C126.91 52.1581 126.72 52.0782 126.496 52.0369C126.271 51.9956 126.01 52.0158 125.713 52.0976C125.307 52.2094 124.993 52.3937 124.772 52.6506C124.55 52.9043 124.478 53.1734 124.556 53.4578C124.624 53.7039 124.769 53.8769 124.993 53.9769C125.216 54.077 125.544 54.1191 125.976 54.1032L127.22 54.0496C127.94 54.0197 128.512 54.122 128.934 54.3564C129.356 54.5909 129.639 54.9685 129.782 55.4894C129.903 55.9304 129.884 56.3586 129.723 56.7741C129.565 57.1855 129.286 57.5512 128.885 57.871C128.489 58.19 127.993 58.4313 127.399 58.5949C126.574 58.8219 125.853 58.8313 125.235 58.6232C124.617 58.4119 124.159 57.9966 123.861 57.3773L125.188 56.785C125.374 57.1223 125.627 57.3467 125.946 57.4582C126.265 57.5664 126.64 57.5612 127.071 57.4424C127.541 57.3131 127.889 57.1122 128.117 56.8399C128.344 56.5643 128.418 56.2844 128.339 56C128.276 55.7699 128.137 55.6003 127.921 55.4913C127.708 55.3813 127.415 55.3348 127.042 55.3516L125.721 55.4215C124.99 55.4541 124.414 55.3447 123.99 55.0934C123.57 54.8413 123.288 54.4531 123.144 53.9291C123.024 53.4945 123.041 53.0808 123.194 52.688C123.347 52.2952 123.613 51.9488 123.991 51.6487C124.368 51.3455 124.833 51.1178 125.386 50.9656C126.182 50.7465 126.855 50.7467 127.407 50.966C127.958 51.1821 128.387 51.5575 128.692 52.0922ZM138.992 47.4568C138.816 47.0171 138.509 46.7237 138.069 46.5765C137.629 46.4261 137.128 46.4283 136.565 46.5831C136.163 46.694 135.832 46.8538 135.573 47.0626C135.314 47.2681 135.133 47.5036 135.03 47.7689C134.93 48.0302 134.919 48.2999 134.995 48.5779C135.059 48.8111 135.169 48.9975 135.324 49.1369C135.483 49.2755 135.667 49.3777 135.878 49.4435C136.091 49.5052 136.312 49.5458 136.541 49.5653C136.769 49.5816 136.985 49.5873 137.19 49.5825L138.217 49.5678C138.552 49.5583 138.901 49.5737 139.266 49.6141C139.632 49.6545 139.984 49.743 140.325 49.8797C140.665 50.0164 140.965 50.2192 141.224 50.488C141.487 50.756 141.679 51.1105 141.801 51.5514C141.954 52.1074 141.946 52.6407 141.777 53.1513C141.611 53.661 141.291 54.1153 140.817 54.5141C140.345 54.912 139.726 55.2165 138.959 55.4277C138.224 55.63 137.556 55.6884 136.955 55.603C136.354 55.5175 135.843 55.3025 135.421 54.9578C134.999 54.61 134.69 54.1449 134.496 53.5626L135.982 53.1535C136.108 53.5002 136.304 53.7642 136.571 53.9452C136.84 54.1222 137.148 54.2246 137.496 54.2526C137.846 54.2764 138.212 54.236 138.592 54.1313C139.01 54.0161 139.365 53.8481 139.655 53.6273C139.947 53.4025 140.155 53.1459 140.278 52.8575C140.401 52.566 140.418 52.2604 140.33 51.9409C140.25 51.6501 140.101 51.4349 139.884 51.2953C139.67 51.1548 139.406 51.0626 139.091 51.0186C138.78 50.9737 138.435 50.9533 138.058 50.9574L136.811 50.9604C135.966 50.9627 135.257 50.8195 134.682 50.5308C134.111 50.2412 133.731 49.7544 133.543 49.0706C133.387 48.505 133.404 47.9691 133.595 47.4628C133.786 46.9565 134.111 46.5146 134.571 46.1371C135.03 45.7563 135.588 45.4753 136.247 45.2941C136.911 45.1111 137.53 45.0663 138.102 45.1597C138.678 45.2522 139.169 45.4625 139.575 45.7906C139.981 46.1155 140.263 46.5398 140.421 47.0635L138.992 47.4568ZM145.612 45.5002L145.929 46.6506L141.907 47.7577L141.591 46.6074L145.612 45.5002ZM142.184 44.5465L143.617 44.152L145.534 51.1166C145.611 51.3946 145.71 51.5924 145.832 51.7102C145.953 51.8247 146.086 51.8895 146.231 51.9046C146.378 51.9155 146.53 51.8995 146.687 51.8564C146.802 51.8247 146.9 51.789 146.982 51.7493C147.064 51.7095 147.127 51.6783 147.173 51.6555L147.758 52.7682C147.683 52.823 147.574 52.8875 147.429 52.9617C147.286 53.0391 147.099 53.111 146.87 53.1776C146.495 53.2878 146.125 53.3174 145.76 53.2666C145.395 53.2157 145.072 53.071 144.79 52.8324C144.507 52.5939 144.305 52.2525 144.183 51.8083L142.184 44.5465ZM151.412 51.9993C150.945 52.1277 150.5 52.1576 150.075 52.0888C149.65 52.0169 149.281 51.8451 148.969 51.5735C148.66 51.3009 148.44 50.9234 148.307 50.4409C148.192 50.0255 148.178 49.6616 148.264 49.3492C148.35 49.0368 148.507 48.7649 148.736 48.5335C148.964 48.3022 149.235 48.1003 149.549 47.9281C149.862 47.7558 150.187 47.601 150.524 47.4635C150.951 47.291 151.298 47.1509 151.564 47.0433C151.829 46.9325 152.013 46.8216 152.117 46.7106C152.22 46.5996 152.248 46.4578 152.201 46.2853L152.191 46.2517C152.076 45.8331 151.869 45.5413 151.569 45.3763C151.272 45.2105 150.892 45.1913 150.429 45.3189C149.946 45.4517 149.595 45.6635 149.376 45.9541C149.16 46.2407 149.034 46.5279 149 46.8158L147.569 46.8798C147.605 46.3885 147.739 45.9631 147.97 45.6039C148.204 45.2405 148.505 44.9411 148.873 44.7056C149.24 44.467 149.646 44.2865 150.09 44.1642C150.384 44.0833 150.705 44.0326 151.054 44.0123C151.405 43.9879 151.749 44.0272 152.087 44.1302C152.428 44.2323 152.737 44.4272 153.016 44.7149C153.294 44.9994 153.507 45.41 153.654 45.9469L155 50.836L153.601 51.2213L153.324 50.2148L153.266 50.2306C153.224 50.4414 153.136 50.6619 153 50.8918C152.863 51.1218 152.666 51.3359 152.408 51.5342C152.15 51.7325 151.818 51.8875 151.412 51.9993ZM151.407 50.7631C151.803 50.654 152.12 50.4825 152.358 50.2485C152.6 50.0136 152.759 49.7497 152.837 49.4568C152.916 49.1598 152.916 48.8659 152.836 48.5751L152.575 47.6261C152.538 47.6913 152.452 47.7665 152.317 47.8517C152.185 47.9328 152.03 48.0149 151.854 48.0978C151.676 48.1776 151.503 48.2545 151.335 48.3284C151.165 48.3992 151.023 48.4588 150.91 48.5074C150.641 48.6191 150.403 48.7481 150.196 48.8945C149.992 49.0401 149.843 49.2101 149.749 49.4045C149.657 49.5948 149.646 49.8178 149.716 50.0734C149.814 50.4281 150.019 50.6605 150.331 50.7705C150.642 50.8773 151.001 50.8748 151.407 50.7631ZM158.319 42.0018L158.636 43.1522L154.614 44.2594L154.298 43.109L158.319 42.0018ZM154.89 41.0482L156.324 40.6536L158.241 47.6182C158.318 47.8962 158.417 48.0941 158.539 48.2118C158.659 48.3264 158.792 48.3911 158.938 48.4062C159.085 48.4172 159.237 48.4011 159.394 48.358C159.509 48.3263 159.607 48.2906 159.689 48.2509C159.771 48.2112 159.834 48.1799 159.88 48.1571L160.464 49.2698C160.39 49.3246 160.281 49.3892 160.136 49.4633C159.992 49.5407 159.806 49.6127 159.577 49.6792C159.201 49.7894 158.831 49.8191 158.467 49.7682C158.102 49.7173 157.779 49.5726 157.496 49.3341C157.214 49.0955 157.012 48.7541 156.89 48.31L154.89 41.0482ZM165.755 44.5905L164.568 40.2814L166.006 39.8855L168.033 47.2479L166.624 47.6359L166.273 46.3609L166.196 46.382C166.135 46.8217 165.954 47.224 165.652 47.589C165.353 47.9499 164.926 48.2064 164.374 48.3586C163.901 48.4888 163.453 48.5002 163.032 48.3928C162.613 48.2813 162.243 48.048 161.921 47.693C161.603 47.3371 161.361 46.8555 161.194 46.2484L159.904 41.5654L161.338 41.1708L162.579 45.6813C162.718 46.183 162.967 46.5441 163.326 46.7648C163.686 46.9854 164.088 47.0346 164.532 46.9123C164.801 46.8384 165.049 46.6978 165.277 46.4906C165.509 46.2825 165.675 46.0184 165.776 45.6984C165.88 45.3776 165.873 45.0082 165.755 44.5905ZM173.944 39.6339L172.708 40.2216C172.608 40.0704 172.478 39.936 172.319 39.8183C172.162 39.6998 171.972 39.6199 171.747 39.5786C171.523 39.5372 171.262 39.5575 170.965 39.6393C170.559 39.751 170.245 39.9354 170.024 40.1923C169.802 40.446 169.73 40.7151 169.808 40.9995C169.876 41.2455 170.021 41.4186 170.245 41.5186C170.468 41.6187 170.796 41.6608 171.228 41.6449L172.472 41.5913C173.192 41.5614 173.764 41.6637 174.186 41.8981C174.608 42.1326 174.89 42.5102 175.034 43.0311C175.155 43.4721 175.136 43.9003 174.975 44.3158C174.817 44.7272 174.538 45.0928 174.137 45.4127C173.741 45.7317 173.245 45.973 172.651 46.1366C171.826 46.3636 171.105 46.373 170.487 46.1649C169.869 45.9536 169.411 45.5383 169.113 44.919L170.44 44.3267C170.626 44.664 170.879 44.8884 171.198 44.9998C171.517 45.1081 171.892 45.1028 172.323 44.9841C172.793 44.8547 173.141 44.6539 173.369 44.3816C173.595 44.106 173.67 43.8261 173.591 43.5417C173.528 43.3116 173.389 43.142 173.173 43.0329C172.96 42.923 172.667 42.8764 172.294 42.8933L170.972 42.9632C170.242 42.9958 169.666 42.8864 169.242 42.6351C168.822 42.3829 168.54 41.9948 168.396 41.4707C168.276 41.0362 168.293 40.6225 168.446 40.2297C168.599 39.8369 168.865 39.4904 169.243 39.1904C169.62 38.8872 170.085 38.6595 170.638 38.5073C171.433 38.2882 172.107 38.2883 172.659 38.5076C173.21 38.7238 173.639 39.0992 173.944 39.6339Z" fill="#898989"/>
</g>
</g>
<defs>
<filter id="filter0_d_111_5372" x="-2" y="-1.99997" width="325.548" height="371.662" filterUnits="userSpaceOnUse" color-interpolation-filters="sRGB">
<feFlood flood-opacity="0" result="BackgroundImageFix"/>
<feColorMatrix in="SourceAlpha" type="matrix" values="0 0 0 0 0 0 0 0 0 0 0 0 0 0 0 0 0 0 127 0" result="hardAlpha"/>
<feOffset dy="6"/>
<feGaussianBlur stdDeviation="6"/>
<feComposite in2="hardAlpha" operator="out"/>
<feColorMatrix type="matrix" values="0 0 0 0 0 0 0 0 0 0.0758334 0 0 0 0 0.379167 0 0 0 0.2 0"/>
<feBlend mode="normal" in2="BackgroundImageFix" result="effect1_dropShadow_111_5372"/>
<feBlend mode="normal" in="SourceGraphic" in2="effect1_dropShadow_111_5372" result="shape"/>
</filter>
<filter id="filter1_d_111_5372" x="91.8491" y="169.143" width="55.9593" height="55.9593" filterUnits="userSpaceOnUse" color-interpolation-filters="sRGB">
<feFlood flood-opacity="0" result="BackgroundImageFix"/>
<feColorMatrix in="SourceAlpha" type="matrix" values="0 0 0 0 0 0 0 0 0 0 0 0 0 0 0 0 0 0 127 0" result="hardAlpha"/>
<feOffset dy="2.25"/>
<feGaussianBlur stdDeviation="2.53125"/>
<feComposite in2="hardAlpha" operator="out"/>
<feColorMatrix type="matrix" values="0 0 0 0 0 0 0 0 0 0 0 0 0 0 0 0 0 0 0.05 0"/>
<feBlend mode="normal" in2="BackgroundImageFix" result="effect1_dropShadow_111_5372"/>
<feBlend mode="normal" in="SourceGraphic" in2="effect1_dropShadow_111_5372" result="shape"/>
</filter>
<filter id="filter2_d_111_5372" x="89.8647" y="246.702" width="55.9593" height="55.9593" filterUnits="userSpaceOnUse" color-interpolation-filters="sRGB">
<feFlood flood-opacity="0" result="BackgroundImageFix"/>
<feColorMatrix in="SourceAlpha" type="matrix" values="0 0 0 0 0 0 0 0 0 0 0 0 0 0 0 0 0 0 127 0" result="hardAlpha"/>
<feOffset dy="2.25"/>
<feGaussianBlur stdDeviation="2.53125"/>
<feComposite in2="hardAlpha" operator="out"/>
<feColorMatrix type="matrix" values="0 0 0 0 0 0 0 0 0 0 0 0 0 0 0 0 0 0 0.05 0"/>
<feBlend mode="normal" in2="BackgroundImageFix" result="effect1_dropShadow_111_5372"/>
<feBlend mode="normal" in="SourceGraphic" in2="effect1_dropShadow_111_5372" result="shape"/>
</filter>
<clipPath id="clip0_111_5372">
<rect x="10" y="65.3154" width="231" height="297" rx="11.25" transform="rotate(-15.3928 10 65.3154)" fill="white"/>
</clipPath>
</defs>
</svg>
