<svg width="332" height="353" viewBox="0 0 332 353" fill="none" xmlns="http://www.w3.org/2000/svg">
<g opacity="0.2" filter="url(#filter0_d_4_110)">
<g clip-path="url(#clip0_4_110)">
<rect x="123.448" y="12" width="210" height="256" rx="5.5" transform="rotate(25.8072 123.448 12)" fill="white"/>
<g clip-path="url(#clip1_4_110)">
<rect x="127.4" y="23.3527" width="193" height="24" rx="7.5" transform="rotate(25.8072 127.4 23.3527)" fill="#F5F5F5"/>
<g clip-path="url(#clip2_4_110)">
<g filter="url(#filter1_d_4_110)">
<rect x="185.511" y="54.7862" width="61.5" height="18.5" rx="5" transform="rotate(25.8072 185.511 54.7862)" fill="white"/>
</g>
<path d="M197.103 74.8317L198.048 69.6339L198.775 69.9856L197.952 73.9667L197.994 73.9872L200.639 70.8871L201.36 71.2355L200.571 75.2361L200.614 75.2567L203.222 72.1359L203.952 72.4887L200.462 76.4561L199.766 76.1195L200.461 72.2202L200.426 72.2029L197.801 75.1694L197.103 74.8317ZM203.872 78.1905C203.533 78.0268 203.276 77.8134 203.102 77.5503C202.929 77.2865 202.84 76.9905 202.835 76.6622C202.832 76.3332 202.917 75.9904 203.09 75.6338C203.26 75.2817 203.476 75.0031 203.737 74.7981C203.999 74.5937 204.286 74.4736 204.596 74.4376C204.907 74.4024 205.223 74.4619 205.542 74.6163C205.736 74.7101 205.908 74.8331 206.059 74.9853C206.21 75.1374 206.325 75.3171 206.403 75.5244C206.482 75.7316 206.51 75.9651 206.487 76.2248C206.465 76.483 206.379 76.768 206.228 77.0798L206.114 77.317L203.381 75.9957L203.624 75.4944L205.7 76.4987C205.785 76.3226 205.825 76.1494 205.819 75.979C205.814 75.8071 205.765 75.6503 205.674 75.5084C205.584 75.3673 205.452 75.2549 205.279 75.1712C205.091 75.0803 204.905 75.0472 204.72 75.0719C204.537 75.0958 204.372 75.1632 204.224 75.2741C204.079 75.3843 203.965 75.5251 203.882 75.6967L203.693 76.0883C203.581 76.3181 203.527 76.533 203.53 76.7331C203.534 76.9339 203.589 77.1122 203.694 77.2679C203.8 77.4221 203.95 77.5465 204.146 77.641C204.272 77.7024 204.397 77.7404 204.518 77.7551C204.641 77.7683 204.758 77.7567 204.869 77.7204C204.981 77.6841 205.083 77.622 205.175 77.534L205.753 77.9544C205.612 78.1164 205.442 78.2357 205.243 78.3125C205.046 78.3885 204.83 78.4176 204.596 78.4C204.364 78.3816 204.122 78.3117 203.872 78.1905ZM208.02 80.1968C207.682 80.033 207.425 79.8196 207.25 79.5566C207.078 79.2928 206.989 78.9967 206.984 78.6685C206.981 78.3394 207.066 77.9966 207.238 77.64C207.409 77.2879 207.624 77.0094 207.885 76.8043C208.148 76.6 208.434 76.4798 208.745 76.4438C209.056 76.4086 209.372 76.4682 209.691 76.6226C209.885 76.7163 210.057 76.8393 210.208 76.9915C210.359 77.1437 210.474 77.3234 210.552 77.5306C210.631 77.7378 210.658 77.9713 210.636 78.231C210.614 78.4893 210.528 78.7743 210.377 79.0861L210.262 79.3233L207.53 78.002L207.772 77.5007L209.849 78.5049C209.934 78.3289 209.974 78.1557 209.968 77.9853C209.963 77.8134 209.914 77.6565 209.823 77.5147C209.733 77.3736 209.601 77.2612 209.428 77.1775C209.24 77.0866 209.054 77.0535 208.869 77.0781C208.686 77.1021 208.521 77.1695 208.373 77.2804C208.228 77.3905 208.114 77.5314 208.031 77.7029L207.841 78.0946C207.73 78.3243 207.676 78.5392 207.679 78.7393C207.683 78.9401 207.737 79.1184 207.843 79.2741C207.948 79.4284 208.099 79.5528 208.294 79.6473C208.421 79.7086 208.545 79.7466 208.667 79.7613C208.79 79.7745 208.907 79.763 209.018 79.7266C209.13 79.6903 209.231 79.6282 209.324 79.5403L209.902 79.9607C209.761 80.1226 209.591 80.242 209.392 80.3187C209.195 80.3947 208.979 80.4239 208.745 80.4062C208.512 80.3878 208.271 80.318 208.02 80.1968ZM211.9 80.5489L212.291 79.7299L212.407 79.7862L214.48 78.9939L215.281 79.3813L212.919 80.282L212.813 80.2311L211.9 80.5489ZM210.721 81.4173L212.938 76.8341L213.607 77.1577L211.39 81.7408L210.721 81.4173ZM212.892 82.467L212.451 80.2381L213.138 79.9933L213.713 82.8641L212.892 82.467ZM217.565 79.0716L215.348 83.6548L214.679 83.3312L216.896 78.7481L217.565 79.0716ZM216.498 85.8013C216.398 85.753 216.311 85.7008 216.237 85.6447C216.162 85.5901 216.109 85.5441 216.077 85.5067L216.504 85.0364C216.61 85.1283 216.712 85.1952 216.81 85.2369C216.908 85.2786 217.009 85.2835 217.115 85.2517C217.222 85.2207 217.34 85.1428 217.471 85.018L217.664 84.8298L218.09 80.7395L218.806 81.0858L218.387 84.1743L218.423 84.1916L220.583 81.945L221.301 82.2924L218.001 85.5035C217.849 85.6508 217.692 85.7618 217.53 85.8366C217.368 85.9129 217.202 85.9484 217.032 85.9433C216.861 85.9381 216.683 85.8908 216.498 85.8013Z" fill="#6F21D1"/>
</g>
<path d="M253.65 95.9662L254.489 96.372L254.226 100.64L254.279 100.666L257.461 97.8092L258.3 98.215L256.084 102.798L255.426 102.48L257.03 99.1635L256.987 99.1429L254.035 101.799L253.489 101.535L253.739 97.5693L253.697 97.5488L252.092 100.868L251.434 100.549L253.65 95.9662ZM258.9 104.246C258.578 104.09 258.332 103.88 258.164 103.616C257.995 103.352 257.908 103.055 257.904 102.726C257.9 102.396 257.983 102.053 258.155 101.698C258.327 101.342 258.545 101.062 258.807 100.859C259.068 100.656 259.355 100.539 259.667 100.508C259.978 100.476 260.295 100.538 260.618 100.694C260.94 100.85 261.185 101.06 261.354 101.324C261.523 101.587 261.609 101.885 261.613 102.216C261.616 102.548 261.532 102.891 261.36 103.248C261.188 103.603 260.971 103.881 260.71 104.083C260.449 104.284 260.163 104.4 259.851 104.432C259.539 104.464 259.222 104.401 258.9 104.246ZM259.174 103.685C259.383 103.786 259.583 103.814 259.773 103.77C259.964 103.726 260.137 103.628 260.291 103.477C260.447 103.326 260.578 103.14 260.685 102.919C260.791 102.7 260.855 102.482 260.876 102.266C260.9 102.049 260.871 101.852 260.787 101.674C260.704 101.495 260.558 101.356 260.349 101.255C260.139 101.153 259.937 101.124 259.745 101.169C259.553 101.215 259.379 101.314 259.223 101.466C259.068 101.618 258.938 101.804 258.832 102.023C258.725 102.244 258.66 102.462 258.637 102.677C258.616 102.893 258.647 103.089 258.731 103.266C258.816 103.444 258.964 103.583 259.174 103.685ZM263.389 103.812L262.402 105.853L261.733 105.53L263.395 102.092L264.038 102.403L263.767 102.963L263.81 102.983C263.977 102.839 264.171 102.753 264.393 102.724C264.617 102.696 264.857 102.744 265.116 102.869C265.35 102.982 265.531 103.131 265.66 103.314C265.789 103.497 265.855 103.707 265.859 103.947C265.863 104.186 265.796 104.447 265.659 104.731L264.602 106.917L263.933 106.594L264.951 104.488C265.072 104.239 265.101 104.013 265.039 103.81C264.978 103.605 264.834 103.448 264.607 103.338C264.452 103.263 264.298 103.23 264.144 103.239C263.992 103.248 263.85 103.301 263.717 103.397C263.587 103.492 263.477 103.63 263.389 103.812ZM269.216 104.907L268.957 105.444L267.079 104.537L267.339 103.999L269.216 104.907ZM268.241 103.419L268.91 103.743L267.337 106.995C267.275 107.124 267.247 107.231 267.254 107.316C267.261 107.399 267.29 107.467 267.34 107.52C267.392 107.573 267.454 107.617 267.527 107.652C267.581 107.678 267.63 107.697 267.674 107.709C267.717 107.721 267.752 107.731 267.776 107.737L267.63 108.348C267.584 108.344 267.521 108.333 267.443 108.313C267.363 108.295 267.269 108.26 267.161 108.21C266.984 108.128 266.835 108.017 266.714 107.878C266.594 107.739 266.52 107.578 266.492 107.395C266.464 107.212 266.501 107.017 266.601 106.81L268.241 103.419ZM270.474 107.239L269.487 109.28L268.818 108.956L271.035 104.373L271.695 104.692L270.87 106.397L270.913 106.418C271.083 106.272 271.277 106.185 271.495 106.156C271.713 106.127 271.956 106.177 272.223 106.306C272.459 106.42 272.641 106.568 272.77 106.75C272.901 106.933 272.968 107.144 272.972 107.384C272.978 107.622 272.912 107.885 272.774 108.171L271.716 110.357L271.047 110.034L272.066 107.928C272.187 107.676 272.217 107.449 272.154 107.248C272.092 107.045 271.946 106.887 271.715 106.775C271.556 106.699 271.398 106.664 271.241 106.67C271.084 106.678 270.939 106.729 270.805 106.824C270.672 106.918 270.562 107.057 270.474 107.239ZM275.945 106.747L273.729 111.331L273.059 111.007L275.276 106.424L275.945 106.747ZM274.878 113.477C274.778 113.429 274.691 113.377 274.617 113.32C274.542 113.266 274.489 113.22 274.458 113.182L274.884 112.712C274.99 112.804 275.092 112.871 275.19 112.913C275.288 112.954 275.389 112.959 275.495 112.927C275.602 112.896 275.721 112.818 275.851 112.694L276.044 112.506L276.47 108.415L277.186 108.761L276.767 111.85L276.803 111.867L278.963 109.621L279.682 109.968L276.381 113.179C276.229 113.327 276.072 113.438 275.911 113.512C275.749 113.589 275.582 113.624 275.412 113.619C275.241 113.614 275.063 113.567 274.878 113.477Z" fill="#77838F"/>
<path d="M136.374 44.9093L134.89 44.1918L137.106 39.6087L138.637 40.3489C139.086 40.566 139.427 40.8443 139.661 41.1836C139.895 41.5215 140.015 41.9027 140.022 42.3273C140.03 42.7512 139.92 43.201 139.689 43.677C139.459 44.1544 139.173 44.5224 138.832 44.7812C138.493 45.0406 138.115 45.1835 137.697 45.2098C137.28 45.2345 136.839 45.1344 136.374 44.9093ZM135.874 43.922L136.628 44.2867C136.977 44.4555 137.299 44.5302 137.594 44.5107C137.889 44.4898 138.155 44.3817 138.391 44.1866C138.628 43.9901 138.834 43.7105 139.009 43.348C139.183 42.9884 139.273 42.6555 139.279 42.3494C139.287 42.0439 139.21 41.7718 139.047 41.533C138.885 41.2943 138.637 41.0941 138.302 40.9325L137.506 40.5473L135.874 43.922ZM140.798 47.1426C140.58 47.0373 140.403 46.9018 140.266 46.7361C140.129 46.5689 140.047 46.3828 140.019 46.1779C139.993 45.9736 140.034 45.7589 140.143 45.5336C140.237 45.3397 140.351 45.1981 140.486 45.1088C140.622 45.0196 140.77 44.9691 140.932 44.9573C141.095 44.9455 141.263 44.9588 141.438 44.9973C141.612 45.0357 141.786 45.0846 141.958 45.1438C142.175 45.2195 142.352 45.2809 142.487 45.3281C142.623 45.3737 142.729 45.3927 142.805 45.385C142.88 45.3773 142.938 45.3332 142.976 45.2527L142.984 45.237C143.079 45.0416 143.097 44.8634 143.038 44.7026C142.981 44.5425 142.845 44.4102 142.628 44.3056C142.403 44.1966 142.201 44.1608 142.023 44.198C141.847 44.2344 141.705 44.3011 141.598 44.3982L141.038 43.9508C141.214 43.778 141.404 43.6621 141.609 43.6031C141.817 43.5433 142.029 43.5297 142.245 43.5624C142.462 43.5937 142.674 43.6594 142.881 43.7597C143.018 43.8261 143.156 43.9128 143.294 44.02C143.434 44.1263 143.55 44.2545 143.643 44.4044C143.738 44.5551 143.79 44.7305 143.8 44.9305C143.811 45.129 143.756 45.3535 143.635 45.6042L142.531 47.8868L141.878 47.5708L142.105 47.1008L142.078 47.0879C141.993 47.1535 141.887 47.2071 141.76 47.2488C141.633 47.2905 141.488 47.3062 141.326 47.2957C141.163 47.2853 140.987 47.2342 140.798 47.1426ZM141.203 46.6758C141.388 46.7653 141.564 46.8052 141.731 46.7956C141.899 46.7867 142.046 46.7399 142.171 46.6553C142.299 46.5698 142.396 46.4592 142.461 46.3234L142.676 45.8803C142.64 45.8927 142.583 45.8927 142.504 45.8804C142.428 45.8673 142.343 45.8473 142.249 45.8204C142.156 45.792 142.066 45.7639 141.978 45.7362C141.891 45.7069 141.818 45.6827 141.759 45.6634C141.621 45.6171 141.489 45.5873 141.363 45.5742C141.238 45.5617 141.126 45.5766 141.027 45.6187C140.93 45.66 140.852 45.7403 140.794 45.8597C140.714 46.0253 140.715 46.1802 140.796 46.3244C140.878 46.4671 141.014 46.5842 141.203 46.6758ZM143.872 48.5354L145.535 45.0981L146.204 45.4216L144.542 48.859L143.872 48.5354ZM146.129 44.7311C146.013 44.6748 145.931 44.5877 145.885 44.4697C145.842 44.351 145.846 44.2371 145.899 44.1282C145.952 44.0178 146.039 43.9437 146.158 43.9058C146.28 43.8671 146.399 43.8759 146.515 43.9322C146.632 43.9885 146.712 44.076 146.756 44.1947C146.802 44.3127 146.798 44.4269 146.745 44.5373C146.692 44.6462 146.605 44.72 146.483 44.7587C146.363 44.7966 146.245 44.7874 146.129 44.7311ZM148.777 45.2524L146.561 49.8356L145.892 49.512L148.108 44.9288L148.777 45.2524ZM147.711 51.9821C147.611 51.9338 147.524 51.8815 147.45 51.8255C147.375 51.7709 147.322 51.7249 147.29 51.6875L147.716 51.2171C147.823 51.3091 147.925 51.3759 148.023 51.4176C148.12 51.4593 148.222 51.4643 148.327 51.4325C148.434 51.4014 148.553 51.3235 148.683 51.1988L148.877 51.0105L149.303 46.9202L150.019 47.2665L149.599 50.355L149.635 50.3724L151.796 48.1258L152.514 48.4732L149.213 51.6843C149.061 51.8316 148.904 51.9426 148.743 52.0174C148.581 52.0936 148.415 52.1292 148.244 52.124C148.074 52.1189 147.896 52.0716 147.711 51.9821Z" fill="#77838F"/>
</g>
<g clip-path="url(#clip3_4_110)">
<path d="M176.691 98.9913L179.461 93.2624L179.828 93.4399L177.058 99.1688L176.691 98.9913ZM179.75 95.5944C179.828 95.371 179.809 95.1593 179.692 94.9592C179.576 94.7577 179.387 94.5934 179.124 94.4664C178.937 94.3755 178.759 94.3267 178.593 94.32C178.428 94.3118 178.282 94.3408 178.156 94.407C178.033 94.4724 177.94 94.5699 177.877 94.6997C177.824 94.8086 177.804 94.9149 177.817 95.0185C177.831 95.1228 177.866 95.222 177.924 95.3162C177.984 95.4095 178.053 95.4975 178.133 95.5802C178.213 95.6614 178.293 95.7349 178.372 95.8005L178.763 96.1333C178.892 96.2398 179.018 96.3608 179.142 96.4963C179.267 96.6318 179.37 96.7812 179.453 96.9447C179.536 97.1081 179.582 97.2832 179.591 97.4699C179.602 97.6572 179.557 97.8539 179.458 98.0597C179.332 98.3193 179.154 98.5174 178.922 98.6539C178.692 98.7911 178.422 98.8565 178.112 98.8502C177.803 98.8447 177.47 98.7553 177.112 98.5822C176.769 98.4162 176.498 98.2182 176.3 97.9881C176.102 97.758 175.981 97.5087 175.936 97.2403C175.892 96.9703 175.929 96.6937 176.047 96.4105L176.741 96.746C176.674 96.9181 176.661 97.0821 176.702 97.2379C176.745 97.393 176.827 97.5331 176.949 97.6582C177.073 97.7826 177.223 97.8877 177.401 97.9736C177.596 98.0681 177.785 98.1215 177.967 98.1339C178.151 98.1456 178.313 98.1175 178.455 98.0497C178.597 97.9803 178.704 97.8711 178.776 97.7219C178.842 97.5861 178.857 97.4562 178.821 97.3322C178.787 97.2088 178.718 97.0871 178.614 96.9669C178.512 96.8475 178.389 96.7264 178.246 96.6038L177.775 96.1942C177.457 95.9168 177.237 95.6291 177.116 95.3313C176.996 95.0342 177.014 94.726 177.168 94.4067C177.296 94.1426 177.479 93.9468 177.717 93.8191C177.956 93.6914 178.224 93.6323 178.521 93.6417C178.819 93.6496 179.122 93.7279 179.429 93.8765C179.739 94.0266 179.987 94.2134 180.171 94.437C180.357 94.6614 180.473 94.9022 180.518 95.1595C180.563 95.4154 180.53 95.6678 180.417 95.9169L179.75 95.5944ZM184.014 96.171L181.798 100.754L181.104 100.419L182.985 96.5293L182.958 96.5163L181.515 96.7022L181.836 96.0398L183.341 95.8453L184.014 96.171ZM183.824 100.63L184.095 100.07L187.588 97.8994L188.029 98.1126L187.631 98.9362L187.351 98.8009L184.85 100.358L184.833 100.394L187.548 101.707L187.264 102.293L183.824 100.63ZM185.565 102.576L186.08 101.51L186.207 101.257L187.785 97.9947L188.441 98.3117L186.225 102.895L185.565 102.576ZM189.071 103.498L188.92 103.726C188.811 103.894 188.683 104.062 188.535 104.23C188.388 104.401 188.246 104.555 188.109 104.695C187.973 104.836 187.863 104.946 187.78 105.027L187.305 104.798C187.369 104.715 187.457 104.603 187.568 104.461C187.678 104.321 187.796 104.162 187.923 103.984C188.049 103.806 188.169 103.62 188.283 103.426L188.427 103.187L189.071 103.498ZM191.563 105.554C191.283 105.418 191.056 105.242 190.885 105.027C190.715 104.81 190.61 104.575 190.568 104.322C190.527 104.068 190.561 103.817 190.67 103.57L191.341 103.895C191.262 104.099 191.271 104.304 191.368 104.507C191.465 104.71 191.624 104.865 191.844 104.972C192.021 105.057 192.196 105.092 192.371 105.077C192.548 105.062 192.709 105.001 192.856 104.895C193.005 104.79 193.123 104.646 193.212 104.462C193.302 104.276 193.342 104.09 193.332 103.905C193.323 103.72 193.267 103.551 193.166 103.399C193.066 103.248 192.925 103.127 192.744 103.038C192.605 102.971 192.454 102.927 192.291 102.907C192.127 102.887 191.984 102.895 191.86 102.93L191.272 102.53L192.646 100.345L195.166 101.564L194.879 102.157L192.934 101.216L192.169 102.428L192.196 102.441C192.327 102.398 192.481 102.383 192.656 102.396C192.834 102.41 193.008 102.458 193.178 102.541C193.457 102.676 193.673 102.862 193.827 103.1C193.982 103.339 194.066 103.604 194.08 103.894C194.097 104.184 194.033 104.476 193.888 104.773C193.745 105.07 193.55 105.303 193.302 105.47C193.055 105.637 192.78 105.731 192.476 105.75C192.175 105.768 191.87 105.702 191.563 105.554ZM195.997 107.715C195.645 107.542 195.388 107.303 195.226 106.997C195.065 106.69 195.004 106.328 195.042 105.911C195.08 105.493 195.22 105.035 195.461 104.536C195.701 104.04 195.973 103.647 196.276 103.359C196.58 103.072 196.902 102.897 197.243 102.833C197.584 102.77 197.93 102.823 198.281 102.993C198.631 103.162 198.887 103.401 199.047 103.709C199.209 104.015 199.27 104.376 199.233 104.792C199.198 105.208 199.06 105.664 198.82 106.161C198.578 106.661 198.305 107.055 198.002 107.345C197.699 107.632 197.377 107.809 197.036 107.874C196.696 107.938 196.35 107.885 195.997 107.715ZM196.286 107.117C196.597 107.267 196.912 107.233 197.233 107.015C197.556 106.797 197.856 106.402 198.133 105.829C198.317 105.448 198.432 105.107 198.478 104.806C198.527 104.503 198.509 104.248 198.426 104.04C198.345 103.832 198.202 103.678 197.997 103.579C197.688 103.43 197.372 103.465 197.049 103.684C196.726 103.903 196.426 104.298 196.148 104.869C195.963 105.251 195.846 105.593 195.798 105.895C195.751 106.197 195.769 106.451 195.851 106.658C195.934 106.864 196.079 107.017 196.286 107.117ZM200.515 109.899C200.163 109.727 199.906 109.488 199.744 109.181C199.583 108.875 199.522 108.513 199.56 108.095C199.598 107.678 199.738 107.22 199.979 106.721C200.219 106.224 200.491 105.832 200.794 105.544C201.098 105.257 201.42 105.082 201.761 105.018C202.102 104.955 202.448 105.008 202.799 105.178C203.149 105.347 203.405 105.586 203.565 105.893C203.727 106.2 203.788 106.561 203.751 106.977C203.716 107.393 203.578 107.849 203.338 108.346C203.096 108.845 202.823 109.24 202.52 109.529C202.217 109.817 201.895 109.994 201.554 110.059C201.214 110.123 200.868 110.07 200.515 109.899ZM200.804 109.302C201.115 109.452 201.43 109.418 201.751 109.199C202.074 108.982 202.374 108.586 202.651 108.013C202.835 107.633 202.95 107.292 202.996 106.99C203.045 106.688 203.027 106.433 202.944 106.225C202.863 106.016 202.72 105.863 202.515 105.764C202.207 105.615 201.89 105.649 201.567 105.869C201.244 106.088 200.944 106.483 200.666 107.054C200.481 107.435 200.364 107.778 200.316 108.08C200.269 108.381 200.287 108.636 200.369 108.843C200.452 109.049 200.597 109.202 200.804 109.302ZM203.738 111.416C203.615 111.357 203.531 111.263 203.485 111.134C203.44 111.003 203.447 110.876 203.507 110.752C203.566 110.63 203.66 110.547 203.79 110.503C203.921 110.457 204.047 110.464 204.17 110.523C204.292 110.582 204.376 110.677 204.421 110.808C204.467 110.937 204.461 111.063 204.402 111.185C204.362 111.267 204.305 111.332 204.23 111.381C204.157 111.428 204.077 111.456 203.991 111.464C203.904 111.472 203.82 111.456 203.738 111.416ZM206.908 112.974C206.587 112.819 206.33 112.627 206.138 112.397C205.946 112.168 205.828 111.924 205.783 111.663C205.738 111.402 205.776 111.148 205.898 110.901C205.99 110.706 206.116 110.547 206.275 110.423C206.436 110.299 206.613 110.216 206.806 110.175C207 110.132 207.19 110.138 207.378 110.192L207.391 110.165C207.189 109.999 207.066 109.789 207.02 109.533C206.975 109.277 207.012 109.026 207.133 108.781C207.244 108.546 207.407 108.367 207.621 108.244C207.838 108.12 208.082 108.059 208.354 108.06C208.626 108.061 208.903 108.129 209.185 108.266C209.464 108.4 209.687 108.575 209.854 108.788C210.024 109.001 210.127 109.23 210.165 109.477C210.203 109.721 210.166 109.961 210.055 110.194C209.935 110.44 209.759 110.623 209.529 110.746C209.298 110.868 209.059 110.903 208.81 110.851L208.797 110.878C208.954 110.991 209.074 111.135 209.158 111.312C209.244 111.488 209.289 111.678 209.291 111.882C209.296 112.085 209.253 112.284 209.16 112.478C209.039 112.725 208.862 112.912 208.63 113.039C208.397 113.166 208.131 113.225 207.832 113.216C207.534 113.209 207.226 113.128 206.908 112.974ZM207.182 112.408C207.371 112.499 207.55 112.548 207.719 112.552C207.889 112.555 208.04 112.518 208.17 112.441C208.302 112.363 208.406 112.248 208.482 112.095C208.557 111.935 208.584 111.773 208.561 111.611C208.539 111.45 208.476 111.301 208.371 111.164C208.267 111.026 208.125 110.914 207.946 110.828C207.765 110.741 207.588 110.698 207.414 110.7C207.239 110.703 207.083 110.746 206.943 110.829C206.803 110.912 206.695 111.034 206.62 111.195C206.544 111.348 206.515 111.499 206.535 111.65C206.556 111.801 206.621 111.942 206.73 112.074C206.84 112.204 206.991 112.316 207.182 112.408ZM208.213 110.275C208.365 110.349 208.515 110.383 208.662 110.379C208.81 110.375 208.943 110.335 209.063 110.258C209.185 110.183 209.281 110.072 209.353 109.927C209.421 109.783 209.448 109.641 209.432 109.501C209.419 109.362 209.367 109.234 209.277 109.119C209.188 109.003 209.066 108.907 208.911 108.832C208.753 108.755 208.6 108.718 208.451 108.72C208.305 108.721 208.174 108.76 208.056 108.835C207.938 108.911 207.846 109.021 207.778 109.165C207.706 109.31 207.677 109.454 207.691 109.595C207.706 109.736 207.757 109.866 207.846 109.984C207.935 110.103 208.058 110.2 208.213 110.275ZM213.592 110.397C213.796 110.497 213.979 110.632 214.142 110.801C214.305 110.97 214.426 111.176 214.506 111.419C214.587 111.662 214.607 111.948 214.566 112.276C214.528 112.604 214.408 112.976 214.208 113.395C214.013 113.796 213.8 114.134 213.568 114.408C213.337 114.681 213.094 114.889 212.839 115.031C212.586 115.173 212.326 115.249 212.059 115.258C211.791 115.266 211.524 115.206 211.257 115.077C210.984 114.945 210.767 114.774 210.607 114.564C210.448 114.354 210.347 114.123 210.306 113.869C210.265 113.614 210.289 113.354 210.376 113.091L211.058 113.421C211.008 113.64 211.022 113.843 211.1 114.032C211.18 114.22 211.33 114.367 211.549 114.473C211.885 114.635 212.217 114.616 212.547 114.414C212.877 114.211 213.17 113.847 213.426 113.321L213.39 113.303C213.251 113.394 213.1 113.458 212.939 113.494C212.78 113.531 212.616 113.54 212.448 113.522C212.28 113.503 212.115 113.454 211.953 113.376C211.689 113.248 211.48 113.067 211.326 112.833C211.173 112.598 211.086 112.337 211.068 112.048C211.049 111.759 211.11 111.469 211.251 111.178C211.391 110.889 211.583 110.658 211.829 110.486C212.076 110.314 212.351 110.217 212.654 110.195C212.96 110.171 213.273 110.239 213.592 110.397ZM213.313 110.98C213.138 110.895 212.96 110.862 212.778 110.881C212.598 110.899 212.432 110.962 212.281 111.069C212.131 111.175 212.012 111.316 211.927 111.494C211.841 111.671 211.802 111.851 211.809 112.034C211.819 112.215 211.871 112.381 211.966 112.532C212.063 112.682 212.199 112.799 212.375 112.884C212.507 112.948 212.641 112.982 212.779 112.986C212.917 112.99 213.05 112.968 213.178 112.919C213.307 112.869 213.424 112.799 213.527 112.707C213.63 112.615 213.713 112.506 213.774 112.379C213.855 112.21 213.891 112.034 213.88 111.851C213.871 111.668 213.819 111.499 213.722 111.343C213.627 111.187 213.49 111.066 213.313 110.98Z" fill="#1E2022"/>
<path d="M165.138 108.805L167.355 104.221L168.903 104.97C169.263 105.144 169.525 105.351 169.691 105.591C169.859 105.831 169.945 106.087 169.949 106.359C169.953 106.632 169.89 106.904 169.76 107.174C169.629 107.444 169.455 107.662 169.238 107.83C169.022 107.998 168.769 108.092 168.477 108.113C168.186 108.133 167.862 108.056 167.505 107.884L166.395 107.347L166.634 106.855L167.726 107.383C167.972 107.502 168.19 107.555 168.38 107.542C168.571 107.529 168.734 107.467 168.871 107.354C169.011 107.241 169.125 107.093 169.214 106.91C169.302 106.726 169.347 106.545 169.349 106.367C169.352 106.19 169.297 106.024 169.186 105.869C169.076 105.713 168.896 105.574 168.647 105.454L167.672 104.982L165.693 109.073L165.138 108.805ZM170.49 111.492C170.272 111.386 170.094 111.25 169.956 111.082C169.819 110.912 169.736 110.724 169.707 110.517C169.679 110.308 169.72 110.092 169.828 109.868C169.923 109.671 170.039 109.531 170.176 109.446C170.313 109.359 170.464 109.313 170.628 109.305C170.791 109.298 170.96 109.315 171.133 109.356C171.308 109.397 171.481 109.445 171.651 109.502C171.873 109.576 172.052 109.638 172.188 109.687C172.326 109.736 172.434 109.757 172.51 109.752C172.588 109.747 172.647 109.702 172.688 109.617L172.697 109.599C172.804 109.378 172.826 109.178 172.765 108.997C172.705 108.817 172.553 108.668 172.31 108.55C172.058 108.428 171.833 108.388 171.637 108.429C171.44 108.47 171.282 108.539 171.163 108.637L170.749 108.215C170.939 108.05 171.137 107.945 171.343 107.9C171.55 107.855 171.754 107.853 171.954 107.892C172.156 107.931 172.344 107.992 172.517 108.076C172.627 108.13 172.748 108.204 172.878 108.3C173.01 108.396 173.124 108.516 173.219 108.662C173.316 108.808 173.37 108.984 173.381 109.19C173.392 109.396 173.331 109.635 173.199 109.908L172.104 112.173L171.576 111.918L171.801 111.452L171.774 111.439C171.702 111.496 171.604 111.547 171.479 111.592C171.355 111.637 171.209 111.655 171.041 111.648C170.873 111.64 170.69 111.588 170.49 111.492ZM170.8 111.056C171.009 111.157 171.204 111.201 171.387 111.189C171.572 111.176 171.732 111.123 171.868 111.029C172.005 110.935 172.108 110.817 172.178 110.673L172.411 110.19C172.376 110.206 172.315 110.207 172.228 110.192C172.143 110.177 172.048 110.154 171.941 110.123C171.837 110.091 171.736 110.058 171.638 110.026C171.542 109.992 171.463 109.965 171.403 109.945C171.257 109.897 171.115 109.864 170.976 109.846C170.839 109.828 170.715 109.841 170.604 109.885C170.495 109.928 170.408 110.016 170.343 110.151C170.254 110.334 170.255 110.506 170.345 110.665C170.438 110.824 170.589 110.954 170.8 111.056ZM173.112 114.251C173.022 114.207 172.946 114.161 172.883 114.113C172.82 114.065 172.778 114.028 172.757 114.002L173.117 113.601C173.229 113.696 173.337 113.763 173.44 113.802C173.542 113.84 173.651 113.839 173.765 113.796C173.88 113.756 174.012 113.664 174.161 113.521L174.389 113.3L174.789 109.23L175.362 109.507L174.986 112.705L175.022 112.722L177.295 110.442L177.868 110.719L174.504 113.952C174.353 114.098 174.201 114.206 174.047 114.275C173.893 114.346 173.738 114.379 173.583 114.374C173.429 114.369 173.272 114.328 173.112 114.251ZM177.353 114.711L179.015 111.274L179.526 111.521L179.266 112.058L179.311 112.079C179.471 111.93 179.655 111.844 179.864 111.82C180.074 111.794 180.29 111.835 180.514 111.943C180.741 112.053 180.905 112.196 181.005 112.372C181.109 112.547 181.158 112.746 181.155 112.971L181.19 112.988C181.364 112.853 181.565 112.776 181.791 112.757C182.018 112.736 182.255 112.785 182.501 112.904C182.809 113.053 183.013 113.271 183.116 113.558C183.219 113.843 183.173 114.188 182.977 114.592L181.865 116.893L181.337 116.638L182.449 114.337C182.572 114.083 182.59 113.869 182.504 113.693C182.418 113.517 182.281 113.383 182.093 113.292C181.851 113.175 181.628 113.158 181.425 113.24C181.222 113.32 181.067 113.472 180.96 113.694L179.877 115.932L179.34 115.672L180.479 113.318C180.573 113.123 180.586 112.934 180.517 112.754C180.449 112.572 180.314 112.432 180.114 112.336C179.977 112.269 179.831 112.244 179.677 112.259C179.523 112.275 179.379 112.33 179.243 112.425C179.109 112.519 179.002 112.65 178.92 112.818L177.881 114.967L177.353 114.711ZM184.687 118.346C184.356 118.186 184.105 117.975 183.936 117.712C183.769 117.449 183.684 117.154 183.682 116.827C183.682 116.5 183.767 116.16 183.937 115.808C184.108 115.456 184.322 115.176 184.58 114.97C184.84 114.763 185.123 114.64 185.427 114.601C185.733 114.561 186.041 114.616 186.352 114.766C186.531 114.853 186.693 114.968 186.839 115.112C186.985 115.256 187.097 115.43 187.175 115.634C187.254 115.836 187.283 116.067 187.262 116.328C187.241 116.588 187.153 116.879 186.998 117.199L186.889 117.423L184.24 116.142L184.461 115.685L186.573 116.707C186.667 116.513 186.712 116.321 186.708 116.131C186.705 115.942 186.654 115.77 186.555 115.613C186.458 115.457 186.313 115.333 186.122 115.241C185.912 115.139 185.705 115.103 185.501 115.133C185.299 115.163 185.117 115.24 184.954 115.366C184.792 115.492 184.665 115.65 184.574 115.839L184.427 116.144C184.301 116.403 184.239 116.645 184.242 116.869C184.246 117.092 184.306 117.289 184.422 117.461C184.538 117.632 184.703 117.768 184.916 117.872C185.055 117.939 185.19 117.98 185.321 117.995C185.453 118.01 185.58 117.997 185.7 117.958C185.821 117.917 185.933 117.848 186.035 117.75L186.476 118.14C186.339 118.287 186.175 118.396 185.985 118.466C185.795 118.534 185.59 118.56 185.368 118.543C185.147 118.524 184.92 118.459 184.687 118.346ZM188.927 117.757L187.927 119.824L187.398 119.569L189.061 116.132L189.571 116.378L189.311 116.915L189.356 116.937C189.521 116.801 189.711 116.72 189.926 116.694C190.142 116.666 190.38 116.714 190.64 116.84C190.873 116.953 191.053 117.099 191.182 117.279C191.311 117.457 191.377 117.666 191.381 117.905C191.386 118.143 191.317 118.408 191.176 118.701L190.12 120.885L189.592 120.629L190.63 118.481C190.761 118.211 190.793 117.967 190.725 117.748C190.659 117.528 190.503 117.359 190.258 117.241C190.09 117.159 189.921 117.123 189.753 117.132C189.587 117.141 189.431 117.198 189.287 117.301C189.143 117.405 189.023 117.557 188.927 117.757ZM194.692 118.855L194.476 119.302L192.694 118.441L192.911 117.993L194.692 118.855ZM193.828 117.421L194.356 117.676L192.772 120.952C192.7 121.102 192.667 121.224 192.675 121.32C192.684 121.414 192.717 121.491 192.773 121.549C192.832 121.607 192.9 121.655 192.977 121.692C193.036 121.721 193.085 121.741 193.125 121.753C193.166 121.763 193.199 121.772 193.223 121.778L193.101 122.304C193.059 122.301 193.002 122.29 192.932 122.272C192.86 122.256 192.775 122.224 192.677 122.177C192.528 122.105 192.397 122.002 192.285 121.868C192.174 121.736 192.104 121.581 192.073 121.404C192.044 121.228 192.078 121.04 192.175 120.84L193.828 117.421ZM201.78 122.636L201.225 122.367C201.27 122.192 201.28 122.024 201.256 121.863C201.234 121.704 201.185 121.555 201.108 121.416C201.034 121.277 200.936 121.153 200.816 121.043C200.696 120.934 200.56 120.842 200.408 120.768C200.131 120.634 199.845 120.583 199.552 120.614C199.261 120.646 198.982 120.767 198.718 120.975C198.454 121.185 198.227 121.488 198.035 121.885C197.843 122.282 197.746 122.648 197.746 122.985C197.747 123.322 197.825 123.615 197.981 123.863C198.138 124.113 198.356 124.304 198.633 124.439C198.785 124.512 198.942 124.562 199.102 124.588C199.263 124.614 199.42 124.614 199.575 124.587C199.731 124.56 199.879 124.505 200.018 124.424C200.16 124.341 200.285 124.228 200.394 124.086L200.949 124.355C200.794 124.569 200.617 124.741 200.417 124.873C200.217 125.005 200.004 125.096 199.777 125.146C199.551 125.195 199.319 125.204 199.082 125.172C198.847 125.141 198.613 125.07 198.382 124.958C197.991 124.769 197.69 124.505 197.478 124.167C197.266 123.829 197.158 123.442 197.153 123.005C197.149 122.568 197.264 122.109 197.498 121.625C197.731 121.142 198.021 120.766 198.365 120.499C198.71 120.231 199.081 120.075 199.478 120.031C199.874 119.988 200.268 120.06 200.659 120.249C200.89 120.361 201.091 120.5 201.262 120.665C201.434 120.831 201.57 121.018 201.672 121.228C201.774 121.435 201.835 121.658 201.856 121.897C201.878 122.134 201.852 122.38 201.78 122.636ZM202.894 127.15C202.583 127 202.347 126.795 202.184 126.534C202.023 126.274 201.941 125.979 201.938 125.65C201.936 125.322 202.022 124.98 202.193 124.625C202.366 124.267 202.582 123.986 202.841 123.781C203.102 123.578 203.384 123.458 203.688 123.423C203.994 123.389 204.302 123.447 204.612 123.597C204.922 123.747 205.158 123.952 205.32 124.212C205.482 124.473 205.564 124.768 205.565 125.098C205.567 125.429 205.481 125.773 205.308 126.131C205.137 126.486 204.921 126.765 204.661 126.967C204.403 127.17 204.121 127.288 203.815 127.323C203.511 127.358 203.204 127.3 202.894 127.15ZM203.123 126.676C203.359 126.79 203.582 126.823 203.793 126.776C204.003 126.729 204.193 126.624 204.361 126.463C204.529 126.301 204.669 126.106 204.78 125.876C204.891 125.646 204.958 125.414 204.981 125.18C205.004 124.947 204.969 124.732 204.876 124.536C204.783 124.34 204.618 124.185 204.383 124.071C204.147 123.957 203.924 123.924 203.712 123.973C203.501 124.022 203.311 124.128 203.142 124.291C202.973 124.454 202.832 124.65 202.721 124.88C202.61 125.11 202.544 125.341 202.521 125.573C202.499 125.806 202.535 126.019 202.629 126.213C202.723 126.408 202.887 126.562 203.123 126.676ZM209.467 126.949L208.928 126.854C208.936 126.761 208.929 126.663 208.907 126.56C208.887 126.456 208.84 126.356 208.765 126.259C208.691 126.162 208.576 126.077 208.423 126.003C208.212 125.901 208.014 125.865 207.826 125.894C207.642 125.922 207.513 126.01 207.442 126.158C207.378 126.289 207.376 126.416 207.435 126.538C207.493 126.66 207.612 126.796 207.79 126.945L208.24 127.317C208.511 127.54 208.685 127.765 208.761 127.992C208.839 128.217 208.819 128.449 208.703 128.689C208.608 128.886 208.466 129.035 208.277 129.135C208.09 129.236 207.875 129.283 207.63 129.275C207.385 129.267 207.129 129.199 206.862 129.07C206.512 128.9 206.258 128.684 206.102 128.42C205.946 128.157 205.908 127.864 205.988 127.542L206.55 127.659C206.508 127.868 206.532 128.05 206.62 128.207C206.709 128.364 206.862 128.495 207.078 128.6C207.325 128.719 207.545 128.761 207.741 128.727C207.938 128.691 208.072 128.6 208.144 128.452C208.202 128.333 208.208 128.213 208.163 128.092C208.12 127.969 208.021 127.846 207.867 127.722L207.359 127.311C207.081 127.084 206.905 126.856 206.833 126.628C206.764 126.4 206.786 126.167 206.901 125.929C206.995 125.735 207.132 125.59 207.313 125.494C207.496 125.398 207.702 125.353 207.933 125.36C208.165 125.367 208.402 125.429 208.643 125.546C208.984 125.711 209.215 125.914 209.336 126.157C209.46 126.401 209.503 126.665 209.467 126.949ZM212.642 127.535L212.425 127.982L210.644 127.121L210.861 126.673L212.642 127.535ZM211.778 126.101L212.306 126.356L210.722 129.633C210.65 129.782 210.617 129.904 210.624 130C210.634 130.094 210.667 130.171 210.723 130.23C210.782 130.287 210.85 130.335 210.927 130.373C210.985 130.401 211.035 130.421 211.075 130.433C211.116 130.443 211.148 130.452 211.173 130.458L211.051 130.985C211.009 130.981 210.952 130.97 210.882 130.952C210.81 130.936 210.725 130.904 210.627 130.857C210.478 130.785 210.347 130.682 210.235 130.548C210.124 130.416 210.053 130.261 210.023 130.084C209.994 129.908 210.028 129.72 210.124 129.52L211.778 126.101Z" fill="#77838F"/>
</g>
<path fill-rule="evenodd" clip-rule="evenodd" d="M185.091 228.254L190.498 236.522C173.149 249.309 149.477 252.298 128.73 242.265C108.29 232.381 95.9935 212.422 94.9188 191.235L104.74 190.168C105.443 208.087 115.756 225.039 133.023 233.388C150.54 241.859 170.554 239.223 185.091 228.254Z" fill="#EB55A5"/>
<path fill-rule="evenodd" clip-rule="evenodd" d="M179.043 133.301L174.747 142.184C150.221 131.572 121.465 142.111 109.717 166.403C106.678 172.689 105.067 179.295 104.757 185.854L94.8554 186.931C95.0335 178.577 96.9677 170.126 100.843 162.112C114.962 132.916 149.612 120.323 179.043 133.301Z" fill="#4EACF4"/>
<path fill-rule="evenodd" clip-rule="evenodd" d="M208.875 214.353C205.147 222.063 199.986 228.615 193.869 233.844L188.418 225.511C193.112 221.286 197.082 216.099 200.001 210.062C211.748 185.77 202.152 156.685 178.605 144.05L182.901 135.167C211.348 150.177 222.993 185.158 208.875 214.353Z" fill="#6F21D1"/>
<circle cx="111.773" cy="245.173" r="2" transform="rotate(25.8072 111.773 245.173)" fill="#EFEFEF"/>
<circle cx="117.175" cy="247.785" r="2" transform="rotate(25.8072 117.175 247.785)" fill="#EFEFEF"/>
<rect x="121.646" y="247.726" width="8" height="4" rx="2" transform="rotate(25.8072 121.646 247.726)" fill="#6F21D1"/>
<circle cx="131.579" cy="254.751" r="2" transform="rotate(25.8072 131.579 254.751)" fill="#EFEFEF"/>
<circle cx="136.98" cy="257.363" r="2" transform="rotate(25.8072 136.98 257.363)" fill="#EFEFEF"/>
<g clip-path="url(#clip4_4_110)">
<path d="M102.099 260.085L104.869 254.356L105.236 254.534L102.466 260.263L102.099 260.085ZM105.158 256.688C105.237 256.465 105.217 256.253 105.101 256.053C104.985 255.851 104.795 255.687 104.533 255.56C104.345 255.469 104.168 255.42 104.002 255.414C103.836 255.406 103.691 255.435 103.565 255.501C103.441 255.566 103.348 255.664 103.285 255.793C103.232 255.902 103.212 256.009 103.225 256.112C103.239 256.217 103.275 256.316 103.332 256.41C103.392 256.503 103.462 256.591 103.541 256.674C103.622 256.755 103.701 256.829 103.78 256.894L104.171 257.227C104.3 257.334 104.427 257.455 104.551 257.59C104.675 257.726 104.778 257.875 104.861 258.038C104.944 258.202 104.99 258.377 104.999 258.564C105.01 258.751 104.966 258.948 104.866 259.153C104.74 259.413 104.562 259.611 104.33 259.748C104.1 259.885 103.83 259.95 103.52 259.944C103.212 259.938 102.878 259.849 102.52 259.676C102.177 259.51 101.907 259.312 101.709 259.082C101.511 258.852 101.389 258.602 101.344 258.334C101.3 258.064 101.337 257.787 101.455 257.504L102.149 257.84C102.083 258.012 102.069 258.176 102.11 258.332C102.153 258.487 102.235 258.627 102.357 258.752C102.481 258.876 102.632 258.981 102.809 259.067C103.005 259.162 103.193 259.215 103.375 259.228C103.559 259.239 103.722 259.211 103.863 259.143C104.005 259.074 104.112 258.965 104.184 258.816C104.25 258.68 104.265 258.55 104.229 258.426C104.195 258.303 104.126 258.181 104.022 258.061C103.92 257.941 103.797 257.82 103.654 257.698L103.184 257.288C102.865 257.01 102.645 256.723 102.524 256.425C102.404 256.128 102.422 255.82 102.576 255.5C102.704 255.236 102.887 255.04 103.126 254.913C103.364 254.785 103.632 254.726 103.929 254.735C104.227 254.743 104.53 254.822 104.837 254.97C105.148 255.12 105.395 255.307 105.58 255.531C105.766 255.755 105.881 255.996 105.926 256.253C105.972 256.509 105.938 256.762 105.825 257.011L105.158 256.688ZM106.95 261.801C106.669 261.666 106.443 261.49 106.271 261.274C106.102 261.058 105.996 260.823 105.955 260.569C105.914 260.316 105.948 260.065 106.056 259.817L106.728 260.142C106.649 260.347 106.658 260.551 106.755 260.754C106.851 260.958 107.01 261.113 107.231 261.219C107.407 261.305 107.583 261.34 107.757 261.325C107.934 261.309 108.096 261.248 108.243 261.143C108.391 261.038 108.51 260.893 108.599 260.71C108.689 260.523 108.729 260.338 108.719 260.152C108.709 259.967 108.654 259.799 108.552 259.647C108.452 259.495 108.312 259.375 108.131 259.285C107.992 259.218 107.841 259.175 107.677 259.155C107.514 259.134 107.37 259.142 107.246 259.178L106.658 258.778L108.033 256.593L110.552 257.811L110.266 258.404L108.321 257.464L107.555 258.676L107.582 258.689C107.714 258.646 107.867 258.631 108.043 258.644C108.22 258.658 108.394 258.706 108.564 258.788C108.843 258.923 109.059 259.11 109.213 259.348C109.368 259.587 109.453 259.851 109.467 260.141C109.484 260.431 109.419 260.724 109.274 261.02C109.132 261.318 108.937 261.55 108.689 261.717C108.442 261.885 108.167 261.978 107.863 261.997C107.561 262.015 107.257 261.95 106.95 261.801ZM110.842 262.833L110.69 263.061C110.581 263.229 110.453 263.397 110.305 263.565C110.159 263.735 110.017 263.89 109.879 264.03C109.743 264.17 109.633 264.281 109.55 264.362L109.075 264.133C109.14 264.049 109.227 263.937 109.338 263.796C109.448 263.655 109.566 263.496 109.693 263.318C109.819 263.14 109.94 262.954 110.053 262.761L110.197 262.521L110.842 262.833ZM113.328 264.886C113.125 264.784 112.942 264.649 112.778 264.482C112.616 264.315 112.495 264.109 112.414 263.864C112.334 263.619 112.313 263.332 112.353 263.003C112.394 262.675 112.516 262.3 112.72 261.878C112.914 261.478 113.125 261.142 113.354 260.87C113.585 260.598 113.827 260.392 114.081 260.252C114.335 260.11 114.596 260.035 114.864 260.026C115.131 260.017 115.398 260.077 115.663 260.205C115.936 260.337 116.153 260.508 116.313 260.718C116.473 260.928 116.572 261.16 116.612 261.413C116.653 261.666 116.633 261.923 116.552 262.182L115.87 261.851C115.916 261.638 115.899 261.438 115.821 261.251C115.742 261.063 115.592 260.916 115.371 260.81C115.036 260.647 114.703 260.667 114.374 260.868C114.046 261.071 113.755 261.432 113.502 261.952L113.535 261.968C113.677 261.876 113.828 261.813 113.987 261.777C114.148 261.741 114.312 261.733 114.479 261.753C114.648 261.772 114.812 261.821 114.972 261.898C115.238 262.026 115.446 262.207 115.598 262.441C115.753 262.674 115.839 262.935 115.858 263.224C115.876 263.512 115.815 263.803 115.674 264.095C115.532 264.388 115.338 264.621 115.09 264.794C114.844 264.967 114.568 265.066 114.263 265.089C113.958 265.111 113.646 265.043 113.328 264.886ZM113.607 264.303C113.783 264.388 113.962 264.421 114.142 264.401C114.323 264.382 114.489 264.319 114.64 264.211C114.791 264.104 114.911 263.96 114.998 263.78C115.083 263.604 115.121 263.424 115.112 263.241C115.104 263.059 115.053 262.892 114.956 262.741C114.862 262.59 114.727 262.473 114.553 262.388C114.42 262.324 114.285 262.29 114.147 262.286C114.01 262.282 113.878 262.305 113.75 262.353C113.621 262.402 113.504 262.472 113.399 262.565C113.295 262.656 113.213 262.766 113.151 262.895C113.068 263.066 113.031 263.244 113.039 263.429C113.049 263.614 113.101 263.785 113.197 263.941C113.295 264.097 113.431 264.218 113.607 264.303ZM116.369 266.279L120.283 263.29L120.3 263.256L117.986 262.137L118.272 261.544L121.303 263.01L121.006 263.623L117.092 266.629L116.369 266.279ZM121.775 268.987C121.422 268.814 121.165 268.575 121.004 268.269C120.843 267.963 120.781 267.601 120.819 267.183C120.858 266.765 120.997 266.307 121.238 265.809C121.478 265.312 121.75 264.92 122.053 264.632C122.358 264.345 122.68 264.169 123.02 264.105C123.362 264.042 123.708 264.095 124.058 264.265C124.409 264.435 124.664 264.673 124.825 264.981C124.986 265.287 125.048 265.648 125.01 266.065C124.975 266.48 124.837 266.936 124.597 267.433C124.355 267.933 124.083 268.328 123.779 268.617C123.476 268.905 123.154 269.081 122.813 269.147C122.473 269.21 122.127 269.157 121.775 268.987ZM122.064 268.389C122.374 268.539 122.69 268.505 123.011 268.287C123.333 268.069 123.633 267.674 123.91 267.101C124.094 266.72 124.209 266.379 124.256 266.078C124.304 265.776 124.287 265.521 124.203 265.313C124.122 265.104 123.979 264.95 123.775 264.851C123.466 264.702 123.15 264.737 122.827 264.956C122.503 265.175 122.203 265.57 121.925 266.141C121.74 266.523 121.624 266.865 121.575 267.167C121.529 267.469 121.547 267.723 121.629 267.93C121.711 268.136 121.856 268.289 122.064 268.389ZM124.997 270.504C124.875 270.445 124.791 270.35 124.744 270.221C124.699 270.091 124.706 269.964 124.766 269.84C124.825 269.717 124.92 269.634 125.05 269.59C125.18 269.545 125.307 269.552 125.429 269.611C125.551 269.67 125.635 269.765 125.681 269.895C125.727 270.025 125.72 270.15 125.661 270.273C125.622 270.355 125.564 270.42 125.489 270.468C125.417 270.516 125.337 270.544 125.25 270.552C125.164 270.559 125.079 270.543 124.997 270.504ZM128.195 272.092C127.843 271.919 127.586 271.68 127.424 271.374C127.263 271.068 127.202 270.706 127.24 270.288C127.278 269.87 127.418 269.412 127.659 268.914C127.899 268.417 128.171 268.024 128.474 267.737C128.778 267.449 129.1 267.274 129.441 267.21C129.782 267.147 130.128 267.2 130.479 267.37C130.829 267.539 131.085 267.778 131.245 268.086C131.407 268.392 131.468 268.753 131.431 269.169C131.396 269.585 131.258 270.041 131.018 270.538C130.776 271.038 130.503 271.432 130.2 271.722C129.896 272.01 129.575 272.186 129.234 272.251C128.894 272.315 128.548 272.262 128.195 272.092ZM128.484 271.494C128.795 271.644 129.11 271.61 129.431 271.392C129.754 271.174 130.054 270.779 130.331 270.206C130.515 269.825 130.63 269.484 130.676 269.183C130.725 268.88 130.707 268.625 130.624 268.417C130.543 268.209 130.4 268.055 130.195 267.956C129.886 267.807 129.57 267.842 129.247 268.061C128.924 268.28 128.623 268.675 128.346 269.246C128.161 269.628 128.044 269.97 127.996 270.272C127.949 270.574 127.967 270.828 128.049 271.035C128.132 271.241 128.277 271.394 128.484 271.494ZM132.713 274.277C132.361 274.104 132.104 273.865 131.942 273.559C131.781 273.252 131.72 272.89 131.758 272.473C131.796 272.055 131.936 271.597 132.177 271.098C132.417 270.602 132.689 270.209 132.992 269.921C133.296 269.634 133.618 269.459 133.959 269.395C134.3 269.332 134.646 269.385 134.997 269.555C135.347 269.724 135.603 269.963 135.763 270.27C135.925 270.577 135.986 270.938 135.949 271.354C135.914 271.77 135.776 272.226 135.536 272.723C135.294 273.223 135.021 273.617 134.718 273.906C134.415 274.194 134.093 274.371 133.752 274.436C133.412 274.5 133.066 274.447 132.713 274.277ZM133.002 273.679C133.313 273.829 133.628 273.795 133.949 273.576C134.272 273.359 134.572 272.963 134.849 272.391C135.033 272.01 135.148 271.669 135.194 271.368C135.243 271.065 135.225 270.81 135.142 270.602C135.061 270.394 134.918 270.24 134.713 270.141C134.404 269.992 134.088 270.027 133.765 270.246C133.442 270.465 133.142 270.86 132.864 271.431C132.679 271.813 132.562 272.155 132.514 272.457C132.467 272.759 132.485 273.013 132.567 273.22C132.65 273.426 132.795 273.579 133.002 273.679Z" fill="#1E2022"/>
<path d="M82.5507 260.377L83.2131 260.697L82.9309 265.255L82.9846 265.281L86.3819 262.229L87.0443 262.55L84.828 267.133L84.3088 266.882L85.9927 263.4L85.9479 263.378L82.8318 266.168L82.3305 265.925L82.5822 261.75L82.5374 261.729L80.8535 265.211L80.3344 264.96L82.5507 260.377ZM86.0361 269.308C85.9466 269.264 85.8704 269.218 85.8075 269.169C85.7439 269.122 85.7019 269.085 85.6815 269.059L86.0409 268.658C86.1533 268.753 86.2609 268.82 86.3637 268.858C86.4665 268.897 86.5751 268.895 86.6894 268.853C86.8045 268.813 86.9363 268.721 87.0849 268.578L87.3132 268.357L87.713 264.287L88.2859 264.564L87.9102 267.762L87.946 267.779L90.2194 265.499L90.7923 265.776L87.4286 269.009C87.2771 269.155 87.1247 269.262 86.9715 269.332C86.8175 269.403 86.6626 269.436 86.5069 269.43C86.3527 269.426 86.1958 269.385 86.0361 269.308ZM94.299 266.665L94.5371 266.173L97.9745 267.835L97.7364 268.328L96.2952 267.631L94.317 271.721L93.762 271.453L95.7402 267.362L94.299 266.665ZM97.8566 273.521C97.5462 273.371 97.3097 273.166 97.1469 272.905C96.9855 272.645 96.9035 272.35 96.9006 272.021C96.8992 271.693 96.9844 271.351 97.1561 270.996C97.3292 270.638 97.5453 270.357 97.8042 270.152C98.0646 269.949 98.3469 269.829 98.6511 269.794C98.9567 269.76 99.2647 269.818 99.5751 269.968C99.8854 270.118 100.121 270.323 100.283 270.583C100.445 270.844 100.527 271.14 100.528 271.469C100.53 271.8 100.444 272.144 100.271 272.502C100.099 272.857 99.8838 273.136 99.6241 273.338C99.3659 273.541 99.0839 273.659 98.7783 273.694C98.4741 273.729 98.1669 273.672 97.8566 273.521ZM98.086 273.047C98.3217 273.161 98.5449 273.194 98.7555 273.147C98.9661 273.1 99.1556 272.995 99.3239 272.834C99.4922 272.672 99.632 272.477 99.7431 272.247C99.8542 272.017 99.9211 271.785 99.944 271.552C99.9668 271.318 99.9318 271.103 99.8387 270.907C99.7457 270.711 99.5814 270.556 99.3456 270.442C99.1099 270.328 98.8864 270.296 98.675 270.344C98.4637 270.393 98.2735 270.499 98.1045 270.662C97.9354 270.825 97.7953 271.022 97.6842 271.251C97.5731 271.481 97.5065 271.712 97.4844 271.944C97.4622 272.177 97.498 272.39 97.5918 272.584C97.6855 272.779 97.8503 272.933 98.086 273.047ZM103.862 272.096L103.646 272.544L101.864 271.682L102.081 271.235L103.862 272.096ZM102.998 270.662L103.526 270.918L101.942 274.194C101.87 274.343 101.837 274.465 101.845 274.561C101.854 274.656 101.887 274.732 101.943 274.791C102.002 274.849 102.07 274.896 102.148 274.934C102.206 274.962 102.255 274.982 102.295 274.994C102.336 275.005 102.369 275.013 102.393 275.02L102.271 275.546C102.229 275.542 102.173 275.531 102.102 275.514C102.03 275.498 101.946 275.466 101.847 275.418C101.698 275.346 101.567 275.243 101.455 275.11C101.344 274.977 101.274 274.822 101.243 274.646C101.214 274.47 101.248 274.282 101.345 274.082L102.998 270.662ZM104.417 276.705C104.199 276.6 104.021 276.463 103.884 276.295C103.746 276.126 103.664 275.937 103.635 275.73C103.607 275.522 103.647 275.305 103.755 275.082C103.85 274.885 103.966 274.744 104.103 274.659C104.241 274.573 104.391 274.526 104.555 274.519C104.719 274.511 104.887 274.528 105.06 274.57C105.236 274.61 105.408 274.659 105.578 274.715C105.8 274.789 105.979 274.851 106.115 274.9C106.254 274.949 106.361 274.971 106.438 274.965C106.515 274.96 106.575 274.915 106.616 274.83L106.625 274.812C106.731 274.592 106.754 274.391 106.692 274.21C106.632 274.03 106.48 273.881 106.237 273.764C105.985 273.642 105.761 273.601 105.564 273.642C105.367 273.684 105.21 273.753 105.091 273.85L104.676 273.429C104.867 273.263 105.065 273.158 105.27 273.114C105.478 273.069 105.682 273.066 105.882 273.106C106.084 273.145 106.271 273.206 106.444 273.29C106.555 273.343 106.675 273.418 106.805 273.514C106.938 273.609 107.052 273.73 107.147 273.875C107.244 274.021 107.298 274.197 107.308 274.403C107.319 274.609 107.259 274.849 107.127 275.122L106.032 277.386L105.503 277.131L105.728 276.665L105.702 276.652C105.63 276.71 105.531 276.761 105.407 276.805C105.282 276.85 105.136 276.869 104.968 276.861C104.801 276.854 104.617 276.802 104.417 276.705ZM104.727 276.27C104.936 276.371 105.132 276.415 105.315 276.402C105.499 276.39 105.659 276.337 105.795 276.242C105.933 276.148 106.036 276.03 106.105 275.887L106.339 275.403C106.303 275.419 106.242 275.42 106.155 275.406C106.071 275.391 105.975 275.367 105.869 275.336C105.765 275.304 105.663 275.272 105.565 275.239C105.469 275.205 105.391 275.179 105.331 275.159C105.185 275.11 105.042 275.077 104.903 275.06C104.767 275.042 104.643 275.054 104.531 275.098C104.422 275.141 104.335 275.23 104.27 275.364C104.182 275.547 104.182 275.719 104.273 275.879C104.365 276.038 104.517 276.168 104.727 276.27ZM110.19 273.742L107.974 278.326L107.446 278.07L109.662 273.487L110.19 273.742ZM111.685 280.12L113.902 275.537L116.668 276.875L116.43 277.367L114.219 276.298L113.47 277.847L115.537 278.846L115.299 279.339L113.232 278.339L112.478 279.896L114.725 280.983L114.487 281.475L111.685 280.12ZM117.886 278.878L118.03 280.681L119.533 279.674L120.142 279.969L118.201 281.151L118.48 283.406L117.871 283.112L117.693 281.38L116.224 282.315L115.615 282.021L117.539 280.83L117.278 278.583L117.886 278.878ZM119.06 285.277L121.346 280.551L121.856 280.797L121.592 281.344L121.655 281.374C121.722 281.333 121.813 281.283 121.926 281.223C122.042 281.163 122.182 281.128 122.347 281.118C122.515 281.107 122.71 281.155 122.934 281.264C123.223 281.403 123.444 281.599 123.594 281.851C123.745 282.102 123.818 282.391 123.814 282.716C123.809 283.042 123.72 283.385 123.545 283.746C123.369 284.11 123.154 284.395 122.901 284.603C122.649 284.808 122.378 284.931 122.088 284.971C121.799 285.01 121.511 284.96 121.224 284.822C121.004 284.715 120.844 284.593 120.747 284.455C120.65 284.317 120.589 284.183 120.563 284.054C120.537 283.924 120.52 283.818 120.512 283.737L120.467 283.715L119.588 285.533L119.06 285.277ZM121.034 282.52C120.908 282.78 120.836 283.027 120.816 283.263C120.797 283.496 120.833 283.705 120.925 283.887C121.018 284.068 121.17 284.21 121.382 284.313C121.603 284.419 121.815 284.45 122.019 284.405C122.226 284.36 122.414 284.256 122.584 284.093C122.757 283.93 122.903 283.726 123.021 283.481C123.138 283.24 123.206 283.004 123.225 282.774C123.247 282.543 123.21 282.335 123.116 282.149C123.024 281.963 122.866 281.816 122.642 281.708C122.427 281.604 122.22 281.571 122.021 281.609C121.823 281.646 121.64 281.743 121.472 281.901C121.304 282.057 121.158 282.264 121.034 282.52ZM125.38 286.831C125.049 286.671 124.799 286.46 124.629 286.198C124.462 285.934 124.377 285.639 124.375 285.313C124.375 284.985 124.461 284.645 124.631 284.293C124.801 283.941 125.015 283.662 125.274 283.455C125.534 283.248 125.816 283.125 126.12 283.086C126.427 283.046 126.735 283.102 127.045 283.252C127.224 283.338 127.387 283.454 127.532 283.598C127.678 283.742 127.79 283.916 127.868 284.119C127.947 284.321 127.976 284.552 127.955 284.813C127.934 285.073 127.846 285.364 127.691 285.685L127.583 285.908L124.933 284.627L125.154 284.171L127.267 285.192C127.36 284.998 127.405 284.806 127.401 284.617C127.399 284.428 127.348 284.255 127.249 284.098C127.151 283.942 127.007 283.818 126.816 283.726C126.605 283.624 126.398 283.589 126.194 283.619C125.992 283.648 125.81 283.726 125.648 283.852C125.486 283.977 125.359 284.135 125.267 284.325L125.12 284.629C124.995 284.889 124.933 285.13 124.935 285.354C124.94 285.577 125 285.775 125.115 285.947C125.232 286.117 125.397 286.254 125.61 286.357C125.749 286.424 125.883 286.465 126.014 286.481C126.147 286.495 126.273 286.483 126.394 286.443C126.515 286.402 126.626 286.333 126.729 286.235L127.17 286.625C127.033 286.772 126.869 286.881 126.678 286.951C126.489 287.019 126.283 287.045 126.061 287.028C125.84 287.009 125.613 286.944 125.38 286.831ZM129.62 286.242L128.62 288.31L128.092 288.054L129.754 284.617L130.264 284.864L130.005 285.401L130.049 285.422C130.214 285.287 130.405 285.206 130.62 285.179C130.836 285.151 131.074 285.2 131.333 285.325C131.566 285.438 131.747 285.584 131.875 285.764C132.004 285.942 132.071 286.151 132.075 286.391C132.079 286.628 132.011 286.894 131.869 287.186L130.813 289.37L130.285 289.115L131.324 286.966C131.454 286.696 131.486 286.452 131.419 286.234C131.352 286.014 131.196 285.844 130.952 285.726C130.783 285.645 130.615 285.608 130.447 285.617C130.28 285.627 130.125 285.683 129.981 285.787C129.837 285.89 129.717 286.042 129.62 286.242ZM135.953 288.564L135.414 288.469C135.422 288.376 135.415 288.278 135.393 288.175C135.373 288.071 135.326 287.971 135.251 287.874C135.177 287.777 135.063 287.692 134.909 287.618C134.699 287.516 134.5 287.48 134.313 287.509C134.128 287.537 134 287.625 133.928 287.773C133.865 287.904 133.862 288.031 133.921 288.153C133.98 288.275 134.098 288.411 134.277 288.56L134.726 288.932C134.997 289.155 135.171 289.38 135.248 289.606C135.325 289.832 135.305 290.064 135.189 290.304C135.094 290.501 134.952 290.65 134.764 290.75C134.577 290.851 134.361 290.898 134.116 290.89C133.871 290.882 133.616 290.814 133.348 290.684C132.998 290.515 132.744 290.299 132.588 290.035C132.432 289.772 132.394 289.479 132.474 289.157L133.036 289.274C132.995 289.482 133.018 289.665 133.106 289.822C133.195 289.979 133.348 290.11 133.565 290.215C133.811 290.334 134.031 290.376 134.227 290.342C134.424 290.306 134.559 290.215 134.63 290.067C134.688 289.948 134.694 289.828 134.65 289.707C134.606 289.584 134.507 289.461 134.353 289.337L133.846 288.926C133.567 288.699 133.391 288.471 133.32 288.243C133.25 288.015 133.272 287.782 133.387 287.544C133.481 287.35 133.618 287.205 133.799 287.109C133.982 287.013 134.188 286.968 134.419 286.975C134.651 286.982 134.888 287.044 135.13 287.161C135.47 287.326 135.701 287.529 135.823 287.772C135.946 288.016 135.989 288.28 135.953 288.564ZM137.378 292.633C137.046 292.473 136.796 292.261 136.626 291.999C136.459 291.736 136.375 291.441 136.372 291.114C136.373 290.786 136.458 290.447 136.628 290.095C136.798 289.742 137.012 289.463 137.271 289.257C137.531 289.049 137.813 288.926 138.117 288.887C138.424 288.848 138.732 288.903 139.042 289.053C139.221 289.14 139.384 289.255 139.529 289.399C139.675 289.543 139.787 289.717 139.865 289.921C139.944 290.123 139.973 290.354 139.952 290.614C139.931 290.875 139.843 291.165 139.688 291.486L139.58 291.71L136.93 290.429L137.151 289.972L139.264 290.994C139.357 290.8 139.402 290.608 139.398 290.418C139.396 290.229 139.345 290.056 139.246 289.9C139.148 289.744 139.004 289.62 138.813 289.528C138.603 289.426 138.395 289.39 138.191 289.42C137.989 289.449 137.807 289.527 137.645 289.653C137.483 289.779 137.356 289.937 137.264 290.126L137.117 290.43C136.992 290.69 136.93 290.932 136.932 291.156C136.937 291.379 136.997 291.576 137.112 291.748C137.229 291.918 137.394 292.055 137.607 292.158C137.746 292.225 137.88 292.267 138.011 292.282C138.144 292.297 138.27 292.284 138.391 292.245C138.512 292.204 138.624 292.135 138.726 292.037L139.167 292.427C139.03 292.574 138.866 292.682 138.675 292.752C138.486 292.821 138.28 292.847 138.058 292.829C137.837 292.811 137.61 292.745 137.378 292.633ZM143.814 292.366L143.274 292.27C143.283 292.177 143.276 292.079 143.254 291.976C143.234 291.873 143.187 291.772 143.112 291.675C143.037 291.579 142.923 291.493 142.769 291.419C142.559 291.317 142.36 291.281 142.173 291.31C141.988 291.338 141.86 291.426 141.789 291.574C141.725 291.705 141.723 291.832 141.782 291.954C141.84 292.077 141.959 292.212 142.137 292.361L142.587 292.733C142.858 292.956 143.032 293.181 143.108 293.408C143.185 293.633 143.166 293.865 143.05 294.106C142.954 294.302 142.813 294.451 142.624 294.551C142.437 294.652 142.221 294.699 141.977 294.691C141.732 294.683 141.476 294.615 141.209 294.486C140.858 294.316 140.605 294.1 140.449 293.836C140.293 293.573 140.255 293.281 140.335 292.959L140.897 293.076C140.855 293.284 140.878 293.466 140.966 293.623C141.056 293.78 141.209 293.911 141.425 294.016C141.671 294.135 141.892 294.177 142.087 294.143C142.285 294.108 142.419 294.016 142.491 293.868C142.548 293.749 142.555 293.629 142.51 293.508C142.466 293.385 142.368 293.262 142.214 293.138L141.706 292.727C141.427 292.5 141.252 292.273 141.18 292.045C141.11 291.816 141.133 291.583 141.248 291.345C141.341 291.152 141.479 291.006 141.66 290.91C141.842 290.814 142.049 290.769 142.28 290.776C142.512 290.783 142.749 290.845 142.99 290.962C143.33 291.127 143.561 291.33 143.683 291.573C143.806 291.817 143.85 292.081 143.814 292.366Z" fill="#77838F"/>
</g>
</g>
</g>
<defs>
<filter id="filter0_d_4_110" x="-1.5" y="-1.5" width="334.504" height="355.89" filterUnits="userSpaceOnUse" color-interpolation-filters="sRGB">
<feFlood flood-opacity="0" result="BackgroundImageFix"/>
<feColorMatrix in="SourceAlpha" type="matrix" values="0 0 0 0 0 0 0 0 0 0 0 0 0 0 0 0 0 0 127 0" result="hardAlpha"/>
<feOffset dx="3.5" dy="3.5"/>
<feGaussianBlur stdDeviation="8.5"/>
<feComposite in2="hardAlpha" operator="out"/>
<feColorMatrix type="matrix" values="0 0 0 0 0 0 0 0 0 0.0758334 0 0 0 0 0.379167 0 0 0 0.14 0"/>
<feBlend mode="normal" in2="BackgroundImageFix" result="effect1_dropShadow_4_110"/>
<feBlend mode="normal" in="SourceGraphic" in2="effect1_dropShadow_4_110" result="shape"/>
</filter>
<filter id="filter1_d_4_110" x="176.634" y="55.9631" width="65.0663" height="45.0748" filterUnits="userSpaceOnUse" color-interpolation-filters="sRGB">
<feFlood flood-opacity="0" result="BackgroundImageFix"/>
<feColorMatrix in="SourceAlpha" type="matrix" values="0 0 0 0 0 0 0 0 0 0 0 0 0 0 0 0 0 0 127 0" result="hardAlpha"/>
<feOffset dy="2"/>
<feGaussianBlur stdDeviation="1.25"/>
<feColorMatrix type="matrix" values="0 0 0 0 0 0 0 0 0 0 0 0 0 0 0 0 0 0 0.06 0"/>
<feBlend mode="normal" in2="BackgroundImageFix" result="effect1_dropShadow_4_110"/>
<feBlend mode="normal" in="SourceGraphic" in2="effect1_dropShadow_4_110" result="shape"/>
</filter>
<clipPath id="clip0_4_110">
<rect x="123.448" y="12" width="210" height="256" rx="5.5" transform="rotate(25.8072 123.448 12)" fill="white"/>
</clipPath>
<clipPath id="clip1_4_110">
<rect width="193" height="24" fill="white" transform="translate(127.4 23.3527) rotate(25.8072)"/>
</clipPath>
<clipPath id="clip2_4_110">
<rect width="61.5" height="18.5" fill="white" transform="translate(185.511 54.7862) rotate(25.8072)"/>
</clipPath>
<clipPath id="clip3_4_110">
<rect width="59" height="22.5" fill="white" transform="translate(170.739 87.6311) rotate(25.8072)"/>
</clipPath>
<clipPath id="clip4_4_110">
<rect width="70" height="22.5" fill="white" transform="translate(88.7393 245.142) rotate(25.8072)"/>
</clipPath>
</defs>
</svg>
