<svg width="68" height="68" viewBox="0 0 68 68" fill="none" xmlns="http://www.w3.org/2000/svg">
<path d="M29.6113 41.684C29.5728 41.5127 29.574 41.3349 29.6147 41.1642C29.9315 39.7617 29.8836 37.6921 30.2001 36.0094C30.5167 34.3268 31.5601 34.5162 32.7138 34.1129C33.4502 33.8545 34.1394 33.4574 34.9238 33.0929C35.3909 32.8698 35.8747 32.6827 36.3705 32.5333C37.8393 32.1008 41.5262 33.6553 43.3119 33.9412C43.7338 34.0082 44.1497 34.1095 44.5553 34.2438L44.5634 34.2193C44.5634 34.2193 52.7071 28.6372 54.8362 27.1086C56.9653 25.5799 61.336 22.4761 61.336 22.4761L66.3139 33.9409C66.3139 33.9409 56.5403 40.4009 55.0939 41.6745C53.6476 42.9482 50.4665 44.5669 50.4665 44.5669L50.4407 44.5608C50.2465 45.4502 49.6005 46.4648 47.8196 47.4705L47.7122 47.5079C47.4174 46.8296 47.0448 46.1883 46.6017 45.5964C44.8256 42.329 37.5815 37.4874 36.9553 37.5915C36.329 37.6955 34.5994 37.9233 34.5994 37.9233C34.4722 38.3055 33.9405 38.5193 33.9405 38.5193H33.8949C33.9036 39.6753 33.5065 40.7977 32.7729 41.6908C31.6142 43.1528 29.8496 42.738 29.6113 41.684Z" fill="#FFE8BB"/>
<path d="M49.76 12.924C49.8739 13.4453 49.9178 13.9793 49.8909 14.5121C49.8855 14.6054 49.8603 14.6965 49.8171 14.7794C49.7743 14.8623 49.7141 14.9352 49.641 14.9934C49.5679 15.0516 49.4836 15.0937 49.3931 15.1171C49.3024 15.1404 49.2082 15.1444 49.116 15.1289L46.6959 14.7294C46.5477 14.7057 46.4117 14.6321 46.311 14.5209C46.21 14.4096 46.1499 14.2673 46.1407 14.1174C46.1312 13.7191 45.9873 13.3357 45.7327 13.0294C45.6286 12.9085 45.512 12.7992 45.3845 12.7033L44.6882 16.9231L45.6827 17.5249C47.0509 18.3314 47.9301 19.267 48.3201 20.3319C48.7101 21.3956 48.8138 22.5432 48.62 23.6595C48.4972 24.4455 48.2184 25.199 47.7996 25.8753C47.4004 26.5195 46.8853 27.0844 46.2804 27.5413C45.6684 27.9995 44.9687 28.3275 44.2251 28.5052C43.7423 28.6236 43.2463 28.6782 42.7492 28.6677L42.416 30.6883C42.3976 30.8003 42.3572 30.9074 42.2973 31.0038C42.2371 31.1001 42.1589 31.1837 42.0668 31.2498C41.9743 31.3159 41.8699 31.3631 41.7594 31.3888C41.6489 31.4146 41.5347 31.4183 41.4225 31.3998C41.3106 31.3813 41.2035 31.3409 41.1073 31.281C41.0108 31.221 40.9271 31.1427 40.8612 31.0505C40.7952 30.9582 40.748 30.8539 40.7221 30.7434C40.6966 30.6329 40.6929 30.5184 40.7112 30.4065L41.0407 28.4107C39.852 28.0948 38.8008 27.3946 38.0514 26.4193C37.6866 25.9586 37.4006 25.4406 37.2055 24.8862C37.1456 24.7213 37.0919 24.552 37.0453 24.3762C36.9233 23.9189 36.8583 23.4483 36.8512 22.9751C36.8478 22.8213 36.8781 22.6687 36.9403 22.528C37.0025 22.3874 37.0946 22.2621 37.2109 22.1612C37.3269 22.0602 37.4635 21.9861 37.6118 21.944C37.7597 21.9019 37.9151 21.8929 38.0667 21.9177L39.0891 22.0877L39.8146 22.207C40.0295 22.2433 40.2277 22.3456 40.3818 22.4998C40.5358 22.654 40.6378 22.8523 40.6738 23.0672C40.7245 23.3647 40.8109 23.655 40.9309 23.9318C41.0737 24.2589 41.3331 24.521 41.6588 24.6669L42.4442 19.9069L41.5762 19.4139C40.4994 18.827 39.611 17.9476 39.0126 16.8772C38.4495 15.8017 38.2704 14.5664 38.5043 13.3752C38.627 12.5876 38.913 11.8342 39.3431 11.1631C39.7528 10.5241 40.2869 9.97402 40.9139 9.54576C41.5126 9.11733 42.1943 8.81918 42.9154 8.6706C43.3765 8.57438 43.8474 8.53321 44.3179 8.54786L44.611 6.77068C44.6484 6.54458 44.7739 6.34255 44.9602 6.20907C45.0523 6.14297 45.1567 6.09571 45.2672 6.06994C45.3777 6.04417 45.4923 6.04043 45.6042 6.05889C45.7164 6.07739 45.8235 6.11774 45.92 6.17765C46.0163 6.23759 46.0999 6.3159 46.1658 6.40814C46.2321 6.50038 46.2794 6.60473 46.3053 6.71526C46.3308 6.82576 46.3345 6.94027 46.3161 7.0522L46.0241 8.82496C46.4916 8.96511 46.9387 9.16632 47.3538 9.42336C47.9706 9.80192 48.4999 10.307 48.9069 10.9051C49.3176 11.5173 49.6073 12.2027 49.76 12.924ZM44.914 23.1267C45.0088 22.6339 44.9402 22.1236 44.7188 21.6732C44.5488 21.3642 44.3149 21.0949 44.0327 20.8831L43.3809 24.8305C43.5921 24.7711 43.7947 24.6847 43.9837 24.5734C44.2397 24.4204 44.457 24.2101 44.6185 23.9591C44.7797 23.7082 44.881 23.4233 44.914 23.1267ZM43.0967 15.9459L43.6985 12.3011C43.4135 12.3503 43.1473 12.4759 42.9284 12.6646C42.5384 12.9898 42.2803 13.446 42.2028 13.9477C42.144 14.3173 42.1763 14.6956 42.2973 15.0497C42.4643 15.4243 42.7434 15.7376 43.0967 15.9459Z" fill="#55DEFF"/>
<path d="M29.6113 41.6839C29.8493 42.7379 31.6142 43.1516 32.7712 41.691C33.5048 40.7978 33.9018 39.6755 33.8932 38.5195H33.9388C33.9388 38.5195 34.4705 38.3056 34.5977 37.9235C34.5977 37.9235 36.3259 37.6957 36.9536 37.5916C37.5812 37.4876 44.8239 42.3292 46.6 45.5966C47.0431 46.1885 47.4157 46.8298 47.7105 47.5081C47.9032 48.0062 47.9767 48.4805 47.7445 48.7552C46.9438 49.7072 45.9646 49.427 45.2774 48.6358C45.2434 48.5974 45.2094 48.5563 45.1754 48.5145C44.4846 47.6322 42.7118 45.4783 42.7118 45.4783L41.2325 44.5603C41.5776 44.8833 41.9016 45.2277 42.2025 45.5922C42.5986 46.1321 44.1564 47.7226 44.8562 48.813C45.036 49.0489 45.1544 49.326 45.1999 49.6191C45.1853 49.8333 45.1197 50.0414 45.0085 50.2253C44.8977 50.4093 44.7443 50.564 44.5617 50.6772C44.3788 50.7901 44.1718 50.8577 43.9576 50.8747C43.7434 50.8921 43.5281 50.8577 43.3299 50.7751C43.3054 50.7649 43.2816 50.7523 43.2595 50.7377C42.6673 50.3709 39.7518 47.7556 39.2992 47.3292C39.2088 47.1613 39.0843 47.0137 38.9337 46.8968C38.8426 46.8233 38.7457 46.7577 38.6437 46.7006L38.6393 46.6968C37.8726 46.2609 37.0335 46.4248 36.3089 46.9913C35.5096 47.6189 35.8601 47.2483 35.5143 47.6084C35.4848 47.3251 35.3637 47.0596 35.1696 46.8512C34.4532 46.0471 33.4822 46.0073 32.5682 46.4993C31.8629 46.9046 31.1823 47.352 30.5303 47.8385L27.8705 48.0932L27.8473 48.0888C27.9124 47.6155 27.8098 47.1344 27.5573 46.7288C26.9793 45.857 26.112 45.9468 25.655 45.974C25.5801 45.9791 25.506 45.9924 25.434 46.0138L25.4282 45.974C25.0741 45.7996 24.7311 45.6037 24.4011 45.3871C23.9686 45.1172 23.4991 44.8064 23.1237 44.5542C22.7103 44.276 22.4135 44.0703 22.4135 44.0703C22.4414 40.6985 22.6868 37.3325 23.1482 33.9924L23.748 34.225C24.72 34.6023 26.557 35.313 26.792 35.3959C26.9044 35.4551 27.0295 35.486 27.1566 35.486C27.2837 35.486 27.4089 35.4551 27.5213 35.3959C27.8541 35.2698 31.7689 33.2084 32.5601 33.0203C33.3513 32.8323 34.9217 33.0914 34.9217 33.0914C34.1363 33.4572 33.4471 33.8544 32.7117 34.1114C31.5595 34.5146 30.5136 34.3239 30.1981 36.0079C29.8826 37.6919 29.9295 39.7601 29.6126 41.1626C29.5724 41.334 29.5719 41.5122 29.6113 41.6839Z" fill="#FFE8BB"/>
<path d="M45.1792 48.5143C45.2132 48.5561 45.2472 48.5973 45.2812 48.6357C45.2812 48.6357 44.8698 48.8261 44.8616 48.8135C44.1619 47.7231 42.604 46.1326 42.2079 45.5927C41.907 45.2285 41.583 44.8838 41.2379 44.5608L42.7173 45.4788C42.7173 45.4788 44.4883 47.632 45.1792 48.5143Z" fill="#FFE8BB"/>
<path d="M43.2636 50.7379L43.1831 50.8558C43.1528 51.0146 43.0858 51.1639 42.9879 51.2921C42.8896 51.4206 42.7628 51.5239 42.6176 51.5947C42.4113 51.7242 42.1804 51.8095 41.9393 51.8456C41.6983 51.8813 41.4525 51.8667 41.2175 51.8024C41.0067 51.7004 40.8034 51.5834 40.6089 51.4532L40.2978 51.4192C40.4549 51.274 40.594 51.1102 40.7116 50.9317C41.1536 50.1864 41.1383 49.7247 40.6507 49.3367C40.4675 49.1633 40.2421 49.0413 39.9969 48.9824C39.7514 48.9236 39.4951 48.9301 39.2533 49.0015L39.2017 48.9699C39.2278 48.9263 39.2506 48.8808 39.2697 48.8339C39.3859 48.6013 39.4495 48.346 39.4553 48.0862C39.4611 47.8264 39.4094 47.5684 39.3037 47.3311C39.7559 47.7557 42.67 50.371 43.2636 50.7379Z" fill="#FFE8BB"/>
<path d="M41.2174 51.8023C40.8036 52.315 40.2379 52.6832 39.6014 52.8542C39.4674 52.9025 39.3246 52.9209 39.1829 52.9086C39.0407 52.8961 38.9034 52.8529 38.78 52.7818L38.6208 52.7794C39.2084 52.3626 39.7687 51.9084 40.2977 51.4194L40.6088 51.4534C40.8033 51.5837 41.0066 51.7003 41.2174 51.8023Z" fill="#FFE8BB"/>
<path d="M40.6507 49.3338C41.1383 49.7218 41.1522 50.1838 40.7116 50.9288C40.594 51.1073 40.4549 51.2712 40.2978 51.4163C39.7688 51.9053 39.2085 52.3595 38.6209 52.7763C38.4258 52.9178 38.301 53.0041 38.301 53.0041C36.3773 54.1343 35.5242 54.3852 34.8361 54.0615C34.6229 53.9765 34.4318 53.8439 34.2768 53.6746C34.1221 53.505 34.0075 53.3023 33.9422 53.0823L33.9082 53.0052C34.6803 52.6669 35.4287 52.2762 36.1474 51.8356C36.1474 51.8356 38.6634 49.8782 39.2006 48.9656L39.2523 48.9972C39.4944 48.9258 39.7511 48.9194 39.9966 48.9785C40.2421 49.0377 40.4675 49.1601 40.6507 49.3338Z" fill="#FFE8BB"/>
<path d="M39.304 47.328C39.4097 47.5653 39.4614 47.8233 39.4556 48.0831C39.4498 48.3432 39.3862 48.5982 39.27 48.8308C39.2509 48.8777 39.2281 48.9232 39.202 48.9668C38.6644 49.8793 36.1488 51.8367 36.1488 51.8367C35.43 52.2773 34.6817 52.668 33.9095 53.0063C32.3115 53.6713 31.9396 53.2783 31.3656 53.0087C30.8188 52.72 30.4081 52.2267 30.2229 51.6368V51.6205C30.6981 51.5848 31.162 51.4579 31.589 51.2465C31.589 51.2465 34.7068 49.5805 35.1753 48.8124C35.4195 48.4591 35.5405 48.0355 35.5201 47.6064C35.8659 47.2464 35.5153 47.617 36.3147 46.9893C37.0392 46.4225 37.8787 46.259 38.645 46.6949L38.6495 46.6986C38.7515 46.7557 38.8484 46.8214 38.9395 46.8948C39.0898 47.0121 39.2142 47.1597 39.304 47.328Z" fill="#FFE8BB"/>
<path d="M30.532 47.838C31.1849 47.3515 31.8661 46.9044 32.572 46.4988C33.4859 46.0068 34.4569 46.0466 35.1733 46.8507C35.3675 47.0591 35.4885 47.3246 35.5181 47.6078C35.5385 48.0366 35.4174 48.4606 35.1733 48.8138C34.7048 49.5816 31.587 51.2479 31.587 51.2479C31.16 51.4594 30.6961 51.5862 30.2209 51.6219C29.3174 51.6518 28.4156 51.5253 27.5553 51.2479C26.6172 51.0048 26.1694 49.2497 26.1694 49.2497C26.5286 49.1912 26.8784 49.0851 27.2095 48.9342C27.3787 48.8584 27.5261 48.7411 27.6381 48.5932C27.7501 48.4453 27.823 48.2719 27.8501 48.0883L27.8732 48.0927L30.532 47.838Z" fill="#FFE8BB"/>
<path d="M34.4902 5.18091L34.7109 6.24919L21.561 8.95899L25.1263 26.2623L24.057 26.4819L23.8363 25.4126L20.2721 8.11069L33.4209 5.40089L34.4902 5.18091Z" fill="#55DEFF"/>
<path d="M33.4209 5.40084L20.2721 8.11064L23.8363 25.4126L22.767 25.6336L18.9818 7.26098L33.2013 4.33154L33.4209 5.40084Z" fill="#313553"/>
<path d="M25.437 46.0134C25.5089 45.992 25.5831 45.9788 25.658 45.9737C26.1149 45.9478 26.9806 45.8567 27.5603 46.7285C27.8128 47.1341 27.9154 47.6152 27.8503 48.0885C27.8232 48.2721 27.7503 48.4455 27.6384 48.5934C27.5264 48.7413 27.379 48.8586 27.2098 48.9344C26.8786 49.0853 26.5288 49.1914 26.1697 49.2499C25.3717 49.3842 24.5418 49.3118 24.1773 48.9531C23.5653 48.3489 22.9071 46.9607 24.3364 45.4943L24.4044 45.3865C24.7344 45.6031 25.0774 45.7989 25.4316 45.9733L25.437 46.0134Z" fill="#FFE8BB"/>
<path d="M23.5463 33.4057L23.5333 33.4162C23.5207 33.3993 23.5045 33.3854 23.4858 33.3755C23.4672 33.3656 23.4466 33.3599 23.4255 33.3589C23.4044 33.3579 23.3834 33.3616 23.3639 33.3697C23.3443 33.3777 23.3269 33.39 23.3127 33.4057C23.2229 33.5894 23.1681 33.7883 23.1512 33.9922C22.6898 37.3323 22.4444 40.6983 22.4164 44.0701C22.4314 44.847 22.4933 45.3591 22.6184 45.4281C22.6964 45.4821 22.7926 45.5029 22.886 45.4862L22.8907 45.5015C22.5426 45.7331 21.6134 45.8497 21.3607 45.1149C21.2984 44.5193 21.2937 43.9188 21.3468 43.3221C21.4672 40.4321 21.9381 34.9921 22.1968 33.5016C22.2106 33.3718 22.2429 33.2448 22.2927 33.1242C22.5718 32.7583 23.5136 32.9688 23.5463 33.4057Z" fill="#55DEFF"/>
<path d="M22.1339 33.4899L22.1982 33.5018C21.9388 34.9941 21.4679 40.4337 21.3482 43.3224H21.3142C21.3142 43.3224 19.2997 42.418 18.2759 42.2962C16.7918 42.1211 1.71387 35.1188 1.71387 35.1188L7.48299 23.8818L21.1962 33.0234L22.1339 33.4899Z" fill="#FFE8BB"/>
<path d="M61.3346 22.4761L66.3125 33.9409" stroke="#FFE8BB" stroke-width="0.08244" stroke-linecap="round" stroke-linejoin="round"/>
<path d="M1.71252 35.1175L7.483 23.8818" stroke="#FFE8BB" stroke-width="0.08244" stroke-linecap="round" stroke-linejoin="round"/>
<path d="M49.4464 59.3445C45.8411 61.7255 41.6744 63.1198 37.3622 63.3888C33.0499 63.6574 28.7424 62.791 24.8693 60.8762C20.9962 58.9613 17.6927 56.0645 15.2882 52.4748C12.8836 48.8847 11.462 44.7275 11.1652 40.417" stroke="#313553" stroke-width="0.08244" stroke-linecap="round" stroke-linejoin="round"/>
<path d="M60.5199 39.4683C60.4176 42.9951 59.5594 46.459 58.0039 49.6258C56.4481 52.7929 54.2309 55.589 51.5021 57.8255" stroke="#313553" stroke-width="0.08244" stroke-linecap="round" stroke-linejoin="round"/>
<path d="M46.6887 55.4076C43.9976 57.1851 40.9115 58.2752 37.7008 58.5819C34.4902 58.8889 31.2534 58.403 28.2743 57.1675C25.2953 55.9316 22.6649 53.984 20.614 51.4949C18.5631 49.0058 17.1544 46.0512 16.5114 42.8909" stroke="#313553" stroke-width="0.08244" stroke-linecap="round" stroke-linejoin="round"/>
<path d="M55.1867 42.636C54.3269 47.1743 51.8993 51.2662 48.3282 54.196" stroke="#313553" stroke-width="0.08244" stroke-linecap="round" stroke-linejoin="round"/>
<path d="M49.0714 24.4556C50.238 25.5081 51.2746 26.696 52.16 27.9939" stroke="#313553" stroke-width="0.08244" stroke-linecap="round" stroke-linejoin="round"/>
<path d="M18.2212 30.2072C19.1303 28.3811 20.3164 26.7066 21.7375 25.2432" stroke="#313553" stroke-width="0.08244" stroke-linecap="round" stroke-linejoin="round"/>
<path d="M47.9076 17.1672C51.0176 18.9169 53.7145 21.3158 55.8143 24.2008" stroke="#313553" stroke-width="0.08244" stroke-linecap="round" stroke-linejoin="round"/>
<path d="M13.9794 27.1552C15.5601 24.1809 17.7297 21.5594 20.3561 19.4504" stroke="#313553" stroke-width="0.08244" stroke-linecap="round" stroke-linejoin="round"/>
<path d="M44.5645 34.219C44.5645 34.219 52.7081 28.6369 54.8372 27.1082C56.9663 25.5796 61.336 22.4761 61.336 22.4761" stroke="#313553" stroke-width="0.08244" stroke-linecap="round" stroke-linejoin="round"/>
<path d="M50.4658 44.5667C50.4658 44.5667 53.6465 42.9469 55.0932 41.6743C56.5399 40.4017 66.3132 33.9407 66.3132 33.9407" stroke="#313553" stroke-width="0.08244" stroke-linecap="round" stroke-linejoin="round"/>
<path d="M1.71252 35.1174C1.71252 35.1174 16.7908 42.1214 18.2749 42.2948C19.2987 42.4166 21.3132 43.321 21.3132 43.321" stroke="#313553" stroke-width="0.08244" stroke-linecap="round" stroke-linejoin="round"/>
<path d="M22.1347 33.4896L21.1963 33.0234L7.48303 23.8818" stroke="#313553" stroke-width="0.08244" stroke-linecap="round" stroke-linejoin="round"/>
<path d="M23.7626 34.1944C23.7426 33.9216 23.6644 33.6562 23.5334 33.4161C23.5208 33.3992 23.5045 33.3853 23.4859 33.3754C23.4672 33.3655 23.4466 33.3598 23.4256 33.3588C23.4045 33.3578 23.3834 33.3615 23.3639 33.3695C23.3444 33.3776 23.3269 33.3899 23.3127 33.4056C23.223 33.5894 23.1682 33.7883 23.1512 33.9921C22.6899 37.3322 22.4444 40.6982 22.4165 44.07C22.4315 44.8469 22.4933 45.359 22.6185 45.428C22.6965 45.482 22.7927 45.5028 22.886 45.4861C23.192 45.4069 23.0931 44.6531 23.0931 44.6531" stroke="#313553" stroke-width="0.08244" stroke-linecap="round" stroke-linejoin="round"/>
<path d="M23.5463 33.4056C23.5123 32.9687 22.5719 32.7596 22.2948 33.124C22.245 33.2446 22.2127 33.3717 22.1989 33.5014C21.9395 34.9937 21.4686 40.4334 21.3489 43.322C21.2958 43.9187 21.3004 44.5191 21.3628 45.1148C21.6141 45.8496 22.5433 45.7329 22.8928 45.5014" stroke="#313553" stroke-width="0.08244" stroke-linecap="round" stroke-linejoin="round"/>
<path d="M23.1512 33.9921L23.751 34.2247C24.7231 34.6021 26.5601 35.3127 26.795 35.3957C26.9074 35.4548 27.0326 35.4858 27.1597 35.4858C27.2868 35.4858 27.4119 35.4548 27.5243 35.3957C27.8572 35.2695 31.7719 33.2081 32.5631 33.0201C33.3543 32.8321 34.9248 33.0911 34.9248 33.0911" stroke="#313553" stroke-width="0.08244" stroke-linecap="round" stroke-linejoin="round"/>
<path d="M22.4165 44.0701C22.4165 44.0701 22.7133 44.2758 23.1268 44.5539C23.5008 44.8062 23.9717 45.1169 24.4041 45.3869C24.7341 45.6035 25.0771 45.7993 25.4313 45.9737" stroke="#313553" stroke-width="0.08244" stroke-linecap="round" stroke-linejoin="round"/>
<path d="M50.3488 42.3381C50.3488 42.8315 50.6442 43.6261 50.4399 44.5607C50.2458 45.4502 49.5998 46.4647 47.8188 47.4708" stroke="#313553" stroke-width="0.08244" stroke-linecap="round" stroke-linejoin="round"/>
<path d="M46.1641 35.01C45.6677 34.6788 45.1261 34.4204 44.5563 34.2433C44.1506 34.109 43.7348 34.008 43.3129 33.9407C41.5272 33.6554 37.8389 32.1003 36.3714 32.5327C35.8757 32.6821 35.3919 32.8692 34.9247 33.0924C34.1393 33.4582 33.4502 33.8553 32.7147 34.1124C31.5625 34.5156 30.5166 34.3249 30.2011 36.0089C29.8856 37.6929 29.9325 39.7611 29.6156 41.1636C29.5749 41.3343 29.5738 41.5121 29.6122 41.6835C29.8502 42.7375 31.6152 43.1513 32.7722 41.6906C33.5058 40.7975 33.9028 39.6751 33.8942 38.5191C33.8918 38.1931 33.855 37.8684 33.7844 37.5501" stroke="#313553" stroke-width="0.08244" stroke-linecap="round" stroke-linejoin="round"/>
<path d="M33.9398 38.5191C33.9398 38.5191 34.4716 38.3052 34.5987 37.9231C34.5987 37.9231 36.327 37.6953 36.9546 37.5912C37.5822 37.4872 44.8249 42.3288 46.6011 45.5962" stroke="#313553" stroke-width="0.08244" stroke-linecap="round" stroke-linejoin="round"/>
<path d="M46.601 45.5964C47.044 46.1883 47.4166 46.8296 47.7114 47.5079C47.9042 48.006 47.9776 48.4803 47.7454 48.755C46.9447 49.707 45.9655 49.4268 45.2784 48.6356C45.2444 48.5972 45.2104 48.5561 45.1764 48.5143C44.4855 47.632 42.7127 45.4781 42.7127 45.4781L41.2334 44.5601" stroke="#313553" stroke-width="0.08244" stroke-linecap="round" stroke-linejoin="round"/>
<path d="M38.6477 41.4246C38.678 41.7394 38.7568 42.0474 38.8816 42.3381C38.9785 42.4503 40.2709 43.6155 41.2361 44.5607C41.5812 44.8837 41.9052 45.2281 42.2061 45.5926C42.6022 46.1325 44.1601 47.7231 44.8598 48.8134C45.0397 49.0494 45.158 49.3265 45.2036 49.6196C45.189 49.8338 45.1233 50.0419 45.0122 50.2258C44.9013 50.4097 44.748 50.5644 44.5654 50.6777C44.3825 50.7905 44.1754 50.8582 43.9612 50.8752C43.747 50.8925 43.5318 50.8582 43.3336 50.7756C43.3091 50.7654 43.2853 50.7528 43.2632 50.7382C42.6709 50.3713 39.7554 47.756 39.3029 47.3297L39.3008 47.3273" stroke="#313553" stroke-width="0.08244" stroke-linecap="round" stroke-linejoin="round"/>
<path d="M43.183 50.8557C43.1528 51.0145 43.0858 51.1637 42.9879 51.2919C42.8896 51.4204 42.7628 51.5238 42.6176 51.5945C42.4112 51.7241 42.1804 51.8094 41.9393 51.8455C41.6982 51.8812 41.4524 51.8665 41.2175 51.8023C41.0067 51.7003 40.8034 51.5833 40.6089 51.4531" stroke="#313553" stroke-width="0.08244" stroke-linecap="round" stroke-linejoin="round"/>
<path d="M41.2175 51.8022C40.8037 52.315 40.2379 52.6832 39.6015 52.8542C39.4675 52.9025 39.3247 52.9208 39.1829 52.9086C39.0408 52.896 38.9034 52.8528 38.78 52.7818" stroke="#313553" stroke-width="0.08244" stroke-linecap="round" stroke-linejoin="round"/>
<path d="M36.9546 37.5915C36.9546 37.5915 37.483 37.0679 37.483 36.77" stroke="#313553" stroke-width="0.08244" stroke-linecap="round" stroke-linejoin="round"/>
<path d="M34.5986 37.9232C34.6456 37.6777 34.6456 37.4254 34.5986 37.1799" stroke="#313553" stroke-width="0.08244" stroke-linecap="round" stroke-linejoin="round"/>
<path d="M29.5844 41.5752C29.5841 41.6137 29.5934 41.6511 29.6112 41.6851C29.8227 42.1128 31.3058 41.9747 31.7814 41.2621C32.2942 40.492 31.6679 39.4683 31.6679 39.4683" stroke="#313553" stroke-width="0.08244" stroke-linecap="round" stroke-linejoin="round"/>
<path d="M29.8999 39.19C29.8999 39.19 30.2807 39.1608 30.7839 39.1023" stroke="#313553" stroke-width="0.08244" stroke-linecap="round" stroke-linejoin="round"/>
<path d="M46.4316 48.8135C46.7795 48.7108 47.0991 48.5292 47.3653 48.2827" stroke="#313553" stroke-width="0.08244" stroke-linecap="round" stroke-linejoin="round"/>
<path d="M45.2794 48.6355C45.2794 48.6355 44.868 48.8259 44.8599 48.8133" stroke="#313553" stroke-width="0.08244" stroke-linecap="round" stroke-linejoin="round"/>
<path d="M24.6261 46.444C24.8716 46.2584 25.1454 46.1135 25.437 46.0153C25.5089 45.9939 25.5831 45.9806 25.658 45.9755C26.1149 45.9497 26.9806 45.8585 27.5603 46.7303C27.8128 47.1359 27.9154 47.617 27.8503 48.0903C27.8232 48.2739 27.7503 48.4473 27.6384 48.5952C27.5264 48.7431 27.379 48.8604 27.2098 48.9362C26.8786 49.0872 26.5288 49.1933 26.1697 49.2517C25.3717 49.386 24.5418 49.3136 24.1773 48.9549C23.5653 48.3507 22.9071 46.9625 24.3364 45.4961" stroke="#313553" stroke-width="0.08244" stroke-linecap="round" stroke-linejoin="round"/>
<path d="M30.532 47.8379C30.262 48.0344 30.0376 48.2014 29.8986 48.3044" stroke="#313553" stroke-width="0.08244" stroke-linecap="round" stroke-linejoin="round"/>
<path d="M26.1698 49.2502C26.1698 49.2502 26.6176 51.0053 27.5556 51.2484C28.4159 51.5258 29.3178 51.6523 30.2212 51.6224C30.6965 51.5867 31.1603 51.4599 31.5874 51.2484C31.5874 51.2484 34.7052 49.5824 35.1737 48.8143C35.4178 48.4611 35.5388 48.0371 35.5184 47.6083C35.4889 47.3251 35.3678 47.0596 35.1737 46.8512C34.4573 46.0471 33.4863 46.0073 32.5723 46.4993C31.867 46.9045 31.1864 47.352 30.5344 47.8385" stroke="#313553" stroke-width="0.08244" stroke-linecap="round" stroke-linejoin="round"/>
<path d="M30.5344 47.8386H30.5334L27.8735 48.0933" stroke="#313553" stroke-width="0.08244" stroke-linecap="round" stroke-linejoin="round"/>
<path d="M32.6356 47.6985C32.4141 47.9603 32.2935 48.2925 32.2956 48.6355C32.312 48.7797 32.3637 48.9177 32.4461 49.0374C32.5284 49.1571 32.6389 49.2547 32.7678 49.3216C32.8967 49.3886 33.0401 49.423 33.1853 49.4216C33.3306 49.4202 33.4733 49.3828 33.6008 49.3135C34.205 48.9793 35.1726 48.3027 34.9064 47.6985" stroke="#313553" stroke-width="0.08244" stroke-linecap="round" stroke-linejoin="round"/>
<path d="M33.0503 47.3279C33.2614 47.1406 33.5189 47.0134 33.7959 46.9597C33.9907 46.9512 34.1815 47.0168 34.3301 47.1433" stroke="#313553" stroke-width="0.08244" stroke-linecap="round" stroke-linejoin="round"/>
<path d="M38.6434 46.697C37.8767 46.2611 37.0376 46.425 36.313 46.9914C35.5137 47.6191 35.8642 47.2485 35.5184 47.6085C35.5113 47.6157 35.5045 47.6238 35.4963 47.632" stroke="#313553" stroke-width="0.08244" stroke-linecap="round" stroke-linejoin="round"/>
<path d="M30.2225 51.6389C30.4077 52.2288 30.8184 52.7221 31.3653 53.0108C31.9392 53.2808 32.3129 53.6735 33.9092 53.0084C34.6813 52.6701 35.4296 52.2795 36.1484 51.8388C36.1484 51.8388 38.6644 49.8814 39.2016 48.9689C39.2278 48.9254 39.2506 48.8798 39.2696 48.8329C39.3859 48.6003 39.4495 48.3453 39.4552 48.0852C39.461 47.8255 39.4093 47.5674 39.3036 47.3301C39.2132 47.1621 39.0887 47.0146 38.9381 46.8976C38.847 46.8242 38.7501 46.7585 38.6481 46.7014" stroke="#313553" stroke-width="0.08244" stroke-linecap="round" stroke-linejoin="round"/>
<path d="M36.5782 48.1624C36.4055 48.4586 36.3436 48.8064 36.4041 49.144C36.4449 49.2834 36.5194 49.4106 36.6207 49.5143C36.7223 49.6183 36.8478 49.6955 36.9862 49.7397C37.1242 49.7835 37.2714 49.7931 37.4142 49.7672C37.557 49.741 37.6913 49.6805 37.8052 49.5904C38.3452 49.1583 39.1829 48.3273 38.8184 47.7769" stroke="#313553" stroke-width="0.08244" stroke-linecap="round" stroke-linejoin="round"/>
<path d="M36.924 47.7255C37.1001 47.5055 37.3323 47.3368 37.5958 47.2369C37.7865 47.1954 37.9861 47.2277 38.1544 47.327" stroke="#313553" stroke-width="0.08244" stroke-linecap="round" stroke-linejoin="round"/>
<path d="M33.9421 53.0854C34.0074 53.3054 34.122 53.5081 34.2767 53.6774C34.4317 53.847 34.6228 53.9793 34.836 54.0646C35.5242 54.3883 36.3772 54.1371 38.3009 53.0072C38.3009 53.0072 38.4257 52.9209 38.6209 52.7794C39.2084 52.3626 39.7687 51.9083 40.2978 51.4194C40.4548 51.2742 40.5939 51.1104 40.7115 50.9319C41.1535 50.1866 41.1382 49.7249 40.6507 49.3369C40.4674 49.1635 40.242 49.0415 39.9969 48.9827C39.7514 48.9238 39.495 48.9303 39.2533 49.0017" stroke="#313553" stroke-width="0.08244" stroke-linecap="round" stroke-linejoin="round"/>
<path d="M38.7297 50.1361C38.596 50.3649 38.5484 50.6339 38.5954 50.8947C38.6266 51.0024 38.6844 51.101 38.7626 51.1816C38.8412 51.2622 38.9384 51.322 39.0455 51.3564C39.1526 51.3904 39.2665 51.3979 39.377 51.3775C39.4875 51.3574 39.5916 51.3101 39.6796 51.2404C40.0968 50.9062 40.7455 50.2636 40.4616 49.8369" stroke="#313553" stroke-width="0.08244" stroke-linecap="round" stroke-linejoin="round"/>
<path d="M38.9979 49.7975C39.1346 49.6271 39.3148 49.4966 39.5191 49.4197C39.6667 49.3874 39.8207 49.4126 39.9503 49.4901" stroke="#313553" stroke-width="0.08244" stroke-linecap="round" stroke-linejoin="round"/>
<path d="M37.4829 45.2166L37.8742 45.9632L38.6433 46.6969L38.6477 46.7006" stroke="#313553" stroke-width="0.08244" stroke-linecap="round" stroke-linejoin="round"/>
<path d="M27.2098 48.9348C26.8703 48.7791 26.5606 48.5652 26.2948 48.3027C26.1142 48.0675 25.9892 47.7948 25.929 47.5044C25.9162 47.4388 25.8866 47.3776 25.843 47.3269C25.7995 47.2763 25.7435 47.2379 25.6806 47.2154C25.6176 47.1926 25.5499 47.1872 25.4841 47.1988C25.4182 47.2103 25.3566 47.2389 25.3051 47.2814C25.1415 47.4024 25.0269 47.5782 24.9824 47.7768C24.9309 48.0049 24.9575 48.2436 25.058 48.4544C25.1584 48.6655 25.3269 48.8369 25.5363 48.9406" stroke="#313553" stroke-width="0.08244" stroke-linecap="round" stroke-linejoin="round"/>
<path d="M37.1966 24.889L25.3459 27.3302L25.1263 26.2623L21.561 8.95898L34.7109 6.24918L35.7792 6.02954L39.0884 22.0857" stroke="#313553" stroke-width="0.08244" stroke-linecap="round" stroke-linejoin="round"/>
<path d="M25.1263 26.2623L24.057 26.4819L23.8363 25.4126L20.2721 8.11069L33.4209 5.40089L34.4902 5.18091L34.7109 6.24919V6.25021" stroke="#313553" stroke-width="0.08244" stroke-linecap="round" stroke-linejoin="round"/>
<path d="M23.8363 25.4126L22.767 25.6336L18.9818 7.26098L33.2013 4.33154L33.4209 5.40084" stroke="#313553" stroke-width="0.08244" stroke-linecap="round" stroke-linejoin="round"/>
<path d="M24.3269 10.9373L34.0213 8.94019" stroke="#313553" stroke-width="0.08244" stroke-linecap="round" stroke-linejoin="round"/>
<path d="M25.3014 12.9663L34.9962 10.9678" stroke="#313553" stroke-width="0.08244" stroke-linecap="round" stroke-linejoin="round"/>
<path d="M24.4531 14.255L35.2168 12.0369" stroke="#313553" stroke-width="0.08244" stroke-linecap="round" stroke-linejoin="round"/>
<path d="M24.6727 15.324L35.4364 13.1062" stroke="#313553" stroke-width="0.08244" stroke-linecap="round" stroke-linejoin="round"/>
<path d="M24.8937 16.3935L32.4498 14.8359" stroke="#313553" stroke-width="0.08244" stroke-linecap="round" stroke-linejoin="round"/>
<path d="M26.1826 17.242L35.877 15.2449" stroke="#313553" stroke-width="0.08244" stroke-linecap="round" stroke-linejoin="round"/>
<path d="M25.3344 18.531L36.0981 16.3142" stroke="#313553" stroke-width="0.08244" stroke-linecap="round" stroke-linejoin="round"/>
<path d="M25.554 19.5999L36.3177 17.3821" stroke="#313553" stroke-width="0.08244" stroke-linecap="round" stroke-linejoin="round"/>
<path d="M26.8429 20.4496L36.5387 18.4514" stroke="#313553" stroke-width="0.08244" stroke-linecap="round" stroke-linejoin="round"/>
<path d="M25.9946 21.7386L36.7583 19.5208" stroke="#313553" stroke-width="0.08244" stroke-linecap="round" stroke-linejoin="round"/>
<path d="M26.2153 22.8079L36.9791 20.5901" stroke="#313553" stroke-width="0.08244" stroke-linecap="round" stroke-linejoin="round"/>
<path d="M29.652 24.8855L30.7495 24.66L32.0534 24.3911L34.7622 23.8325L35.2766 23.7261L36.1402 23.5486" stroke="#313553" stroke-width="0.08244" stroke-linecap="round" stroke-linejoin="round"/>
<path d="M32.844 23.2365C32.81 23.3606 32.5995 24.1412 32.8895 24.1494C33.2027 24.1585 33.9167 22.3579 33.9167 22.3579C33.9167 22.3579 33.5672 23.8199 33.9901 23.8502C34.4131 23.8804 34.3515 22.8101 34.7184 22.7108C34.9765 22.6404 34.7626 23.4048 34.7626 23.8328C34.7626 24.0164 34.8024 24.1388 34.9346 24.1048C35.0992 24.064 35.1985 23.9086 35.277 23.7261C35.4055 23.4201 35.479 23.0389 35.7081 22.9818" stroke="#313553" stroke-width="0.08244" stroke-linecap="round" stroke-linejoin="round"/>
<path d="M31.4839 23.7626C31.6335 24.126 31.8579 24.4086 32.0469 24.3644C32.477 24.2604 32.7973 23.3689 32.8429 23.2366C32.8437 23.2327 32.8448 23.2288 32.8463 23.225V23.2217" stroke="#313553" stroke-width="0.08244" stroke-linecap="round" stroke-linejoin="round"/>
<path d="M31.4839 23.7625C31.8307 23.108 32.0225 22.3403 31.6077 22.4467C31.2051 22.5508 31.2694 23.2389 31.4839 23.7625Z" stroke="#313553" stroke-width="0.08244" stroke-linecap="round" stroke-linejoin="round"/>
<path d="M30.7413 24.6213C30.9739 24.5584 31.2612 24.1844 31.4846 23.7625" stroke="#313553" stroke-width="0.08244" stroke-linecap="round" stroke-linejoin="round"/>
<path d="M28.9816 23.613L28.444 24.4297L27.9065 25.2454" stroke="#313553" stroke-width="0.08244" stroke-linecap="round" stroke-linejoin="round"/>
<path d="M27.627 23.8921L28.444 24.4296L29.2596 24.9661" stroke="#313553" stroke-width="0.08244" stroke-linecap="round" stroke-linejoin="round"/>
<path d="M37.2047 24.8856C37.3999 25.4399 37.6858 25.9579 38.0507 26.4186C38.8004 27.3938 39.8513 28.0938 41.0399 28.41L40.7105 30.4058C40.6921 30.5177 40.6958 30.6322 40.7213 30.7427C40.7472 30.8532 40.7945 30.9576 40.8604 31.0498C40.9264 31.1421 41.01 31.2204 41.1066 31.2803C41.2028 31.3402 41.3099 31.3806 41.4218 31.3991C41.534 31.4176 41.6482 31.4139 41.7587 31.3881C41.8692 31.3624 41.9736 31.3152 42.066 31.2491C42.1582 31.1831 42.2364 31.0994 42.2966 31.0031C42.3564 30.9068 42.3969 30.7996 42.4152 30.6877L42.7484 28.6671C43.2455 28.6776 43.7416 28.6229 44.2244 28.5045C44.968 28.3266 45.6677 27.9983 46.2797 27.54C46.8845 27.083 47.3996 26.5182 47.7988 25.8739C48.2177 25.1981 48.4968 24.4451 48.6199 23.6595C48.8134 22.5431 48.71 21.3954 48.3197 20.3316C47.9294 19.2663 47.0501 18.3306 45.6823 17.5245L44.6878 16.9227L45.3841 12.703C45.5116 12.7989 45.6282 12.9082 45.7323 13.0291C45.9869 13.3354 46.1308 13.7188 46.1403 14.1171C46.1495 14.267 46.2096 14.4093 46.3106 14.5205C46.4112 14.6318 46.5472 14.7053 46.6955 14.7291L49.1156 15.1286C49.2077 15.1441 49.3019 15.1401 49.3927 15.1167C49.4831 15.0934 49.5675 15.0512 49.6406 14.9931C49.7137 14.9349 49.7739 14.862 49.8167 14.779C49.8599 14.6961 49.885 14.6051 49.8905 14.5118C49.9173 13.979 49.8735 13.4449 49.7596 12.9237C49.6066 12.2031 49.3172 11.5184 48.9065 10.9068C48.4995 10.3087 47.9701 9.80362 47.3534 9.4251C46.9382 9.16802 46.4912 8.96681 46.0237 8.8267L46.3157 7.05394C46.3341 6.94197 46.3303 6.82746 46.3048 6.71696C46.279 6.60643 46.2317 6.50208 46.1654 6.40984C46.0995 6.3176 46.0158 6.2393 45.9196 6.17939C45.8231 6.11945 45.7159 6.07909 45.6037 6.06063C45.4919 6.04213 45.3773 6.04587 45.2668 6.07164C45.1563 6.09741 45.0519 6.14467 44.9598 6.21077C44.7735 6.34425 44.648 6.54628 44.6106 6.77242L44.3175 8.5496C43.847 8.53491 43.3761 8.57608 42.915 8.67234C42.1939 8.82088 41.5122 9.11903 40.9135 9.54746C40.2865 9.97573 39.7523 10.5258 39.3426 11.1649C38.9125 11.8359 38.6266 12.5893 38.5039 13.3769C38.27 14.5681 38.4491 15.8034 39.0122 16.8789C39.6106 17.9493 40.499 18.8287 41.5758 19.4156L42.4431 19.9076L41.6577 24.6676C41.332 24.5217 41.0726 24.2596 40.9298 23.9325C40.8098 23.6556 40.7234 23.3652 40.6727 23.0676C40.6367 22.8527 40.5347 22.6545 40.3807 22.5003C40.2266 22.3462 40.0284 22.2439 39.8135 22.2077L39.088 22.0884L38.0656 21.9184C37.914 21.8936 37.7586 21.9026 37.6107 21.9447C37.4625 21.9868 37.3258 22.0609 37.2098 22.1618C37.0936 22.2628 37.0014 22.388 36.9392 22.5287C36.877 22.6694 36.8467 22.822 36.8501 22.9758C36.8573 23.449 36.9222 23.9196 37.0443 24.3769C37.0912 24.5513 37.1449 24.7207 37.2047 24.8856Z" stroke="#313553" stroke-width="0.08244" stroke-linecap="round" stroke-linejoin="round"/>
<path d="M42.2959 15.0508C42.1749 14.6967 42.1426 14.3184 42.2014 13.9489C42.2789 13.4471 42.537 12.9909 42.927 12.6657C43.1459 12.477 43.4121 12.3514 43.6971 12.3022L43.0953 15.947C42.742 15.7387 42.4629 15.4254 42.2959 15.0508Z" stroke="#313553" stroke-width="0.08244" stroke-linecap="round" stroke-linejoin="round"/>
<path d="M43.9848 24.5734C43.7957 24.6847 43.5931 24.7711 43.382 24.8305L44.0337 20.8831C44.3159 21.0948 44.5499 21.3642 44.7199 21.6732C44.9412 22.1236 45.0099 22.6339 44.915 23.1267C44.882 23.4233 44.7807 23.7082 44.6196 23.9591C44.4581 24.2101 44.2408 24.4203 43.9848 24.5734Z" stroke="#313553" stroke-width="0.08244" stroke-linecap="round" stroke-linejoin="round"/>
</svg>
