<svg width="22" height="24" viewBox="0 0 22 24" fill="none" xmlns="http://www.w3.org/2000/svg">
<path d="M14.3161 10.503C14.2681 10.569 14.2201 10.62 14.1721 10.656C14.1241 10.692 14.0581 10.71 13.9741 10.71C13.8841 10.71 13.7851 10.674 13.6771 10.602C13.5691 10.524 13.4341 10.44 13.2721 10.35C13.1161 10.26 12.9211 10.179 12.6871 10.107C12.4591 10.029 12.1771 9.99 11.8411 9.99C11.3911 9.99 10.9951 10.071 10.6531 10.233C10.3111 10.389 10.0231 10.617 9.78915 10.917C9.56115 11.217 9.38715 11.58 9.26715 12.006C9.15315 12.432 9.09615 12.909 9.09615 13.437C9.09615 13.989 9.15915 14.481 9.28515 14.913C9.41115 15.339 9.58815 15.699 9.81615 15.993C10.0501 16.281 10.3291 16.503 10.6531 16.659C10.9831 16.809 11.3521 16.884 11.7601 16.884C12.1501 16.884 12.4711 16.839 12.7231 16.749C12.9751 16.653 13.1821 16.548 13.3441 16.434C13.5121 16.32 13.6501 16.218 13.7581 16.128C13.8721 16.032 13.9831 15.984 14.0911 15.984C14.2231 15.984 14.3251 16.035 14.3971 16.137L14.8471 16.722C14.6491 16.968 14.4241 17.178 14.1721 17.352C13.9201 17.526 13.6471 17.673 13.3531 17.793C13.0651 17.907 12.7621 17.991 12.4441 18.045C12.1261 18.099 11.8021 18.126 11.4721 18.126C10.9021 18.126 10.3711 18.021 9.87915 17.811C9.39315 17.601 8.97015 17.298 8.61015 16.902C8.25015 16.5 7.96815 16.008 7.76415 15.426C7.56015 14.844 7.45815 14.181 7.45815 13.437C7.45815 12.759 7.55115 12.132 7.73715 11.556C7.92915 10.98 8.20515 10.485 8.56515 10.071C8.93115 9.651 9.37815 9.324 9.90615 9.09C10.4401 8.856 11.0521 8.739 11.7421 8.739C12.3841 8.739 12.9481 8.844 13.4341 9.054C13.9261 9.258 14.3611 9.549 14.7391 9.927L14.3161 10.503Z" fill="white"/>
<circle cx="11" cy="13.5" r="9.75" stroke="white" stroke-width="1.5"/>
</svg>
