<svg width="68" height="68" viewBox="0 0 68 68" fill="none" xmlns="http://www.w3.org/2000/svg">
<path d="M28.2778 21.6579C27.727 21.5865 22.8378 21.5865 21.9606 21.6579C21.9456 21.6612 21.9324 21.67 21.9235 21.6826C21.9147 21.6952 21.911 21.7107 21.913 21.7259C21.9161 21.7373 21.9222 21.7477 21.9305 21.756C21.9389 21.7644 21.9492 21.7704 21.9606 21.7735C22.7494 21.8415 27.7168 21.8721 28.2608 21.8007C28.339 21.7939 28.3628 21.6681 28.2778 21.6579ZM51.2448 30.1647C51.1768 30.1647 50.303 30.4741 50.5342 30.5999L50.779 30.8039C50.7246 30.9263 51.2584 31.4839 50.8912 32.7963C50.7382 32.6909 50.7348 32.7963 50.7552 32.8303C51.323 33.4151 55.3792 36.6621 56.2836 37.2503C56.3652 37.3693 56.882 37.1143 56.9636 37.0871C58.76 36.3212 60.5136 35.4587 62.2166 34.5031C62.8388 34.1631 62.832 32.9425 62.0772 32.4631C61.2833 31.9351 60.4565 31.4582 59.602 31.0351L60.656 30.2089C60.7308 30.1511 60.69 29.9369 60.4044 30.1681C59.7894 29.1744 59.5405 27.9972 59.7006 26.8395C59.7414 26.8157 60.197 26.5437 59.9964 26.4553C58.9764 26.0303 55.5968 24.7893 54.5564 24.7247C54.2164 24.7009 51.4964 26.8769 51.2414 27.3155C50.6974 28.2233 50.864 29.2603 51.2618 30.1749L51.2448 30.1647ZM50.9728 32.8473C51.3128 32.4767 51.2074 31.4601 51.0442 31.0113C51.51 31.3853 55.2534 34.2073 56.4434 34.9621C57.086 36.3221 56.3686 36.9817 56.3924 37.0837C54.4 35.6999 52.7782 34.1189 50.9728 32.8473ZM62.0534 32.6943C62.6212 32.9867 62.492 34.2039 62.084 34.3467C60.2344 35.3361 58.4052 36.2269 56.4944 37.0667C56.7454 36.7281 56.8823 36.3186 56.8854 35.8971L59.5034 34.8227C59.551 34.7989 59.5034 34.7343 59.466 34.7445C58.587 35.0384 57.7264 35.3846 56.8888 35.7815C56.8822 35.451 56.7794 35.1297 56.593 34.8567C57.392 34.5405 61.4754 32.4223 62.0534 32.6943ZM56.3856 29.2399C57.386 28.4116 58.4326 27.6408 59.5204 26.9313C59.4411 27.3447 59.4261 27.7679 59.4762 28.1859C59.3096 28.2403 57.2492 29.7499 57.1438 29.8315C57.0996 29.8655 57.1438 29.9369 57.1982 29.9097L59.5 28.3457C59.5714 28.8251 59.8604 29.9165 60.3058 30.2123C59.8536 30.5795 57.6164 32.3509 57.0724 32.3509C56.6646 31.9575 56.3823 31.452 56.2613 30.8984C56.1403 30.3448 56.1859 29.7677 56.3924 29.2399H56.3856ZM55.9402 26.3057C56.1782 26.5097 55.1922 27.0843 55.1548 27.0945C55.0426 27.1285 54.9678 27.0129 55.2092 26.7817C55.3316 26.6763 55.7804 26.1799 55.9402 26.3091V26.3057ZM54.0872 26.8735C54.2572 26.5335 54.9644 25.9691 55.2636 25.7651C55.2784 25.7548 55.295 25.7476 55.3125 25.7437C55.3301 25.7399 55.3482 25.7395 55.3659 25.7427C55.3835 25.7458 55.4004 25.7525 55.4156 25.7621C55.4307 25.7718 55.4438 25.7844 55.454 25.7991C55.4643 25.8139 55.4716 25.8305 55.4754 25.848C55.4793 25.8656 55.4796 25.8837 55.4765 25.9014C55.4733 25.919 55.4667 25.9359 55.457 25.9511C55.4473 25.9662 55.4348 25.9792 55.42 25.9895C55.1548 26.1935 54.434 26.8701 54.2334 27.0095C54.2183 27.0179 54.2014 27.0222 54.1841 27.0222C54.1669 27.0222 54.1499 27.0179 54.1348 27.0095C54.1229 27.004 54.1122 26.9962 54.1033 26.9866C54.0944 26.9769 54.0876 26.9656 54.0832 26.9532C54.0787 26.9409 54.0768 26.9278 54.0775 26.9147C54.0782 26.9016 54.0815 26.8887 54.0872 26.8769V26.8735ZM51.5916 27.4617C53.0502 27.8575 54.4832 28.3423 55.8824 28.9135C55.9708 28.9577 55.9402 29.1073 55.8348 29.0869C54.3772 28.6808 52.9454 28.1869 51.5474 27.6079C51.5319 27.5992 51.5198 27.5855 51.5131 27.5689C51.5065 27.5524 51.5056 27.5341 51.5108 27.5171C51.5159 27.5 51.5268 27.4852 51.5415 27.4752C51.5562 27.4651 51.5739 27.4604 51.5916 27.4617ZM51.34 30.3279C52.9618 31.2425 55.981 32.4053 57.12 32.5753C57.3478 32.6093 59.1974 31.3105 59.5 31.0895C59.6972 31.2833 61.3394 32.2115 61.7576 32.4699C61.1524 32.5005 56.7596 34.5473 56.4434 34.7479C54.5564 33.3369 52.598 31.9055 50.6634 30.5625L51.3434 30.3279H51.34ZM33.7994 15.1775C33.7787 15.169 33.7555 15.169 33.7348 15.1775C33.5342 15.2999 32.3748 16.8775 32.1402 17.1733C31.9158 16.8673 31.688 16.5647 31.4602 16.2689C31.416 16.2145 31.3242 16.2689 31.3582 16.3403C31.586 16.7041 31.8308 17.0543 32.079 17.4045C32.1198 17.4589 32.198 17.4317 32.232 17.3875C32.4462 17.1155 33.8096 15.4699 33.8674 15.2829C33.8699 15.2715 33.8701 15.2598 33.8681 15.2483C33.866 15.2368 33.8617 15.2259 33.8554 15.2161C33.849 15.2063 33.8408 15.1978 33.8312 15.1912C33.8216 15.1846 33.8108 15.1799 33.7994 15.1775ZM27.3156 22.3175C25.2756 22.3583 23.0146 22.3175 22.1374 22.3923C22.1194 22.3923 22.1021 22.3995 22.0893 22.4122C22.0766 22.425 22.0694 22.4423 22.0694 22.4603C22.0694 22.4784 22.0766 22.4956 22.0893 22.5084C22.1021 22.5212 22.1194 22.5283 22.1374 22.5283C23.1914 22.5283 26.4724 22.6371 27.3156 22.4569C27.387 22.4399 27.3734 22.3379 27.3156 22.3175ZM27.3904 18.9005C27.4584 18.9005 27.4788 18.7849 27.3904 18.7747C26.7104 18.6727 22.6304 18.8733 21.641 19.0263C21.623 19.0263 21.6057 19.0335 21.5929 19.0462C21.5802 19.059 21.573 19.0763 21.573 19.0943C21.573 19.1124 21.5802 19.1296 21.5929 19.1424C21.6057 19.1552 21.623 19.1623 21.641 19.1623C22.9738 19.1623 26.0032 18.9549 27.3734 18.9073L27.3904 18.9005ZM26.0372 19.5805C26.095 19.5805 26.1256 19.4649 26.0372 19.4445C25.6972 19.3595 22.2972 19.4445 21.7838 19.5023C21.7757 19.5036 21.768 19.5064 21.761 19.5107C21.754 19.515 21.748 19.5206 21.7432 19.5272C21.7385 19.5339 21.7351 19.5414 21.7333 19.5494C21.7315 19.5574 21.7314 19.5657 21.7328 19.5737C21.7347 19.5869 21.7406 19.5993 21.7497 19.609C21.7588 19.6188 21.7707 19.6254 21.7838 19.6281C22.44 19.6655 25.636 19.6893 26.0372 19.5805ZM33.286 21.4505C33.473 21.1785 31.4228 21.2771 31.3344 21.3689C31.246 21.4607 31.3344 22.8581 31.3344 22.9873C31.3344 23.1879 33.235 23.1845 33.3098 23.1267C33.3946 22.5735 33.3946 22.0106 33.3098 21.4573L33.286 21.4505ZM33.1398 22.9737C32.9596 22.9737 31.6234 22.9975 31.5146 22.9125C31.5146 22.4331 31.484 21.9571 31.467 21.4811H33.167C33.1058 21.9763 33.0967 22.4766 33.1398 22.9737Z" fill="black"/>
<path d="M57.256 30.8991C57.732 30.6169 58.2182 30.3415 58.6772 30.0355C58.7418 29.9913 58.6772 29.8757 58.6024 29.9165L57.205 30.8209C57.1972 30.8286 57.1922 30.8388 57.191 30.8497C57.1898 30.8607 57.1924 30.8717 57.1985 30.8809C57.2045 30.8901 57.2135 30.897 57.224 30.9003C57.2345 30.9036 57.2458 30.9032 57.256 30.8991ZM53.8288 34.6323C53.788 34.6051 53.7336 34.6697 53.7744 34.7037C54.1144 34.9995 55.7872 36.1691 56.1544 36.4275C56.202 36.4615 56.2428 36.3833 56.1986 36.3493C55.4846 35.8053 54.587 35.0879 53.8288 34.6323ZM31.8036 20.2673C31.9804 20.2673 33.3642 20.4271 33.3506 20.1993C33.337 19.9715 33.3166 18.6625 33.2282 18.6217C33.2044 18.3939 31.4806 18.5605 31.3208 18.5911C31.2222 18.5911 31.263 19.9171 31.2698 20.0769C31.28 20.3081 31.6506 20.2605 31.8036 20.2673ZM33.1398 18.6999V20.1313C32.5671 20.0724 31.9906 20.061 31.416 20.0973C31.4385 19.6314 31.4295 19.1646 31.3888 18.6999C31.671 18.6999 32.9596 18.7441 33.1398 18.6999ZM56.0796 35.7747C56.0882 35.7819 56.099 35.7858 56.1102 35.7858C56.1214 35.7858 56.1322 35.7819 56.1408 35.7747C56.1475 35.7672 56.1512 35.7575 56.1512 35.7475C56.1512 35.7375 56.1475 35.7278 56.1408 35.7203C54.5836 34.6153 53.0366 33.2859 51.5066 32.2489C51.4624 32.2149 51.3944 32.2795 51.4386 32.3237C52.2954 33.1397 54.9712 35.0437 56.0932 35.7917L56.0796 35.7747ZM33.3438 16.3845C33.3391 16.3693 33.3287 16.3566 33.3147 16.349C33.3007 16.3413 33.2843 16.3395 33.269 16.3437C33.2588 16.3461 33.2493 16.3512 33.2416 16.3583C33.2338 16.3655 33.2281 16.3745 33.2248 16.3845V17.5745H31.3412C31.3082 17.0266 31.2469 16.4807 31.1576 15.9391C31.6894 15.9638 32.2224 15.9502 32.7522 15.8983C32.7642 15.8945 32.7744 15.8866 32.7812 15.8761C32.788 15.8655 32.791 15.853 32.7896 15.8405C32.7877 15.8333 32.7843 15.8265 32.7796 15.8207C32.7749 15.8148 32.7691 15.81 32.7624 15.8065C32.6366 15.7657 31.0624 15.6297 31.11 15.9017C30.9536 15.9017 31.1814 17.6017 31.1814 17.6017C31.263 17.8091 31.6064 17.7377 31.7866 17.7377C31.9668 17.7377 33.218 17.7683 33.32 17.7377C33.4832 17.6731 33.3914 16.5851 33.354 16.3777L33.3438 16.3845Z" fill="black"/>
<path d="M66.198 47.2294C61.8664 47.4946 57.5337 47.7212 53.1998 47.9094C53.1432 47.2893 53.0294 46.6758 52.8598 46.0768C57.1665 45.9634 61.4731 45.8308 65.7798 45.679C65.8018 45.6763 65.8223 45.6666 65.8382 45.6512C65.8542 45.6359 65.8647 45.6158 65.8682 45.594C65.8711 45.5674 65.8635 45.5408 65.8469 45.5198C65.8304 45.4988 65.8063 45.4852 65.7798 45.4818C61.455 45.6427 57.1314 45.7753 52.8088 45.8796C51.7888 42.3232 49.6366 38.9402 47.1274 36.261C47.0492 35.3566 47.0458 34.901 46.6582 33.9932C45.9102 32.2762 45.084 31.9192 45.1044 32.3272C45.1042 32.4346 45.1214 32.5414 45.1554 32.6434C45.0194 32.4734 44.0198 31.433 43.8158 31.994C43.6654 31.8993 43.4956 31.8398 43.319 31.8198C43.1424 31.7998 42.9636 31.8198 42.7958 31.8784C42.16 30.8584 41.0958 30.8584 40.4158 30.5184C39.117 29.8384 39.7154 27.6692 40.6708 26.86C40.6708 26.86 44.7746 26.7818 44.778 26.7308C44.8528 25.7686 45.6722 11.1248 45.6722 11.1248C35.5606 10.9242 24.6806 11.1248 14.6438 11.3288C14.5758 11.3288 14.518 11.373 14.5248 11.4342C15.13 16.5852 16.6158 27.1286 16.6158 27.1286C16.8606 27.2272 39.0864 26.8804 40.4158 26.86C39.8473 27.4801 39.5361 28.2933 39.5454 29.1346C39.6134 31.2766 41.3168 30.3654 42.7108 31.9328C41.8064 32.3204 41.6908 33.4662 42.0308 34.2856C42.0926 34.4427 42.1761 34.5903 42.279 34.7242C42.2933 35.0437 42.3842 35.355 42.5442 35.632C42.9794 36.4582 43.7546 36.7438 43.7954 36.8662C43.7954 38.7906 44.2 41.1366 44.5842 43.0134C43.2888 42.3334 39.4468 40.7116 35.496 40.596C35.7204 38.6478 37.4034 38.403 37.1722 37.1008C37.876 37.0736 38.5798 37.0464 39.2836 37.0124C39.4604 37.0124 39.2666 36.4684 39.2462 36.3766C38.9606 35.1186 38.6739 33.8628 38.386 32.6094C38.3418 32.4394 38.1446 31.297 37.978 31.297L35.785 31.3378C35.3022 30.8788 34.17 30.7088 33.7076 31.2426C33.0276 29.9336 30.9264 30.124 30.8584 31.3956C30.2838 31.0046 29.4304 30.9264 28.9102 31.4568C28.8558 31.4806 18.5708 31.62 17.0408 31.6812H17.0136C16.9971 31.6917 16.9853 31.7082 16.9809 31.7273C16.9764 31.7464 16.9796 31.7664 16.9898 31.7832C17.017 31.96 16.1296 36.1556 16.0242 37.1654C16.0242 37.3082 17.5644 37.2878 17.7242 37.2878C15.5278 39.8616 13.5524 42.7652 12.9642 46.1618C9.25822 46.104 5.55222 46.0121 1.84622 46.0258C1.82819 46.0258 1.81089 46.0329 1.79814 46.0457C1.78538 46.0584 1.77822 46.0757 1.77822 46.0938C1.77822 46.1118 1.78538 46.1291 1.79814 46.1418C1.81089 46.1546 1.82819 46.1618 1.84622 46.1618C5.53522 46.3216 9.23442 46.3386 12.9268 46.3658C12.8168 47.0399 12.7713 47.723 12.7908 48.4058C9.11882 48.331 5.44682 48.2154 1.77822 48.1542C1.69662 48.1542 1.68302 48.2834 1.77822 48.2834C5.45022 48.4704 9.12902 48.5384 12.8078 48.5928C12.903 50.439 13.6306 52.7034 15.4394 53.533C16.184 54.995 17.7616 56.3108 19.5194 55.9334C19.4684 56.1986 19.4208 56.4706 19.3698 56.7426C19.3494 56.865 19.533 56.916 19.5534 56.7936C20.0532 54.1008 20.5734 51.3944 21.4472 48.7968C21.4744 48.7152 21.352 48.6846 21.3214 48.7628C20.4714 51.0204 19.992 53.3936 19.55 55.7566C17.7514 56.0184 16.3166 54.8726 15.572 53.3222C15.1714 52.5029 14.9397 51.6115 14.8906 50.7009C14.8416 49.7903 14.9762 48.8791 15.2864 48.0216C16.2146 45.6416 18.6864 43.9416 21.114 42.7788C23.5823 41.609 26.2332 40.8718 28.951 40.5994C29.1448 42.415 31.2324 43.0304 32.8236 42.9352C34.4148 42.84 35.3566 42.3538 35.4926 40.749C35.513 40.749 41.2352 40.8748 46.1754 44.1762C47.6272 45.1451 48.9464 46.3896 49.7182 47.9706C50.473 49.4972 50.7382 51.3706 50.0582 52.9618C49.0858 55.2806 47.311 55.6172 46.1346 55.8246C45.7187 53.335 44.9156 50.9258 43.7546 48.6846C43.724 48.6268 43.6288 48.6642 43.6594 48.7254C44.8702 51.3362 45.6959 54.1089 46.1108 56.9568C46.1108 57.0452 46.2876 57.069 46.2876 56.9568C46.2738 56.6455 46.2329 56.3361 46.1652 56.032C47.4474 55.9217 48.6347 55.3109 49.47 54.332C52.19 53.652 53.3766 50.711 53.21 48.1202C57.5529 47.9434 61.8913 47.7167 66.2252 47.4402C66.3442 47.396 66.3 47.2294 66.198 47.2294ZM16.6294 24.9798C15.9494 20.655 15.4088 16.3506 14.7934 12.0224C24.9934 11.8456 35.4586 11.9204 45.5192 11.7504L44.7338 24.5038C40.4872 24.633 17.1768 24.7656 16.6294 24.9798ZM37.1314 36.9104C37.0692 36.7291 36.9499 36.5728 36.7914 36.465C36.9677 36.1846 37.063 35.8611 37.0668 35.53H37.2504L37.5054 36.89L37.1314 36.9104ZM36.8458 34.4182C36.904 34.3713 36.9575 34.3189 37.0056 34.2618C37.0872 34.6256 37.1552 34.9894 37.2232 35.3532H37.06C37.0767 35.0277 37.0025 34.7039 36.8458 34.4182ZM39.1714 36.822L37.6074 36.89C37.5666 36.431 37.4782 35.9788 37.3966 35.53C37.8854 35.5462 38.3747 35.5337 38.862 35.4926C38.964 35.9312 39.0694 36.38 39.1714 36.822ZM38.8314 35.3362H37.3694L37.1246 34.0612L38.5356 34.0204L38.8314 35.3362ZM38.4914 33.8742L37.162 33.915C37.1876 33.7537 37.1761 33.5888 37.1283 33.4327C37.0806 33.2765 36.998 33.1333 36.8866 33.014C36.8662 32.912 36.8458 32.8066 36.8186 32.7012L38.2194 32.6706L38.4914 33.8742ZM37.9712 31.4466C38.046 31.7866 38.114 32.1504 38.182 32.504L36.7846 32.5278C36.7132 32.1703 36.6213 31.8172 36.5092 31.4704L37.9712 31.4466ZM36.686 32.8882C36.5205 32.8129 36.3335 32.7996 36.159 32.8508C36.1746 32.8087 36.1871 32.7655 36.1964 32.7216H36.6452L36.686 32.8882ZM36.346 31.4738C36.4098 31.8307 36.4938 32.1837 36.5976 32.5312H36.2202C36.2591 32.1545 36.1547 31.7769 35.9278 31.4738H36.346ZM28.1146 31.62H28.7708C28.6322 31.8342 28.5834 32.0943 28.6348 32.3442L28.0568 32.5108C28.084 32.2184 28.1146 31.892 28.1146 31.62ZM27.931 31.62V32.5686C27.8734 32.6028 27.8178 32.6403 27.7644 32.6808L26.1562 32.708C26.1711 32.3552 26.1609 32.0019 26.1256 31.6506L27.931 31.62ZM27.217 34.085H26.146V32.895L27.54 32.8712C27.3926 33.0326 27.2862 33.2272 27.23 33.4385C27.1738 33.6498 27.1693 33.8716 27.217 34.085ZM26.1528 35.6592H27.081C27.0942 35.9558 27.204 36.24 27.3938 36.4684C27.2816 36.546 27.1914 36.6512 27.1318 36.7739C27.0723 36.8966 27.0454 37.0326 27.0538 37.1688H26.1358C26.146 36.6588 26.1528 36.159 26.1528 35.6592ZM27.1728 35.2478C27.143 35.3187 27.1213 35.3929 27.1082 35.4688H26.1698V34.2414H27.268C27.3419 34.4443 27.4744 34.6206 27.6488 34.748C27.4364 34.8579 27.2648 35.0331 27.1592 35.2478H27.1728ZM26.0338 37.1654H21.8212C21.8654 36.5806 21.8212 36.2134 22.1986 35.7102L25.9964 35.666C25.993 36.1658 26.0032 36.6656 26.0202 37.1654H26.0338ZM22.338 35.5232C22.6918 35.1655 22.9593 34.7317 23.12 34.255H23.97V35.5028L22.338 35.5232ZM24.1876 31.688L25.9692 31.6574C25.9501 32.0096 25.9501 32.3625 25.9692 32.7148L24.1774 32.7454C24.1774 32.3952 24.1808 32.0416 24.1876 31.688ZM24.1638 32.9324L25.9624 32.9018V34.0918H24.14C24.14 33.7042 24.14 33.32 24.1638 32.9324ZM24.14 34.2516H25.9794V35.479L24.0652 35.5028C24.0924 35.0846 24.1128 34.68 24.14 34.2516ZM22.44 31.7186L24.0686 31.6914L24.0312 32.7488L22.372 32.776C22.4124 32.425 22.4249 32.0715 22.4094 31.7186H22.44ZM22.3584 32.9596L24.0278 32.9324L23.9972 34.0884H23.1642C23.205 33.9014 23.2798 33.5954 23.0588 33.4934C22.8378 33.3914 22.627 33.9014 22.219 34.085C22.2564 33.711 22.2904 33.337 22.3278 32.963L22.3584 32.9596ZM20.9032 31.7458L22.3074 31.722C22.2588 32.0726 22.2282 32.4256 22.2156 32.7794H22.1C22.2462 32.4224 21.4574 32.1912 20.7774 32.7794C20.7876 32.606 20.8828 31.8614 20.8726 31.7458H20.9032ZM22.1714 32.98C22.1476 33.3506 22.1272 33.7178 22.1034 34.0884H21.573C21.471 33.7892 21.573 33.0854 21.845 32.98H22.1646H22.1714ZM20.6992 31.756L20.6448 32.81H20.009C19.7574 32.2864 19.9172 31.8886 19.669 31.7628L20.6992 31.756ZM20.5632 33.0004C20.4848 33.0985 20.4186 33.2059 20.366 33.32L20.1144 33.0106L20.5632 33.0004ZM18.3906 31.8002L19.482 31.7798C19.142 31.943 19.091 32.521 19.091 32.8372H18.5776C18.4042 32.6876 18.3294 32.8372 18.2002 32.8372L18.3838 31.7798L18.3906 31.8002ZM19.1454 33.5274C18.9567 33.4015 18.8034 33.2294 18.7 33.0276H19.0842C19.0883 33.1951 19.1042 33.3621 19.1318 33.5274H19.1454ZM18.02 34.0374L18.1832 33.0378C18.1491 33.3829 18.1921 33.7313 18.309 34.0578L18.02 34.0374ZM18.36 34.204C18.4994 34.6698 18.7 35.0948 18.7952 35.564L17.7752 35.5844L17.9792 34.2006L18.36 34.204ZM17.1258 31.8036H18.241C18.1764 32.1436 18.1152 32.5108 18.054 32.8678C17.6834 32.8678 17.3094 32.8882 16.9388 32.9052C17.0189 32.5418 17.0768 32.1739 17.1122 31.8036H17.1258ZM16.915 33.0446H18.02C17.969 33.3846 17.9146 33.7246 17.8602 34.0408H16.7212C16.779 33.7008 16.8402 33.371 16.9014 33.0446H16.915ZM16.7076 34.1598C17.0816 34.1802 17.4556 34.1904 17.8296 34.1972C17.765 34.6562 17.6902 35.122 17.629 35.5844C17.2312 35.5844 16.8334 35.6116 16.4356 35.6286C16.5274 35.139 16.6158 34.6494 16.7076 34.1598ZM17.4726 37.1076H16.1602C16.2452 36.652 16.3336 36.1998 16.4254 35.7476L17.6052 35.7782C17.5335 36.2185 17.4847 36.6622 17.459 37.1076H17.4726ZM17.5678 37.1076L17.7684 35.7476H18.8258C18.836 35.8379 18.836 35.9292 18.8258 36.0196L17.8704 37.111L17.5678 37.1076ZM15.2524 47.5558C14.8547 48.4619 14.6559 49.4427 14.6694 50.4321C14.6829 51.4216 14.9084 52.3966 15.3306 53.2916C12.0394 51.068 12.7398 46.1516 14.1406 43.01C15.2864 40.4362 17.102 38.25 18.9618 36.1522C19.2338 35.8428 18.3532 33.7722 18.3226 33.2656C18.3022 32.8882 18.4586 32.81 18.598 33.0786C18.7374 33.3472 18.938 33.6532 19.2134 33.7178C19.3222 34.0374 19.4072 33.9354 19.3936 33.8844C19.278 33.3234 19.0774 32.5244 19.4514 32.0076C19.7234 31.6472 19.7132 32.3102 19.7404 32.4394C19.805 32.7488 20.0804 33.3472 20.3286 33.4594C20.2436 33.7008 20.3864 33.6158 20.3966 33.5852C20.8794 32.317 22.355 32.4972 21.879 32.81C21.7535 32.8849 21.6469 32.9876 21.5673 33.1102C21.4877 33.2328 21.4373 33.372 21.42 33.5172C21.2466 34.7174 22.1918 34.5372 22.8786 33.7008C23.1642 33.3608 23.1778 34.0918 22.7256 34.8296C22.3414 35.4552 21.8212 35.6796 21.76 36.499C21.59 38.5016 21.1786 40.8918 20.9032 42.653C18.6456 43.7444 16.337 45.22 15.2388 47.5592L15.2524 47.5558ZM21.08 42.5612C21.412 40.8323 21.6492 39.0867 21.7906 37.332H27.064C27.2612 38.471 28.6756 38.624 28.9034 40.392C26.1898 40.6573 23.5428 41.3912 21.08 42.5612ZM35.4348 39.8174C35.3502 40.0847 35.2954 40.3607 35.2716 40.6402C35.1356 42.0818 34.5236 42.5612 32.9222 42.6802C31.2222 42.8196 29.3794 42.2824 29.121 40.4498C28.8932 38.8178 28.3696 38.9606 27.5298 37.8182C27.2782 37.4782 27.0538 36.8458 27.5298 36.5806C27.7637 36.8374 28.0566 37.0335 28.3832 37.1518C29.1176 38.8008 29.3658 40.7014 31.501 40.9122C35.6286 41.2964 34.7038 39.049 36.0128 37.0872C36.2673 36.9695 36.4978 36.8058 36.6928 36.6044C36.8412 36.7284 36.9437 36.8988 36.9838 37.088C37.0239 37.2773 36.9992 37.4746 36.9138 37.6482C36.5806 38.454 35.7782 38.76 35.4348 39.8174ZM43.86 32.1912C43.9756 32.4496 44.0946 32.7046 44.2 32.963C44.0334 32.7488 43.2174 31.858 42.9454 32.334C42.806 32.5822 43.0984 32.9528 43.2174 33.1738C42.7611 33.2546 42.3532 33.5078 42.0784 33.881C41.6432 32.3 43.18 31.5112 43.86 32.1912ZM42.3232 34.5066C42.2586 34.3468 42.1906 34.1836 42.1226 34.0238C42.421 33.6744 42.8219 33.4281 43.2684 33.32C43.4597 33.7148 43.5838 34.1389 43.6356 34.5746C43.7274 35.445 43.061 34.8228 42.738 34.5236C42.6122 34.3944 42.4014 34.34 42.3062 34.5066H42.3232ZM49.6842 54.026C50.8096 52.4484 50.8572 50.4118 50.2044 48.6302C49.2796 46.1108 47.0798 44.3462 44.7644 43.112C44.3192 41.056 44.0305 38.9692 43.9008 36.8696C43.9008 36.55 42.8196 36.3324 42.483 35.0778C42.4218 34.85 42.296 34.2516 42.7074 34.68C43.1188 35.1084 43.8192 35.5028 43.7886 34.5644C43.7478 33.4526 42.993 32.7114 43.061 32.4598C43.146 32.1436 43.775 32.7386 43.877 32.8406C44.1428 33.1329 44.3839 33.4468 44.5978 33.779C44.6352 33.8334 44.727 33.779 44.693 33.728C44.6137 33.592 44.5321 33.456 44.4482 33.32C44.5026 33.2044 43.8906 32.1232 43.9994 32.0212C44.1082 31.9192 44.5978 32.2728 44.7066 32.3612C45.2744 32.8542 45.3016 33.184 45.4954 33.439C45.5042 33.4421 45.5138 33.4421 45.5226 33.439C45.5347 33.4399 45.5467 33.4363 45.5562 33.4287C45.5657 33.4211 45.5719 33.4102 45.5736 33.3982C45.5532 33.1806 45.4274 33.0582 45.3662 32.9086C45.305 32.759 45.1792 32.4224 45.2642 32.3034C45.305 32.2694 45.5396 32.4428 45.5668 32.47C45.7911 32.6848 45.9784 32.9352 46.121 33.2112C47.1614 34.9894 46.8486 36.1352 47.0254 36.3086C49.606 39.2156 52.3634 43.4724 52.921 47.3144C53.2984 49.98 52.4586 53.0876 49.6672 54.026H49.6842Z" fill="black"/>
<path d="M25.024 17C25.1022 16.9762 25.0716 16.864 25.0002 16.8538C23.7626 16.8776 22.4468 16.8538 21.2262 16.8878C21.131 16.8878 21.1446 17.034 21.2262 17.0476C21.8518 17.1496 24.48 17.1666 25.024 17ZM57.4838 35.1832C57.9462 34.9826 60.2038 34.0714 60.4724 33.9184C60.4775 33.914 60.4815 33.9085 60.4843 33.9023C60.4871 33.8962 60.4885 33.8895 60.4885 33.8827C60.4885 33.876 60.4871 33.8693 60.4843 33.8632C60.4815 33.857 60.4775 33.8515 60.4724 33.847C60.4669 33.8388 60.4592 33.8322 60.4502 33.828C60.4412 33.8238 60.4313 33.8222 60.4214 33.8232C59.8502 33.9422 58.0006 34.8228 57.426 35.1084C57.3954 35.1322 57.4362 35.2036 57.4838 35.1832ZM34.68 27.2L27.472 27.3088C27.7814 30.804 34.7718 30.8584 34.68 27.2ZM34.68 19.72C34.68 19.7348 34.6856 19.749 34.6957 19.7598C34.7058 19.7705 34.7197 19.777 34.7344 19.7778C35.887 19.805 38.3248 19.8764 39.2462 19.7506C39.321 19.7506 39.2972 19.6248 39.2462 19.6248C37.944 19.6248 36.0638 19.6248 34.7514 19.6622C34.7428 19.6601 34.7338 19.6601 34.7251 19.662C34.7164 19.664 34.7083 19.6679 34.7014 19.6735C34.6945 19.6791 34.689 19.6862 34.6853 19.6943C34.6816 19.7023 34.6798 19.7112 34.68 19.72ZM24.82 14.62C24.9152 14.62 24.8744 14.484 24.7962 14.4704C22.4536 14.5384 19.9036 14.5894 17.6188 14.6404C17.6112 14.6417 17.6038 14.6444 17.5973 14.6485C17.5907 14.6526 17.5851 14.658 17.5806 14.6644C17.5762 14.6707 17.5731 14.6779 17.5714 14.6854C17.5698 14.693 17.5697 14.7008 17.5712 14.7084C17.5732 14.7203 17.5788 14.7313 17.5874 14.7399C17.5959 14.7484 17.6069 14.7541 17.6188 14.756C19.2814 14.875 22.661 14.6948 24.82 14.62ZM26.129 13.8414C26.2072 13.8414 26.231 13.7054 26.129 13.6952C25.3674 13.6034 17.8568 13.7258 17.3332 13.8414C17.2822 13.8414 17.2856 13.9434 17.3332 13.9434C19.261 13.94 23.8816 13.8074 26.129 13.8414ZM11.492 38.1854C11.754 37.7009 11.9549 37.1859 12.0904 36.652C12.1537 36.4686 12.1682 36.2718 12.1324 36.081C12.0967 35.8903 12.0119 35.7121 11.8864 35.564C12.0098 35.2535 12.0733 34.9224 12.0734 34.5882C12.0054 34.034 11.4172 34.068 11.101 34.493C9.82601 36.193 8.41841 38.913 8.45921 41.004C8.43541 41.1026 8.48641 41.2148 8.57481 41.1332C10.0843 39.6377 11.2009 37.7923 11.8252 35.7612C12.2502 36.3936 11.594 37.485 11.3492 38.1242C11.3186 38.2092 11.4478 38.2602 11.492 38.1854ZM8.58841 40.8646C8.61335 40.4873 8.66562 40.1124 8.74481 39.7426L9.26841 40.12C9.04741 40.3648 8.81961 40.6198 8.58841 40.8646ZM11.747 35.4246C11.5168 35.2314 11.2403 35.1014 10.9446 35.0472C11.0582 34.8397 11.1951 34.6458 11.3526 34.4692C11.5056 34.3264 11.798 34.2686 11.8864 34.51C11.9164 34.8195 11.8685 35.1316 11.747 35.4178V35.4246ZM20.4 18.105C20.2504 18.1662 19.38 19.465 19.2202 19.6928C19.0224 19.43 18.7941 19.1914 18.5402 18.9822C18.526 18.9757 18.5099 18.9744 18.4949 18.9788C18.4799 18.9832 18.467 18.9929 18.4586 19.006C18.4536 19.0192 18.4536 19.0337 18.4586 19.0468C18.6525 19.3643 18.8805 19.6596 19.1386 19.9274C19.1479 19.9376 19.1591 19.9458 19.1717 19.9514C19.1843 19.957 19.1979 19.9599 19.2117 19.9599C19.2255 19.9599 19.2391 19.957 19.2517 19.9514C19.2643 19.9458 19.2756 19.9376 19.2848 19.9274V19.9104L20.4 18.3872C20.5564 18.1662 20.5122 18.0472 20.4 18.105ZM40.8 16.32C40.8714 16.32 40.885 16.184 40.8 16.1738C38.6786 16.0683 36.5527 16.099 34.4352 16.2656C34.3638 16.2656 34.3706 16.3914 34.4352 16.388C36.04 16.3744 39.049 16.4254 40.8 16.32Z" fill="black"/>
<path d="M20.4 20.1653C20.536 20.1109 20.264 19.0977 20.2266 18.9379C20.2255 18.9307 20.223 18.9239 20.2192 18.9177C20.2154 18.9115 20.2105 18.9061 20.2047 18.9019C20.1988 18.8976 20.1922 18.8946 20.1852 18.8928C20.1781 18.8911 20.1708 18.8908 20.1637 18.892C20.1566 18.8931 20.1497 18.8956 20.1435 18.8994C20.1374 18.9031 20.132 18.9081 20.1277 18.9139C20.1235 18.9197 20.1204 18.9264 20.1187 18.9334C20.117 18.9404 20.1167 18.9477 20.1178 18.9549C20.1586 19.3187 20.1994 19.6859 20.2674 20.0429C19.6996 20.0871 19.1862 20.0837 18.632 20.1075C18.53 19.6655 18.4416 19.0875 18.292 18.6489C18.7196 18.6848 19.1496 18.6848 19.5772 18.6489C19.8594 18.6489 19.839 18.4721 19.5976 18.4755C19.4548 18.4755 18.2376 18.4517 18.2376 18.5979C18.0778 18.5979 18.4144 20.0225 18.4348 20.1177C18.4383 20.1346 18.4471 20.15 18.46 20.1616C18.4728 20.1732 18.489 20.1805 18.5062 20.1823C18.547 20.3591 20.3354 20.3319 20.4 20.1653ZM40.9904 18.9719C40.9874 18.9586 40.9801 18.9468 40.9696 18.9382C40.9592 18.9296 40.9461 18.9247 40.9326 18.9243C38.8722 18.8699 36.669 18.9685 34.5814 18.9651C34.5202 18.9651 34.5168 19.0671 34.5814 19.0739C36.4106 19.1963 39.2394 19.2711 40.9462 19.0467C40.9615 19.0419 40.9746 19.0316 40.9827 19.0178C40.9909 19.004 40.9936 18.9876 40.9904 18.9719ZM18.5538 17.7071C19.0307 17.7204 19.508 17.6988 19.9818 17.6425C20.2776 17.7173 19.8254 15.8609 19.771 15.7759C19.7638 15.7598 19.7517 15.7466 19.7364 15.738C19.7211 15.7294 19.7034 15.726 19.686 15.7283C19.38 15.7283 17.9588 15.7283 17.7582 15.7725C17.5134 15.5753 17.8704 17.2515 17.9214 17.4521C18.02 17.7887 18.2376 17.7071 18.5538 17.7071ZM17.799 15.8881C18.4263 15.9647 19.0601 15.9738 19.6894 15.9153L19.907 17.4861L18.1254 17.5779C18.139 17.4623 17.8398 16.1125 17.799 15.8881ZM39.3788 17.0339C39.3968 17.0339 39.4141 17.0267 39.4269 17.0139C39.4396 17.0012 39.4468 16.9839 39.4468 16.9659C39.4468 16.9478 39.4396 16.9305 39.4269 16.9178C39.4141 16.905 39.3968 16.8979 39.3788 16.8979C38.9572 16.8129 35.3328 16.9421 34.5814 17.0067C34.5236 17.0067 34.5236 17.1053 34.5814 17.1087C34.9894 17.1257 38.9742 17.1359 39.3788 17.0339ZM10.829 27.8187C10.8936 27.8187 11.373 27.5467 11.4852 27.9887C11.6416 28.5939 12.2536 28.2301 12.3522 27.7677C12.478 27.1965 11.934 26.7477 11.2914 26.7477C9.9858 26.7477 10.285 27.8799 10.829 27.8187ZM11.2914 26.8803C12.0258 26.9041 12.478 27.5977 12.0326 28.0057C11.6518 28.3457 11.6926 27.8561 11.509 27.6657C11.1418 27.3257 10.8494 27.7371 10.642 27.5637C10.217 27.2237 11.0296 26.8599 11.2914 26.8803ZM19.2542 21.3417C18.7204 21.3417 18.7 21.2533 18.768 21.7735C18.7884 21.9197 18.8938 22.9533 19.0706 22.9635C19.108 23.1267 20.6346 23.0689 20.8284 23.0111C21.0902 23.0111 20.8284 22.2053 20.8284 22.1135C20.604 20.9303 20.8828 21.2975 19.2542 21.3417ZM19.1556 22.8853C19.0706 22.4569 19.006 21.8891 18.8836 21.4811C19.4403 21.5355 20.0018 21.5149 20.553 21.4199C20.5876 21.8932 20.6615 22.3629 20.774 22.8241C20.2436 22.8479 19.6928 22.8751 19.1556 22.8853ZM41.5242 13.6407C40.8986 13.5829 31.8886 13.6407 30.7462 13.7291C30.7314 13.7316 30.7182 13.7397 30.7094 13.7518C30.7005 13.7638 30.6966 13.7788 30.6986 13.7937C30.701 13.8054 30.7068 13.8161 30.7153 13.8246C30.7237 13.8331 30.7345 13.8388 30.7462 13.8413C31.7152 13.8923 40.8306 13.8685 41.5242 13.7903C41.544 13.7903 41.5631 13.7824 41.5771 13.7684C41.5911 13.7543 41.599 13.7353 41.599 13.7155C41.599 13.6956 41.5911 13.6766 41.5771 13.6626C41.5631 13.6485 41.544 13.6407 41.5242 13.6407ZM26.18 16.1397C26.2582 16.1227 26.231 16.0173 26.163 16.0037L20.9984 16.1329C20.9909 16.1337 20.9836 16.136 20.9771 16.1398C20.9705 16.1435 20.9649 16.1486 20.9604 16.1547C20.9559 16.1608 20.9527 16.1677 20.9511 16.1751C20.9494 16.1824 20.9493 16.1901 20.9508 16.1975C20.9528 16.2094 20.9584 16.2204 20.967 16.2289C20.9755 16.2374 20.9865 16.2431 20.9984 16.2451C22.2938 16.3403 25.0546 16.3675 26.18 16.1397ZM46.6582 25.6971C46.682 25.9555 46.9404 28.5327 47.0356 28.7197C47.7156 30.0457 50.218 30.0797 50.2724 28.1179C50.3676 27.3019 50.6974 24.9593 50.5682 24.3779C50.6056 24.1875 50.8028 23.3579 50.8402 22.9193C50.8402 22.8479 50.9762 20.9065 50.7042 21.2023C50.3412 21.6856 50.0193 22.1985 49.742 22.7357C49.6944 22.9431 49.6468 23.1471 49.5958 23.3511C49.4454 23.2943 49.2892 23.2544 49.13 23.2321C49.13 23.0927 49.028 22.4127 48.9804 22.1407C48.7458 21.6851 48.5044 21.2771 48.3004 20.8045C48.0114 20.0939 48.0046 20.0803 47.923 20.8623C47.7868 21.6589 47.7868 22.4728 47.923 23.2695C46.3828 23.5891 46.5426 24.4969 46.6548 25.6971H46.6582ZM50.3778 21.9571C50.4194 21.9973 50.4692 22.0281 50.5237 22.0475C50.5783 22.0668 50.6363 22.0743 50.694 22.0693V22.9261C50.5507 22.94 50.4062 22.9248 50.2689 22.8816C50.1316 22.8384 50.0044 22.7679 49.895 22.6745C50.0616 22.4399 50.235 22.1985 50.3778 21.9571ZM49.8882 22.8513C50.1134 23.0114 50.3837 23.0959 50.66 23.0927C50.5478 23.7251 50.4356 24.3541 50.3472 24.9899C50.2316 25.4047 49.6672 25.5543 49.3 25.6053C49.5244 24.7077 49.6944 23.7421 49.8882 22.8411V22.8513ZM49.2082 25.3605C49.1916 25.4458 49.1803 25.5321 49.1742 25.6189L48.3446 25.6393L48.0046 22.4365C48.1583 22.4829 48.3211 22.491 48.4787 22.4602C48.6363 22.4294 48.784 22.3606 48.909 22.2597C48.909 22.2597 49.13 25.3095 49.2082 25.3503V25.3605ZM48.0454 21.3485C48.0975 21.3621 48.1518 21.3649 48.205 21.3567C48.2582 21.3485 48.3092 21.3295 48.3548 21.3009L48.8206 22.1373C48.6985 22.2282 48.557 22.2897 48.4072 22.3168C48.2573 22.344 48.1032 22.336 47.957 22.2937C47.9511 21.9729 47.9808 21.6525 48.0454 21.3383V21.3485ZM50.4016 25.2653C50.3404 26.1221 50.2316 27.9309 50.0106 28.7401C49.6196 29.7907 47.9162 29.8077 47.1648 28.7401C47.022 27.5603 46.8792 26.3601 46.7398 25.1973C47.3756 26.1187 49.8474 26.0065 50.4016 25.2551V25.2653Z" fill="black"/>
<path d="M4.69542 29.0121C5.2129 29.2823 5.75922 29.4933 6.32402 29.6411C5.23941 31.1337 8.34361 33.2621 11.1826 32.1265C12.4848 31.6063 13.787 29.9539 12.512 28.8081C13.872 27.7099 14.3514 26.1255 14.2936 24.3881C14.2052 21.7089 13.022 19.7369 10.3122 19.1011C8.97719 18.7886 7.57822 18.8967 6.30701 19.4105L5.78001 18.4993C5.94661 18.4109 6.12001 18.3259 6.29001 18.2511C6.73881 18.0981 6.60281 17.7683 6.33761 17.8669C1.12882 19.7675 -0.0747845 26.6185 4.69542 29.0121ZM6.36481 29.4031C6.26961 29.0631 6.52461 28.7231 6.40561 28.3525C6.13362 27.4719 4.99462 27.9819 4.70562 27.3869C4.38942 26.7375 5.23261 26.6253 5.40262 26.1595C5.43268 26.0779 5.44034 25.9898 5.42479 25.9043C5.40924 25.8188 5.37106 25.739 5.31421 25.6733C4.82462 25.0613 3.69242 25.7073 4.01542 24.2793C4.26022 23.2015 5.30061 22.6915 6.05541 23.1675C6.81021 23.6435 7.26241 23.9631 8.21781 23.4055C9.80902 22.4705 9.61181 24.4255 9.12562 25.0171C8.86722 25.3367 8.39801 25.3197 8.03761 25.4557C6.86121 25.8977 6.86802 26.6899 7.79962 26.8837C8.16002 26.9585 8.62242 26.9245 8.90461 27.1965C9.66962 27.9411 8.08861 29.5323 7.58881 29.7941C7.32021 29.7397 6.50081 29.5799 6.36481 29.4031ZM10.6794 19.4003C12.682 20.0225 13.7394 21.4709 14.025 23.5415C14.1608 24.4351 14.1273 25.3462 13.9264 26.2275C13.8448 26.3397 12.6956 26.6559 12.325 26.1799C12.1819 25.9875 12.0864 25.764 12.0462 25.5276C12.006 25.2912 12.0223 25.0487 12.0938 24.8199C12.3148 24.2487 13.0662 23.7455 12.835 23.1607C12.5154 22.3515 11.5804 23.4565 11.186 23.2287C10.5944 22.8887 11.7028 22.2359 10.438 22.0013C9.97221 21.9163 9.59141 22.1067 9.24801 21.5933C8.46262 20.4169 10.506 19.3969 10.6794 19.3901V19.4003ZM6.80001 20.9065C6.81468 20.9296 6.83691 20.947 6.86293 20.9557C6.88895 20.9644 6.91717 20.9638 6.94281 20.9541C6.97227 20.942 6.99584 20.9188 7.00854 20.8896C7.02123 20.8604 7.02205 20.8274 7.01082 20.7977L6.39201 19.5907C7.6531 19.085 9.04152 18.9898 10.3598 19.3187C8.65981 19.8797 8.45921 21.7973 9.67981 22.1271C9.93821 22.1985 11.0942 22.0965 10.8936 22.5895C10.8529 22.6694 10.8301 22.7573 10.8267 22.847C10.8233 22.9367 10.8395 23.026 10.8741 23.1088C10.9087 23.1916 10.9609 23.2659 11.0271 23.3265C11.0933 23.3871 11.1719 23.4326 11.2574 23.4599C11.7334 23.5449 12.2434 22.8275 12.5936 23.1199C13.2056 23.6299 11.6076 24.4187 11.8796 25.5543C12.0836 26.4247 12.444 26.7001 13.328 26.5743C13.5217 26.5576 13.7095 26.4996 13.8788 26.4043C13.1478 28.9645 10.4142 30.1443 7.91522 29.8349C8.41842 29.3725 9.20042 28.4545 9.27522 27.7949C9.39082 26.6253 8.04781 26.8599 7.55481 26.6015C6.87481 26.2615 7.84722 25.6699 8.46941 25.5339C8.6733 25.5003 8.87064 25.4349 9.05421 25.3401C10.0742 24.7145 9.79202 22.1985 8.31302 23.1267C7.04822 23.9189 6.65722 23.2457 6.06902 22.9431C5.12722 22.4637 3.83522 23.2185 3.77062 24.6431C3.73322 25.6121 4.53221 25.4047 4.99801 25.6631C5.0815 25.6944 5.1512 25.7542 5.19476 25.832C5.23832 25.9098 5.25294 26.0005 5.23601 26.0881C5.12721 26.4281 4.63421 26.4961 4.49821 26.9075C4.44444 27.0679 4.4464 27.2418 4.50379 27.401C4.56118 27.5602 4.67063 27.6954 4.81441 27.7847C5.25981 28.0431 6.04861 27.8187 6.23561 28.4341C6.32741 28.7333 6.14721 29.0393 6.16761 29.3419C5.30015 29.0301 4.5363 28.4835 3.96119 27.7632C3.38608 27.0428 3.02231 26.1768 2.91042 25.2619C2.60442 22.9499 4.01541 20.7025 6.08941 19.7199C6.30361 20.1143 6.57221 20.5223 6.80001 20.9065ZM3.74002 19.9987C4.25042 19.4694 4.83858 19.0211 5.48421 18.6693C5.67372 18.96 5.84737 19.2608 6.00441 19.5703C4.93733 20.066 4.04925 20.879 3.46143 21.8983C2.8736 22.9175 2.61468 24.0934 2.72002 25.2653C2.79089 25.9369 3.00143 26.5864 3.3381 27.1719C3.67478 27.7574 4.13016 28.2661 4.67501 28.6653C1.42462 26.8599 1.28862 22.6031 3.74002 19.9987ZM40.0282 22.3957C39.7358 22.3311 35.3634 22.3107 34.7446 22.3957C34.7293 22.3957 34.7146 22.4017 34.7037 22.4126C34.6929 22.4234 34.6868 22.4381 34.6868 22.4535C34.6868 22.4688 34.6929 22.4835 34.7037 22.4943C34.7146 22.5052 34.7293 22.5113 34.7446 22.5113C34.9792 22.5453 39.5488 22.6235 40.0282 22.5113C40.0441 22.5077 40.0583 22.4989 40.0684 22.4862C40.0786 22.4736 40.0841 22.4578 40.0841 22.4416C40.0841 22.4253 40.0786 22.4095 40.0684 22.3969C40.0583 22.3842 40.0441 22.3754 40.0282 22.3719V22.3957ZM41.48 14.5757C38.199 14.6131 33.9592 14.5009 31.0012 14.5757C30.9196 14.5757 30.9264 14.6913 31.0012 14.6981C32.2422 14.8341 40.4804 14.8239 41.48 14.6981C41.4897 14.6972 41.4992 14.6944 41.5078 14.6898C41.5164 14.6852 41.5239 14.6789 41.53 14.6712C41.536 14.6636 41.5404 14.6548 41.543 14.6454C41.5455 14.6359 41.546 14.6261 41.5446 14.6165C41.5392 14.604 41.5301 14.5934 41.5186 14.5861C41.5071 14.5788 41.4936 14.5752 41.48 14.5757ZM41.1162 21.6579C39.1272 21.6137 36.6418 21.7361 34.5236 21.6817C34.4624 21.6817 34.4488 21.7701 34.5236 21.7769C35.8258 21.9061 39.9024 22.0353 41.1298 21.7973C41.1944 21.7803 41.2012 21.6579 41.1162 21.6579Z" fill="black"/>
</svg>
