<svg width="48" height="48" viewBox="0 0 48 48" fill="none" xmlns="http://www.w3.org/2000/svg">
<g clip-path="url(#clip0_25_194)">
<path d="M36.6315 11.3687H11.3685V36.6316H36.6315V11.3687Z" fill="white"/>
<path d="M36.6315 47.9999L48 36.6314L42.3157 35.6616L36.6315 36.6314L35.5941 41.8307L36.6315 47.9999Z" fill="#EA4335"/>
<path d="M0 36.6314V44.2103C0 46.3041 1.69575 47.9999 3.78937 47.9999H11.3685L12.5357 42.3156L11.3685 36.6314L5.17481 35.6616L0 36.6314Z" fill="#188038"/>
<path d="M48 11.3685V3.78937C48 1.69575 46.3042 0 44.2106 0H36.6315C35.94 2.81925 35.5941 4.89394 35.5941 6.22425C35.5941 7.55437 35.94 9.26925 36.6315 11.3685C39.1459 12.0885 41.0406 12.4485 42.3157 12.4485C43.5909 12.4485 45.4856 12.0885 48 11.3685Z" fill="#1967D2"/>
<path d="M48 11.3687H36.6315V36.6316H48V11.3687Z" fill="#FBBC04"/>
<path d="M36.6315 36.6313H11.3685V47.9998H36.6315V36.6313Z" fill="#34A853"/>
<path d="M36.6315 0H3.78956C1.69575 0 0 1.69575 0 3.78937V36.6315H11.3685V11.3685H36.6315V0Z" fill="#4285F4"/>
<path d="M16.5506 30.9663C15.6064 30.3284 14.9526 29.3969 14.5958 28.1651L16.7875 27.262C16.9862 28.0199 17.3336 28.6074 17.8296 29.0242C18.3221 29.441 18.9221 29.6463 19.6232 29.6463C20.34 29.6463 20.9558 29.4284 21.4705 28.9925C21.9853 28.5567 22.2443 28.001 22.2443 27.3284C22.2443 26.6399 21.9726 26.0778 21.4296 25.642C20.8864 25.2063 20.2043 24.9884 19.3896 24.9884H18.1232V22.8191H19.26C19.9611 22.8191 20.5515 22.6295 21.0315 22.2504C21.5115 21.8716 21.7515 21.3536 21.7515 20.6936C21.7515 20.1063 21.5368 19.6389 21.1075 19.2884C20.6781 18.9378 20.1347 18.761 19.4747 18.761C18.8305 18.761 18.319 18.9316 17.94 19.2757C17.5613 19.6208 17.2765 20.0566 17.1126 20.5421L14.9432 19.6389C15.2305 18.8242 15.7579 18.1042 16.5315 17.4821C17.3053 16.8599 18.2936 16.5474 19.4936 16.5474C20.3811 16.5474 21.18 16.718 21.8875 17.0621C22.5947 17.4063 23.1505 17.8831 23.5515 18.4895C23.9528 19.0989 24.1515 19.781 24.1515 20.5389C24.1515 21.3125 23.9653 21.9663 23.5928 22.5031C23.22 23.0399 22.7621 23.4504 22.219 23.7378V23.8672C22.9203 24.1564 23.5296 24.6313 23.9811 25.241C24.439 25.8567 24.6696 26.5925 24.6696 27.4516C24.6696 28.3104 24.4515 29.0778 24.0158 29.7504C23.58 30.4231 22.977 30.9536 22.2126 31.3389C21.4453 31.7242 20.5832 31.9201 19.6264 31.9201C18.5179 31.9231 17.4949 31.6042 16.5506 30.9663ZM30.0126 20.0904L27.6064 21.8304L26.4032 20.0052L30.72 16.8914H32.3747V31.5789H30.0126V20.0904Z" fill="#4285F4"/>
</g>
<defs>
<clipPath id="clip0_25_194">
<rect width="48" height="48" fill="white"/>
</clipPath>
</defs>
</svg>
