<svg width="48" height="43" viewBox="0 0 48 43" fill="none" xmlns="http://www.w3.org/2000/svg">
<g clip-path="url(#clip0_23_62)">
<path d="M3.62888 36.7566L5.74575 40.4129C6.18563 41.1827 6.81788 41.7876 7.56019 42.2275C9.68644 39.5286 11.1662 37.4575 12.0002 36.0143C12.8464 34.5497 13.8864 32.2587 15.1204 29.1415C11.7949 28.7037 9.27488 28.4849 7.56038 28.4849C5.91469 28.4849 3.39469 28.7037 0 29.1415C0 29.9937 0.219938 30.8459 0.659813 31.6157L3.62888 36.7566Z" fill="#0066DA"/>
<path d="M40.4402 42.2275C41.1827 41.7876 41.8149 41.1827 42.2546 40.4131L43.1344 38.901L47.3407 31.6157C47.7725 30.8626 47.9999 30.0096 48.0004 29.1415C44.586 28.7037 42.0707 28.4849 40.4541 28.4849C38.7167 28.4849 36.2012 28.7037 32.9076 29.1415C34.1269 32.2757 35.1532 34.5668 35.9867 36.0143C36.8272 37.4747 38.3117 39.5457 40.4402 42.2275Z" fill="#EA4335"/>
<path d="M24.0002 13.7458C26.4602 10.7749 28.1556 8.48381 29.0861 6.873C29.8356 5.57587 30.6604 3.50475 31.5604 0.659812C30.8181 0.219938 29.9659 0 29.0861 0H18.9143C18.0345 0 17.1825 0.2475 16.44 0.659812C17.5849 3.92269 18.5565 6.24487 19.3545 7.62619C20.2365 9.15281 21.7851 11.1926 24.0002 13.7458Z" fill="#00832D"/>
<path d="M32.88 29.1411H15.1204L7.56038 42.2271C8.3025 42.667 9.15469 42.8869 10.0344 42.8869H37.9659C38.8457 42.8869 39.6981 42.6394 40.4402 42.2269L32.8802 29.1411H32.88Z" fill="#2684FC"/>
<path d="M24.0002 14.0858L16.4402 1C15.6977 1.43988 15.0654 2.04456 14.6256 2.81444L0.659813 27.007C0.228023 27.7602 0.000570464 28.6131 0 29.4813H15.1204L24.0002 14.0858Z" fill="#00AC47"/>
<path d="M40.3579 14.5705L33.3748 2.47411C32.9351 1.70423 32.3027 1.09954 31.5604 0.659668L24.0004 13.7457L32.88 29.1411H47.973C47.973 28.2887 47.7531 27.4367 47.3132 26.6669L40.3579 14.5705Z" fill="#FFBA00"/>
</g>
<defs>
<clipPath id="clip0_23_62">
<rect width="48" height="42.9375" fill="white"/>
</clipPath>
</defs>
</svg>
