<svg width="48" height="48" viewBox="0 0 48 48" fill="none" xmlns="http://www.w3.org/2000/svg">
<g clip-path="url(#clip0_23_58)">
<path d="M24 0C17.6348 0 11.5303 2.52856 7.02944 7.02944C2.52856 11.5303 0 17.6348 0 24C0 30.3652 2.52856 36.4697 7.02944 40.9706C11.5303 45.4714 17.6348 48 24 48C30.3652 48 36.4697 45.4714 40.9706 40.9706C45.4714 36.4697 48 30.3652 48 24C48 17.6348 45.4714 11.5303 40.9706 7.02944C36.4697 2.52856 30.3652 0 24 0ZM25.284 8.266C27.194 8.266 28.744 9.818 28.744 11.734V29.866H31.944C33.4732 29.8261 34.9264 29.1905 35.9939 28.0948C37.0614 26.999 37.6588 25.5298 37.6588 24C37.6588 22.4702 37.0614 21.001 35.9939 19.9052C34.9264 18.8095 33.4732 18.1739 31.944 18.134H30.612V14.666H31.942C33.1667 14.6671 34.3792 14.9093 35.5103 15.379C36.6414 15.8486 37.6689 16.5364 38.5341 17.4032C39.3994 18.2699 40.0855 19.2986 40.5532 20.4305C41.0209 21.5624 41.2611 22.7753 41.26 24C41.2613 25.2246 41.0214 26.4375 40.5539 27.5694C40.0864 28.7012 39.4005 29.7299 38.5354 30.5967C37.6703 31.4635 36.643 32.1513 35.512 32.621C34.381 33.0907 33.1686 33.333 31.944 33.334H25.286L25.284 8.266ZM15.968 14.666H22.626V39.732C20.714 39.732 19.166 38.18 19.166 36.266V18.132H15.966C14.4287 18.1604 12.964 18.791 11.8869 19.8882C10.8098 20.9854 10.2063 22.4615 10.2063 23.999C10.2063 25.5365 10.8098 27.0126 11.8869 28.1098C12.964 29.207 14.4287 29.8376 15.966 29.866H17.298V33.332H15.968C14.7436 33.331 13.5313 33.0887 12.4005 32.6192C11.2696 32.1497 10.2423 31.462 9.37728 30.5954C8.51221 29.7289 7.82629 28.7004 7.35869 27.5688C6.89108 26.4371 6.65095 25.2244 6.652 24C6.65069 22.7754 6.89062 21.5625 7.35811 20.4306C7.8256 19.2988 8.51147 18.2701 9.37657 17.4033C10.2417 16.5365 11.269 15.8487 12.4 15.379C13.531 14.9093 14.7434 14.6671 15.968 14.666Z" fill="#54D14D"/>
</g>
<defs>
<clipPath id="clip0_23_58">
<rect width="48" height="48" fill="white"/>
</clipPath>
</defs>
</svg>
