<svg width="48" height="48" viewBox="0 0 48 48" fill="none" xmlns="http://www.w3.org/2000/svg">
<g clip-path="url(#clip0_23_48)">
<path d="M10.2206 30.2698C10.2206 33.0185 7.97889 35.2636 5.22977 35.2636C2.48102 35.2636 0.236267 33.0185 0.236267 30.2698C0.236267 27.521 2.48139 25.2759 5.23014 25.2759H10.221L10.2206 30.2698ZM12.7365 30.2698C12.7365 27.521 14.9816 25.2759 17.7304 25.2759C20.4791 25.2759 22.7243 27.5206 22.7243 30.2698V42.7704C22.7243 45.5191 20.4795 47.7643 17.7304 47.7643C14.9816 47.7643 12.7365 45.5191 12.7365 42.7704V30.2698Z" fill="#DE1C59"/>
<path d="M17.7304 10.2207C14.9816 10.2207 12.7365 7.97895 12.7365 5.22983C12.7365 2.48108 14.9816 0.236328 17.7304 0.236328C20.4791 0.236328 22.7243 2.48145 22.7243 5.2302V10.2211L17.7304 10.2207ZM17.7304 12.7366C20.4791 12.7366 22.7243 14.9817 22.7243 17.7305C22.7243 20.4792 20.4795 22.7243 17.7304 22.7243H5.22977C2.48102 22.7243 0.236267 20.4796 0.236267 17.7305C0.236267 14.9817 2.48139 12.7366 5.23014 12.7366H17.7304Z" fill="#35C5F0"/>
<path d="M37.7794 17.7305C37.7794 14.9817 40.0211 12.7366 42.7703 12.7366C45.519 12.7366 47.7641 14.9817 47.7641 17.7305C47.7641 20.4792 45.519 22.7243 42.7703 22.7243H37.7794V17.7305ZM35.2635 17.7305C35.2635 20.4792 33.0184 22.7243 30.2696 22.7243C27.5209 22.7243 25.2758 20.4796 25.2758 17.7305V5.22983C25.2758 2.48108 27.5205 0.236328 30.2696 0.236328C33.0184 0.236328 35.2635 2.48145 35.2635 5.2302V17.7305Z" fill="#2EB57D"/>
<path d="M30.2696 37.7795C33.0184 37.7795 35.2635 40.0213 35.2635 42.7704C35.2635 45.5191 33.0184 47.7643 30.2696 47.7643C27.5209 47.7643 25.2758 45.5191 25.2758 42.7704V37.7795H30.2696ZM30.2696 35.2636C27.5209 35.2636 25.2758 33.0185 25.2758 30.2698C25.2758 27.521 27.5205 25.2759 30.2696 25.2759H42.7703C45.519 25.2759 47.7641 27.5206 47.7641 30.2698C47.7641 33.0185 45.519 35.2636 42.7703 35.2636H30.2696Z" fill="#EBB02E"/>
</g>
<defs>
<clipPath id="clip0_23_48">
<rect width="48" height="48" fill="white"/>
</clipPath>
</defs>
</svg>
