<svg width="68" height="68" viewBox="0 0 68 68" fill="none" xmlns="http://www.w3.org/2000/svg">
<path d="M36.0427 42.4595C41.6061 42.1773 46.7031 42.0495 47.5249 42.5102C47.9482 42.7482 48.6067 45.8762 48.9093 47.9682C50.6182 47.7642 52.7656 47.5765 54.911 47.4303C54.5924 45.8207 54.3959 44.8123 53.6731 43.2571C53.5636 43.0215 53.8635 42.9263 53.9855 43.1415C54.7098 44.4675 55.1962 45.91 55.4227 47.4038C58.3273 47.213 61.1932 47.0978 62.9894 47.0978C62.7854 45.34 61.6556 41.2892 59.6302 39.2122C58.0689 37.6111 55.0402 36.1862 52.3597 35.8489C52.3179 36.2204 52.1746 36.5732 51.9455 36.8686C51.7164 37.164 51.4103 37.3905 51.0609 37.5234C49.6288 38.0861 47.0149 38.234 44.6831 36.9532C42.2232 37.655 37.7152 40.3321 36.0427 42.4595Z" fill="#38A1FF"/>
<path d="M66.03 54.9708C51.3614 55.2465 36.7591 55.1921 22.0983 55.2088C21.8018 55.2088 21.7348 55.6722 22.0415 55.6776C36.6693 55.9479 51.4716 55.6297 66.097 55.4505C66.4095 55.4478 66.3408 54.965 66.03 54.9708Z" fill="#38A1FF"/>
<path d="M29.9129 25.9882C31.4187 26.0164 38.7576 25.8798 39.5379 25.8461C39.7732 25.8359 39.7671 25.4299 39.5379 25.4299C38.4904 25.4299 31.5986 25.5629 29.9129 25.6513C29.8721 25.6568 29.8347 25.6769 29.8076 25.7079C29.7805 25.7388 29.7656 25.7786 29.7656 25.8197C29.7656 25.8609 29.7805 25.9006 29.8076 25.9316C29.8347 25.9626 29.8721 25.9827 29.9129 25.9882Z" fill="#38A1FF"/>
<path d="M23.902 24.1085C23.7925 24.1656 21.8991 26.4416 22.7715 26.1709C22.8953 26.1325 24.1315 24.5661 24.1924 24.2853C24.1997 24.2489 24.1956 24.2111 24.1807 24.1771C24.1658 24.1431 24.1408 24.1145 24.1091 24.0952C24.0774 24.0759 24.0405 24.0668 24.0035 24.0692C23.9664 24.0716 23.931 24.0853 23.902 24.1085Z" fill="#38A1FF"/>
<path d="M19.7761 18.9381C20.385 18.9666 32.7845 18.9357 33.5236 18.8629C33.6286 18.849 33.7247 18.7966 33.7932 18.7159C33.8618 18.6352 33.8979 18.5319 33.8947 18.4261C33.8914 18.3203 33.849 18.2194 33.7756 18.1431C33.7022 18.0667 33.6031 18.0204 33.4975 18.0129C30.0468 18.0558 22.8735 18.0735 19.7955 18.1408C19.3337 18.1513 19.295 18.9163 19.7761 18.9381Z" fill="#38A1FF"/>
<path d="M37.1327 32.0224C36.3348 32.0224 30.2675 31.9544 29.8377 32.0772C29.6915 32.1193 29.6337 32.356 29.8092 32.406C30.2675 32.5375 36.3031 32.4709 37.1365 32.4709C37.9698 32.4709 38.7787 32.5008 39.5947 32.4709C39.8443 32.4617 39.8259 32.0435 39.5784 32.0326C38.7664 31.9966 37.9464 32.0224 37.1327 32.0224Z" fill="#38A1FF"/>
<path d="M29.7422 35.1992C29.6907 35.2145 29.6473 35.2495 29.6215 35.2966C29.5956 35.3437 29.5894 35.3991 29.6042 35.4508C29.6742 35.6888 29.3597 35.6072 39.7001 35.7796C39.7572 35.7738 39.81 35.747 39.8485 35.7044C39.8869 35.6619 39.9082 35.6066 39.9082 35.5492C39.9082 35.4919 39.8869 35.4366 39.8485 35.394C39.81 35.3515 39.7572 35.3247 39.7001 35.3189C29.7803 35.1587 30.396 35.1485 29.7422 35.1992Z" fill="#38A1FF"/>
<path d="M39.4791 29.3046C39.5344 29.3009 39.5864 29.2767 39.6249 29.2368C39.6634 29.1969 39.6857 29.1441 39.6874 29.0887C39.6891 29.0333 39.6702 28.9792 39.6343 28.937C39.5984 28.8948 39.548 28.8674 39.493 28.8602C38.0174 28.8194 31.1508 28.7623 29.905 29.0105C29.701 29.051 29.7466 29.3481 29.9414 29.3655C30.9951 29.4603 32.606 29.1064 39.4791 29.3046Z" fill="#38A1FF"/>
<path d="M48.5479 23.2642C48.5663 20.3354 48.7023 16.6818 48.4565 13.8401C48.4497 13.7974 48.4274 13.7587 48.3938 13.7316C48.3602 13.7044 48.3178 13.6906 48.2746 13.6929C48.2315 13.6952 48.1907 13.7133 48.1602 13.7439C48.1297 13.7745 48.1116 13.8153 48.1093 13.8584C48.0294 15.2218 48.1046 21.5567 48.1093 23.2968C48.11 23.5828 48.5462 23.5505 48.5479 23.2642Z" fill="#38A1FF"/>
<path d="M22.8898 36.8328C23.3111 37.2944 23.7591 37.7309 24.2314 38.1401C24.4354 38.3322 24.7496 38.0259 24.5442 37.8341C24.104 37.3912 23.6412 36.9713 23.1577 36.5761C23.0105 36.4819 22.7762 36.6747 22.8898 36.8328Z" fill="#38A1FF"/>
<path d="M4.04603 13.8402C4.04603 13.5845 3.64347 13.5379 3.64007 13.7997C3.50611 24.6307 3.68495 37.2288 4.20243 48.0037C4.21671 48.3022 4.67843 48.2291 4.66313 47.9326C4.11641 36.5348 4.03039 25.2475 4.04603 13.8402Z" fill="#38A1FF"/>
<path d="M9.16059 38.0083C9.04635 38.1783 9.31121 38.3945 9.44483 38.2358C9.61721 38.0318 10.6168 36.8734 10.5668 36.6242C10.4291 35.9639 9.35575 37.7196 9.16059 38.0083Z" fill="#38A1FF"/>
<path d="M16.6403 32.5139C16.4658 32.4816 15.3595 33.4636 15.1361 33.6767C13.0475 32.311 13.2552 32.6472 13.2811 33.4727C13.2889 34.0374 13.3282 34.6012 13.3987 35.1615C13.4242 35.3387 13.6935 35.3077 13.7047 35.1353C13.7472 34.504 13.6659 33.8746 13.6557 33.2436C15.4948 34.3656 14.9263 34.3316 16.6437 32.9247C16.8477 33.1501 17.819 34.0953 18.1131 34.0596C18.3511 34.03 19.1525 32.9532 19.3433 32.7237C19.3433 33.2109 19.3589 34.6015 19.5034 34.9953C19.5782 35.1993 19.7754 35.1272 19.7856 34.9242C19.8108 34.4917 19.7584 33.4666 19.7594 32.9675C19.7594 32.399 19.7577 32.2535 19.5197 31.9135C19.0029 31.175 17.6939 29.3659 16.8953 28.384C16.1918 27.5187 16.1609 27.5 15.6672 28.2643C14.9066 29.4437 13.6299 31.7323 13.4347 32.1675C13.3521 32.3507 13.6347 32.4371 13.7329 32.3014C14.06 31.8496 14.8005 30.5212 15.1415 29.9367C15.9082 29.9674 16.6761 29.9544 17.4413 29.898C18.0727 30.646 18.6694 31.4185 19.2433 32.21L18.0723 33.6308C17.9129 33.5044 16.8167 32.5466 16.6403 32.5139Z" fill="#38A1FF"/>
<path d="M22.4982 47.736C20.6713 47.634 5.79532 47.7139 5.21494 47.804C5.17202 47.8178 5.1349 47.8455 5.10938 47.8827C5.08387 47.9199 5.0714 47.9645 5.07393 48.0095C5.07645 48.0545 5.09383 48.0975 5.12334 48.1316C5.15285 48.1657 5.19284 48.1891 5.23704 48.198C10.8617 48.214 16.831 48.1695 22.4655 48.1756C22.7396 48.1756 22.7865 47.753 22.4982 47.736Z" fill="#38A1FF"/>
<path d="M9.87737 26.6842C10.0786 26.9089 10.3874 26.6274 10.2201 26.4367C9.81413 25.976 8.94441 24.9298 8.54355 24.5775C8.38477 24.4378 8.16955 24.6564 8.28175 24.823C8.57007 25.2531 9.47991 26.2408 9.87737 26.6842Z" fill="#38A1FF"/>
<path d="M16.422 24.684C16.4475 23.8016 16.3953 22.9186 16.2659 22.0453C16.248 22.0139 16.2214 21.9883 16.1893 21.9717C16.1571 21.9552 16.1209 21.9483 16.0849 21.9519C16.0489 21.9555 16.0148 21.9694 15.9865 21.992C15.9583 22.0146 15.9373 22.0449 15.9259 22.0793C15.8984 22.9607 15.9412 23.843 16.0538 24.7177C16.064 24.7615 16.0898 24.8002 16.1263 24.8266C16.1628 24.8529 16.2077 24.8652 16.2525 24.8611C16.2974 24.857 16.3393 24.8368 16.3704 24.8043C16.4015 24.7717 16.4199 24.729 16.422 24.684Z" fill="#38A1FF"/>
<path d="M16.7195 37.8477C16.7195 38.1299 16.6444 40.0033 16.7457 40.2491C16.7636 40.2801 16.7893 40.3059 16.8203 40.3238C16.8513 40.3417 16.8865 40.3511 16.9223 40.3511C16.9581 40.3511 16.9933 40.3417 17.0243 40.3238C17.0553 40.3059 17.081 40.2801 17.0989 40.2491C17.2047 39.9792 17.0847 38.2194 17.0707 37.8477C17.0524 37.6488 16.7195 37.6448 16.7195 37.8477Z" fill="#38A1FF"/>
<path d="M8.21272 31.7021C12.342 23.9361 21.7546 24.7521 25.2161 31.0727C21.1266 37.3141 13.1148 38.259 8.19402 32.258C8.04034 32.071 7.85028 32.31 7.99002 32.5058C12.3162 38.5238 21.5598 37.7384 25.3766 31.6558C25.5009 31.5012 25.5735 31.3114 25.5841 31.1133C25.5946 30.9152 25.5426 30.7188 25.4354 30.5518C21.2381 23.3636 10.726 24.6566 7.92848 31.5181C7.84518 31.7221 8.1131 31.8897 8.21272 31.7021Z" fill="#38A1FF"/>
<path fill-rule="evenodd" clip-rule="evenodd" d="M45.8504 23.8144C44.7869 24.0184 43.8488 26.3416 45.0221 27.4293C45.7406 28.0953 49.0491 28.1235 51.0547 28.0382C51.0692 28.2836 51.1218 28.5254 51.2108 28.7546C51.2907 28.9586 51.5301 29.0232 51.4706 28.6553C51.4381 28.4458 51.4232 28.2339 51.426 28.0219C51.832 28.0018 52.1526 27.9773 52.3597 27.9539C52.3056 28.4069 52.2278 28.8568 52.1264 29.3016C52.0703 29.5454 52.344 29.591 52.4369 29.3584C52.7215 28.6229 52.8366 27.8326 52.7738 27.0464C52.6528 25.3134 47.7931 23.4411 45.8504 23.8144ZM46.1853 24.7297C45.696 24.8415 45.5804 25.5848 45.5359 25.9822C45.4594 26.6622 45.0259 26.1862 45.1299 25.5882C45.2095 25.1373 45.5947 24.4029 46.1567 24.476C46.1893 24.4743 46.2213 24.485 46.2462 24.5061C46.2711 24.5272 46.287 24.557 46.2906 24.5894C46.2943 24.6218 46.2854 24.6543 46.2658 24.6804C46.2462 24.7065 46.2174 24.7241 46.1853 24.7297Z" fill="#191919"/>
<path fill-rule="evenodd" clip-rule="evenodd" d="M49.8267 30.8108C50.0977 30.3518 50.284 29.8478 50.3768 29.3229C50.8335 29.4057 51.269 29.5791 51.6576 29.8329C51.8888 29.9326 51.9765 29.6289 51.8616 29.5347C51.4443 29.1947 50.9342 28.9882 50.3979 28.9421C50.1504 28.4733 48.2688 28.3641 47.9784 28.8588C47.9074 28.819 47.8287 28.7946 47.7475 28.7872C47.6664 28.7799 47.5846 28.7898 47.5075 28.8163C47.3596 28.4104 45.6909 28.3087 45.2751 28.7776C44.796 28.7249 44.5971 29.1672 45.2302 29.1631C45.2537 29.6026 45.3349 30.037 45.472 30.4551C45.6358 30.7904 46.8143 30.7853 47.0489 30.6156C47.328 30.414 47.4548 29.5337 47.5341 29.1947C47.649 29.1586 47.7733 29.1659 47.8832 29.2152C47.8808 29.6696 47.9325 30.1227 48.0373 30.565C48.2175 30.9233 49.5652 31.1195 49.8267 30.8108ZM46.92 30.226C46.8646 30.3596 46.8146 30.3916 46.3679 30.3739C45.6131 30.3443 45.7712 30.5078 45.54 28.9877C46.0717 28.8071 46.6481 28.8071 47.1798 28.9877C47.1725 29.4132 47.0843 29.8334 46.92 30.226ZM48.3409 30.38C48.2566 29.9621 48.2266 29.535 48.2515 29.1094C48.8345 28.9013 49.4747 28.9208 50.0439 29.1642C50.0121 29.4985 49.9263 29.8255 49.79 30.1325C49.5968 30.5551 49.5649 30.6105 48.9559 30.5609C48.6635 30.5371 48.382 30.4718 48.3409 30.38Z" fill="#191919"/>
<path fill-rule="evenodd" clip-rule="evenodd" d="M48.6292 30.1085C48.6928 30.3376 49.1392 30.3645 49.0351 29.7025C48.9756 29.3258 48.4446 29.4441 48.6292 30.1085Z" fill="#191919"/>
<path fill-rule="evenodd" clip-rule="evenodd" d="M52.4855 29.8344C51.3206 29.9319 50.7457 32.0658 50.1269 32.2701C49.6944 32.4133 48.7244 31.7911 47.7442 31.7241C46.7639 31.6571 46.2057 32.0712 46.0227 31.9838C45.8398 31.8965 45.966 31.1315 45.966 30.953C45.966 30.7745 45.8687 30.6769 45.696 31.0706C45.5233 31.4643 43.8389 35.2438 44.5716 36.2607C45.6188 37.7139 49.8923 38.0216 51.219 37.022C52.8822 35.7687 51.4668 31.7438 51.8765 30.6952C51.9536 30.5454 52.0764 30.424 52.2272 30.3488C52.378 30.2735 52.5489 30.2484 52.715 30.277C53.2753 30.5198 53.1213 32.181 52.2257 31.9209C52.0006 31.856 51.9496 32.1389 52.1577 32.248C52.766 32.568 53.363 32.0692 53.4426 31.2331C53.5021 30.6 53.2872 29.7674 52.4855 29.8344ZM47.8475 33.6084C47.0033 33.6084 46.8326 33.2735 46.7616 32.7244C47.4923 32.8814 48.2494 32.8683 48.9743 32.6859C48.8971 33.1878 48.79 33.6097 47.8475 33.6097V33.6084Z" fill="#191919"/>
<path fill-rule="evenodd" clip-rule="evenodd" d="M47.4436 30.0413C47.2873 30.4017 47.1702 30.7779 47.0944 31.1633C47.0104 31.6206 47.6187 31.622 47.9614 31.5693C48.1654 31.538 48.2028 31.3054 47.9794 31.2891C47.8152 31.2769 47.4926 31.2687 47.462 31.2119C47.49 30.8326 47.563 30.4579 47.6792 30.0957C47.7265 29.9461 47.5082 29.8876 47.4436 30.0413Z" fill="#191919"/>
<path fill-rule="evenodd" clip-rule="evenodd" d="M46.478 30.1239C46.667 30.0518 46.682 29.5428 46.5205 29.448C46.1128 29.2059 46.056 30.283 46.478 30.1239Z" fill="#191919"/>
<path fill-rule="evenodd" clip-rule="evenodd" d="M49.8042 12.2163C34.0799 12.2285 17.3873 12.1922 1.90232 12.3241C1.63848 12.3261 1.63236 13.0041 1.886 13.0058C17.5617 13.104 34.0718 12.9816 49.7879 12.9694C50.0701 12.9691 50.0762 12.2163 49.8042 12.2163Z" fill="#191919"/>
<path fill-rule="evenodd" clip-rule="evenodd" d="M31.8896 48.4105C29.2036 48.2507 25.043 47.725 22.5366 46.6489C22.2142 46.5102 20.622 46.7703 18.8142 45.9349C18.6252 45.8479 18.5501 46.1141 18.7269 46.2232C19.6506 46.7924 20.8175 46.944 21.8831 46.9784C22.1695 46.971 22.4533 47.0344 22.7093 47.163C25.6625 48.2222 28.7727 48.7779 31.91 48.8069C32.1677 48.8106 32.1596 48.4268 31.8896 48.4105Z" fill="#191919"/>
<path fill-rule="evenodd" clip-rule="evenodd" d="M62.4274 47.6394C62.375 47.3531 61.9891 47.4541 62.0374 47.7387C62.2036 48.7602 62.1377 49.8061 61.8446 50.7987C61.1507 53.2171 59.1087 52.8292 57.0646 52.735C54.9192 52.6364 51.9646 52.4307 50.1109 52.3453C50.07 52.3399 50.0285 52.3507 49.9954 52.3753C49.9623 52.4 49.9401 52.4366 49.9336 52.4774C49.9271 52.5182 49.9368 52.5599 49.9605 52.5936C49.9843 52.6274 50.0203 52.6505 50.0609 52.6581C51.8442 52.9414 55.6536 53.109 57.1377 53.1794C59.1675 53.2759 61.4319 53.5466 62.1877 51.1965C62.5596 50.0487 62.6419 48.8267 62.4274 47.6394Z" fill="#191919"/>
<path fill-rule="evenodd" clip-rule="evenodd" d="M49.1222 48.8512C51.749 48.4335 54.3952 48.1483 57.0507 47.9968C57.0936 47.9929 57.1333 47.9726 57.1616 47.9401C57.1899 47.9076 57.2045 47.8654 57.2024 47.8223C57.2003 47.7793 57.1816 47.7388 57.1503 47.7092C57.119 47.6796 57.0774 47.6632 57.0343 47.6636C54.3607 47.7733 51.6961 48.0444 49.0552 48.4755C49.0054 48.4845 48.9612 48.513 48.9323 48.5546C48.9035 48.5962 48.8924 48.6475 48.9014 48.6973C48.9104 48.7472 48.9388 48.7914 48.9804 48.8202C49.022 48.8491 49.0734 48.8602 49.1232 48.8512H49.1222Z" fill="#191919"/>
<path fill-rule="evenodd" clip-rule="evenodd" d="M21.1565 45.9101C21.1848 45.9099 21.2127 45.904 21.2387 45.8928C21.2646 45.8815 21.288 45.8652 21.3075 45.8447C21.327 45.8242 21.3422 45.8 21.3521 45.7735C21.362 45.747 21.3665 45.7188 21.3652 45.6905C21.364 45.6623 21.3571 45.6345 21.3449 45.609C21.3327 45.5835 21.3155 45.5607 21.2943 45.542C21.2731 45.5232 21.2484 45.509 21.2215 45.5C21.1947 45.4911 21.1663 45.4876 21.1381 45.4899C19.8761 45.5304 19.2392 45.172 18.4062 44.5804C18.2743 44.4869 18.1342 44.6518 18.2362 44.7844C18.8292 45.5681 20.2127 45.9469 21.1565 45.9101Z" fill="#191919"/>
<path fill-rule="evenodd" clip-rule="evenodd" d="M23.256 43.758C23.4097 44.0245 23.732 44.0606 24.0189 44.1255C25.7138 44.5107 29.5922 44.3822 31.3912 44.3611C31.6468 44.3581 31.5952 44.0276 31.3323 44.03C30.0189 44.0432 26.0549 44.0806 24.088 43.7175C23.7248 43.6495 23.7435 43.7032 23.5582 43.4115C23.208 42.8587 22.6858 42.1824 22.0524 42.1712C21.8633 42.1678 21.8484 42.35 22.0095 42.4309C22.5691 42.7117 23.0108 43.1819 23.256 43.758Z" fill="#191919"/>
<path fill-rule="evenodd" clip-rule="evenodd" d="M22.134 43.8335C21.2561 43.5758 20.0155 43.1623 19.3331 42.2807C19.1291 42.0162 18.9557 42.2219 19.057 42.4351C19.482 43.3299 21.0378 44.1351 21.931 44.1691C22.425 44.1898 22.2877 43.8784 22.134 43.8335Z" fill="#191919"/>
<path fill-rule="evenodd" clip-rule="evenodd" d="M18.5786 43.1395C18.5506 43.1053 18.5105 43.0833 18.4667 43.0778C18.4229 43.0723 18.3786 43.0837 18.343 43.1099C18.3074 43.136 18.2832 43.1748 18.2753 43.2182C18.2673 43.2616 18.2764 43.3065 18.3005 43.3435C18.6246 43.8084 19.0455 44.1977 19.5342 44.4847C20.023 44.7716 20.5681 44.9494 21.132 45.0057C21.1764 45.0073 21.2202 44.9943 21.2565 44.9687C21.2929 44.9431 21.3199 44.9064 21.3334 44.864C21.347 44.8217 21.3463 44.7761 21.3316 44.7342C21.3168 44.6922 21.2888 44.6563 21.2517 44.6317C20.9535 44.5032 19.686 44.4206 18.5786 43.1395Z" fill="#191919"/>
<path fill-rule="evenodd" clip-rule="evenodd" d="M57.7204 53.5418C57.1115 53.4626 50.048 53.619 49.7209 53.4851C49.3938 53.3511 47.702 43.7158 47.26 43.0828C46.818 42.4497 32.8953 42.8512 32.2622 43.2167C31.6292 43.5822 33.7198 54.588 34.2614 54.8107C34.7446 55.0089 56.9945 54.7335 57.7214 54.6951C58.4484 54.6567 58.3294 53.6211 57.7204 53.5418ZM40.1791 50.3754C38.2796 50.5335 37.6842 47.4174 39.5824 47.1077C40.4834 46.9605 41.2773 47.7595 41.4456 48.7434C41.4806 48.9352 41.4748 49.1322 41.4285 49.3215C41.3822 49.5109 41.2965 49.6884 41.177 49.8424C41.0575 49.9964 40.9069 50.1235 40.7349 50.2153C40.563 50.3072 40.3736 50.3617 40.1791 50.3754Z" fill="#191919"/>
</svg>
