<svg width="48" height="48" viewBox="0 0 48 48" fill="none" xmlns="http://www.w3.org/2000/svg">
<g clip-path="url(#clip0_23_53)">
<path d="M24.015 0C25.3708 0.0024375 26.7043 0.117 28.0005 0.33375V14.3063L37.9063 4.42575C38.9977 5.20091 40.0225 6.06571 40.9701 7.01119C41.9186 7.95677 42.7866 8.97982 43.5651 10.0697L33.6587 19.95H47.6677C47.8888 21.2626 48 22.5914 48 23.9226V23.955C48 25.3099 47.8851 26.6374 47.6677 27.93H33.6562L43.5651 37.8079C42.7868 38.897 41.9198 39.92 40.9731 40.8664H40.9702C40.0236 41.8118 38.9996 42.6767 37.9091 43.4518L28.0005 33.5713V47.5438C26.6842 47.7637 25.352 47.8754 24.0174 47.8778H23.9826C22.6488 47.8754 21.3175 47.7638 20.0019 47.544V33.5715L10.0961 43.4518C7.90862 41.899 5.99602 39.9914 4.43738 37.8081L14.3438 27.93H0.334688C0.111712 26.6142 -0.000244758 25.282 4.01754e-07 23.9475V23.8779C0.0022504 23.5264 0.0253129 23.0968 0.0583129 22.6524L0.0686254 22.5187C0.1665 21.2679 0.334688 19.95 0.334688 19.95H14.3438L4.43738 10.0697C5.21273 8.98053 6.07895 7.959 7.02675 7.01606L7.03163 7.01119C7.97907 6.06524 9.00416 5.2004 10.0961 4.42575L20.0019 14.3063V0.33375C21.3191 0.113747 22.652 0.00212258 23.9874 0L24.015 0ZM24.0126 17.955H23.9897C22.2585 17.9539 20.5414 18.2652 18.9208 18.8741C18.3127 20.4896 18.0005 22.2015 17.9993 23.9276V23.9501C18.0001 25.6765 18.3131 27.3884 18.9231 29.0034C20.5428 29.6125 22.2592 29.9239 23.9897 29.9226H24.0126C25.7957 29.9226 27.5033 29.5963 29.0792 29.0034C29.6894 27.3885 30.0016 25.6763 30.0007 23.9499V23.9274C30.0007 22.1492 29.6732 20.4456 29.0792 18.8741C27.4595 18.2651 25.743 17.9537 24.0126 17.955Z" fill="#FF4A00"/>
</g>
<defs>
<clipPath id="clip0_23_53">
<rect width="48" height="48" fill="white"/>
</clipPath>
</defs>
</svg>
